<mxfile host="Electron" agent="Mozilla/5.0 (Windows NT 10.0; Win64; x64) AppleWebKit/537.36 (KHTML, like Gecko) draw.io/26.0.4 Chrome/128.0.6613.186 Electron/32.2.5 Safari/537.36" version="26.0.4">
  <diagram name="PÃ¡gina-1" id="6AbOJIgC5mkOU_HFHWqA">
    <mxGraphModel dx="3365" dy="2449" grid="1" gridSize="10" guides="1" tooltips="1" connect="1" arrows="1" fold="1" page="1" pageScale="1" pageWidth="827" pageHeight="1169" math="0" shadow="0">
      <root>
        <mxCell id="0" />
        <mxCell id="1" parent="0" />
        <mxCell id="h_ewbcy0oDdWf5_KwiLt-87" style="edgeStyle=orthogonalEdgeStyle;rounded=0;orthogonalLoop=1;jettySize=auto;html=1;exitX=0.5;exitY=1;exitDx=0;exitDy=0;entryX=0.5;entryY=0;entryDx=0;entryDy=0;endArrow=none;endFill=0;" parent="1" source="h_ewbcy0oDdWf5_KwiLt-24" target="h_ewbcy0oDdWf5_KwiLt-64" edge="1">
          <mxGeometry relative="1" as="geometry" />
        </mxCell>
        <mxCell id="fs7uPyh7k5oqFPLGZ5jc-13" style="edgeStyle=orthogonalEdgeStyle;rounded=0;orthogonalLoop=1;jettySize=auto;html=1;exitX=1;exitY=1;exitDx=0;exitDy=0;entryX=0;entryY=0.5;entryDx=0;entryDy=0;endArrow=none;endFill=0;" parent="1" source="h_ewbcy0oDdWf5_KwiLt-24" target="h_ewbcy0oDdWf5_KwiLt-90" edge="1">
          <mxGeometry relative="1" as="geometry">
            <Array as="points">
              <mxPoint x="-90" y="290" />
              <mxPoint x="-90" y="405" />
            </Array>
          </mxGeometry>
        </mxCell>
        <mxCell id="fs7uPyh7k5oqFPLGZ5jc-22" style="edgeStyle=orthogonalEdgeStyle;rounded=0;orthogonalLoop=1;jettySize=auto;html=1;exitX=0;exitY=0.75;exitDx=0;exitDy=0;entryX=1;entryY=0.5;entryDx=0;entryDy=0;endArrow=none;endFill=0;" parent="1" source="h_ewbcy0oDdWf5_KwiLt-24" target="h_ewbcy0oDdWf5_KwiLt-65" edge="1">
          <mxGeometry relative="1" as="geometry" />
        </mxCell>
        <mxCell id="fs7uPyh7k5oqFPLGZ5jc-23" style="edgeStyle=orthogonalEdgeStyle;rounded=0;orthogonalLoop=1;jettySize=auto;html=1;exitX=0;exitY=1;exitDx=0;exitDy=0;entryX=1;entryY=0.5;entryDx=0;entryDy=0;endArrow=none;endFill=0;" parent="1" source="h_ewbcy0oDdWf5_KwiLt-24" target="fs7uPyh7k5oqFPLGZ5jc-21" edge="1">
          <mxGeometry relative="1" as="geometry" />
        </mxCell>
        <mxCell id="h_ewbcy0oDdWf5_KwiLt-24" value="Producto" style="whiteSpace=wrap;html=1;align=center;" parent="1" vertex="1">
          <mxGeometry x="-185" y="250" width="100" height="40" as="geometry" />
        </mxCell>
        <mxCell id="h_ewbcy0oDdWf5_KwiLt-78" style="edgeStyle=orthogonalEdgeStyle;rounded=0;orthogonalLoop=1;jettySize=auto;html=1;exitX=0.5;exitY=1;exitDx=0;exitDy=0;entryX=0.5;entryY=0;entryDx=0;entryDy=0;endArrow=none;endFill=0;" parent="1" source="h_ewbcy0oDdWf5_KwiLt-26" target="h_ewbcy0oDdWf5_KwiLt-58" edge="1">
          <mxGeometry relative="1" as="geometry" />
        </mxCell>
        <mxCell id="h_ewbcy0oDdWf5_KwiLt-26" value="Promocion" style="whiteSpace=wrap;html=1;align=center;" parent="1" vertex="1">
          <mxGeometry x="-62.5" y="10" width="100" height="40" as="geometry" />
        </mxCell>
        <mxCell id="h_ewbcy0oDdWf5_KwiLt-76" style="edgeStyle=orthogonalEdgeStyle;rounded=0;orthogonalLoop=1;jettySize=auto;html=1;exitX=0.5;exitY=1;exitDx=0;exitDy=0;entryX=0.5;entryY=0;entryDx=0;entryDy=0;endArrow=none;endFill=0;" parent="1" source="h_ewbcy0oDdWf5_KwiLt-27" target="h_ewbcy0oDdWf5_KwiLt-61" edge="1">
          <mxGeometry relative="1" as="geometry" />
        </mxCell>
        <mxCell id="h_ewbcy0oDdWf5_KwiLt-27" value="PrecioHistorico" style="whiteSpace=wrap;html=1;align=center;" parent="1" vertex="1">
          <mxGeometry x="-285" y="-240" width="100" height="40" as="geometry" />
        </mxCell>
        <mxCell id="h_ewbcy0oDdWf5_KwiLt-68" style="edgeStyle=orthogonalEdgeStyle;rounded=0;orthogonalLoop=1;jettySize=auto;html=1;exitX=0.5;exitY=1;exitDx=0;exitDy=0;entryX=0;entryY=0.5;entryDx=0;entryDy=0;endArrow=none;endFill=0;" parent="1" source="h_ewbcy0oDdWf5_KwiLt-28" target="h_ewbcy0oDdWf5_KwiLt-62" edge="1">
          <mxGeometry relative="1" as="geometry" />
        </mxCell>
        <mxCell id="hNK54wSJh9bYYilpVv1w-85" style="edgeStyle=orthogonalEdgeStyle;rounded=0;orthogonalLoop=1;jettySize=auto;html=1;exitX=0;exitY=0.5;exitDx=0;exitDy=0;entryX=0.5;entryY=1;entryDx=0;entryDy=0;endArrow=none;endFill=0;" parent="1" source="h_ewbcy0oDdWf5_KwiLt-28" target="hNK54wSJh9bYYilpVv1w-83" edge="1">
          <mxGeometry relative="1" as="geometry" />
        </mxCell>
        <mxCell id="0WUyaa3dZcGhLMTYsMIW-4" style="edgeStyle=orthogonalEdgeStyle;rounded=0;orthogonalLoop=1;jettySize=auto;html=1;exitX=0;exitY=0;exitDx=0;exitDy=0;entryX=0.5;entryY=1;entryDx=0;entryDy=0;endArrow=none;endFill=0;" edge="1" parent="1" source="h_ewbcy0oDdWf5_KwiLt-28" target="0WUyaa3dZcGhLMTYsMIW-2">
          <mxGeometry relative="1" as="geometry" />
        </mxCell>
        <mxCell id="h_ewbcy0oDdWf5_KwiLt-28" value="Proveedor" style="whiteSpace=wrap;html=1;align=center;" parent="1" vertex="1">
          <mxGeometry x="-400" y="40" width="100" height="40" as="geometry" />
        </mxCell>
        <mxCell id="h_ewbcy0oDdWf5_KwiLt-70" style="edgeStyle=orthogonalEdgeStyle;rounded=0;orthogonalLoop=1;jettySize=auto;html=1;exitX=1;exitY=0.5;exitDx=0;exitDy=0;entryX=0;entryY=0.5;entryDx=0;entryDy=0;endArrow=none;endFill=0;" parent="1" source="h_ewbcy0oDdWf5_KwiLt-29" target="h_ewbcy0oDdWf5_KwiLt-63" edge="1">
          <mxGeometry relative="1" as="geometry" />
        </mxCell>
        <mxCell id="h_ewbcy0oDdWf5_KwiLt-29" value="Categoria" style="whiteSpace=wrap;html=1;align=center;" parent="1" vertex="1">
          <mxGeometry x="-477.5" y="125" width="100" height="40" as="geometry" />
        </mxCell>
        <mxCell id="hNK54wSJh9bYYilpVv1w-199" style="edgeStyle=orthogonalEdgeStyle;rounded=0;orthogonalLoop=1;jettySize=auto;html=1;exitX=0;exitY=1;exitDx=0;exitDy=0;entryX=1;entryY=0.5;entryDx=0;entryDy=0;endArrow=none;endFill=0;" parent="1" source="h_ewbcy0oDdWf5_KwiLt-30" target="h_ewbcy0oDdWf5_KwiLt-95" edge="1">
          <mxGeometry relative="1" as="geometry">
            <Array as="points">
              <mxPoint x="100" y="620" />
              <mxPoint x="100" y="680" />
            </Array>
          </mxGeometry>
        </mxCell>
        <mxCell id="h_ewbcy0oDdWf5_KwiLt-30" value="DetalleVenta" style="whiteSpace=wrap;html=1;align=center;" parent="1" vertex="1">
          <mxGeometry x="135" y="580" width="100" height="40" as="geometry" />
        </mxCell>
        <mxCell id="h_ewbcy0oDdWf5_KwiLt-74" style="edgeStyle=orthogonalEdgeStyle;rounded=0;orthogonalLoop=1;jettySize=auto;html=1;exitX=1;exitY=0.5;exitDx=0;exitDy=0;entryX=0;entryY=0.5;entryDx=0;entryDy=0;endArrow=none;endFill=0;" parent="1" source="h_ewbcy0oDdWf5_KwiLt-31" target="h_ewbcy0oDdWf5_KwiLt-65" edge="1">
          <mxGeometry relative="1" as="geometry" />
        </mxCell>
        <mxCell id="hNK54wSJh9bYYilpVv1w-209" style="edgeStyle=orthogonalEdgeStyle;rounded=0;orthogonalLoop=1;jettySize=auto;html=1;exitX=0.25;exitY=1;exitDx=0;exitDy=0;entryX=0.5;entryY=0;entryDx=0;entryDy=0;endArrow=none;endFill=0;" parent="1" source="h_ewbcy0oDdWf5_KwiLt-31" target="h_ewbcy0oDdWf5_KwiLt-94" edge="1">
          <mxGeometry relative="1" as="geometry" />
        </mxCell>
        <mxCell id="h_ewbcy0oDdWf5_KwiLt-31" value="DetalleCompra" style="whiteSpace=wrap;html=1;align=center;" parent="1" vertex="1">
          <mxGeometry x="-465" y="250" width="100" height="40" as="geometry" />
        </mxCell>
        <mxCell id="0WUyaa3dZcGhLMTYsMIW-28" style="edgeStyle=orthogonalEdgeStyle;rounded=0;orthogonalLoop=1;jettySize=auto;html=1;exitX=0.25;exitY=0;exitDx=0;exitDy=0;endArrow=none;endFill=0;" edge="1" parent="1" source="h_ewbcy0oDdWf5_KwiLt-33" target="h_ewbcy0oDdWf5_KwiLt-91">
          <mxGeometry relative="1" as="geometry" />
        </mxCell>
        <mxCell id="h_ewbcy0oDdWf5_KwiLt-33" value="Caja" style="whiteSpace=wrap;html=1;align=center;" parent="1" vertex="1">
          <mxGeometry x="-430" y="1180" width="100" height="40" as="geometry" />
        </mxCell>
        <mxCell id="h_ewbcy0oDdWf5_KwiLt-34" value="Turno" style="whiteSpace=wrap;html=1;align=center;" parent="1" vertex="1">
          <mxGeometry x="-880" y="750" width="100" height="40" as="geometry" />
        </mxCell>
        <mxCell id="h_ewbcy0oDdWf5_KwiLt-35" value="Compra" style="whiteSpace=wrap;html=1;align=center;" parent="1" vertex="1">
          <mxGeometry x="-440" y="550" width="100" height="40" as="geometry" />
        </mxCell>
        <mxCell id="h_ewbcy0oDdWf5_KwiLt-224" style="edgeStyle=orthogonalEdgeStyle;rounded=0;orthogonalLoop=1;jettySize=auto;html=1;exitX=0.5;exitY=1;exitDx=0;exitDy=0;entryX=0.5;entryY=0;entryDx=0;entryDy=0;endArrow=none;endFill=0;" parent="1" source="h_ewbcy0oDdWf5_KwiLt-36" target="h_ewbcy0oDdWf5_KwiLt-59" edge="1">
          <mxGeometry relative="1" as="geometry" />
        </mxCell>
        <mxCell id="h_ewbcy0oDdWf5_KwiLt-249" style="edgeStyle=orthogonalEdgeStyle;rounded=0;orthogonalLoop=1;jettySize=auto;html=1;exitX=0;exitY=0.25;exitDx=0;exitDy=0;entryX=0.5;entryY=1;entryDx=0;entryDy=0;endArrow=none;endFill=0;" parent="1" source="h_ewbcy0oDdWf5_KwiLt-36" target="h_ewbcy0oDdWf5_KwiLt-245" edge="1">
          <mxGeometry relative="1" as="geometry">
            <Array as="points">
              <mxPoint x="-150" y="730" />
              <mxPoint x="-290" y="730" />
            </Array>
          </mxGeometry>
        </mxCell>
        <mxCell id="fs7uPyh7k5oqFPLGZ5jc-29" style="edgeStyle=orthogonalEdgeStyle;rounded=0;orthogonalLoop=1;jettySize=auto;html=1;exitX=0.25;exitY=0;exitDx=0;exitDy=0;entryX=1;entryY=0.5;entryDx=0;entryDy=0;endArrow=none;endFill=0;" parent="1" source="h_ewbcy0oDdWf5_KwiLt-36" target="fs7uPyh7k5oqFPLGZ5jc-27" edge="1">
          <mxGeometry relative="1" as="geometry">
            <Array as="points">
              <mxPoint x="-250" y="640" />
              <mxPoint x="-250" y="530" />
              <mxPoint x="-285" y="530" />
            </Array>
          </mxGeometry>
        </mxCell>
        <mxCell id="h_ewbcy0oDdWf5_KwiLt-36" value="Venta" style="whiteSpace=wrap;html=1;align=center;" parent="1" vertex="1">
          <mxGeometry x="-150" y="785" width="100" height="40" as="geometry" />
        </mxCell>
        <mxCell id="hNK54wSJh9bYYilpVv1w-195" style="edgeStyle=orthogonalEdgeStyle;rounded=0;orthogonalLoop=1;jettySize=auto;html=1;exitX=0.75;exitY=1;exitDx=0;exitDy=0;entryX=0;entryY=0.5;entryDx=0;entryDy=0;endArrow=none;endFill=0;" parent="1" source="h_ewbcy0oDdWf5_KwiLt-37" target="hNK54wSJh9bYYilpVv1w-176" edge="1">
          <mxGeometry relative="1" as="geometry">
            <Array as="points">
              <mxPoint x="-160" y="1065" />
              <mxPoint x="-160" y="1180" />
            </Array>
          </mxGeometry>
        </mxCell>
        <mxCell id="hNK54wSJh9bYYilpVv1w-197" style="edgeStyle=orthogonalEdgeStyle;rounded=0;orthogonalLoop=1;jettySize=auto;html=1;exitX=0;exitY=0.5;exitDx=0;exitDy=0;entryX=0.5;entryY=0;entryDx=0;entryDy=0;endArrow=none;endFill=0;" parent="1" source="h_ewbcy0oDdWf5_KwiLt-37" target="h_ewbcy0oDdWf5_KwiLt-92" edge="1">
          <mxGeometry relative="1" as="geometry" />
        </mxCell>
        <mxCell id="0WUyaa3dZcGhLMTYsMIW-34" style="edgeStyle=orthogonalEdgeStyle;rounded=0;orthogonalLoop=1;jettySize=auto;html=1;exitX=0.25;exitY=1;exitDx=0;exitDy=0;entryX=0.5;entryY=0;entryDx=0;entryDy=0;endArrow=none;endFill=0;" edge="1" parent="1" source="h_ewbcy0oDdWf5_KwiLt-37" target="0WUyaa3dZcGhLMTYsMIW-33">
          <mxGeometry relative="1" as="geometry" />
        </mxCell>
        <mxCell id="h_ewbcy0oDdWf5_KwiLt-37" value="Cliente" style="whiteSpace=wrap;html=1;align=center;" parent="1" vertex="1">
          <mxGeometry x="-255" y="1025" width="100" height="40" as="geometry" />
        </mxCell>
        <mxCell id="h_ewbcy0oDdWf5_KwiLt-247" style="edgeStyle=orthogonalEdgeStyle;rounded=0;orthogonalLoop=1;jettySize=auto;html=1;exitX=0;exitY=0.5;exitDx=0;exitDy=0;entryX=1;entryY=0.5;entryDx=0;entryDy=0;endArrow=none;endFill=0;" parent="1" source="h_ewbcy0oDdWf5_KwiLt-38" target="h_ewbcy0oDdWf5_KwiLt-246" edge="1">
          <mxGeometry relative="1" as="geometry" />
        </mxCell>
        <mxCell id="h_ewbcy0oDdWf5_KwiLt-265" style="edgeStyle=orthogonalEdgeStyle;rounded=0;orthogonalLoop=1;jettySize=auto;html=1;exitX=0.5;exitY=0;exitDx=0;exitDy=0;entryX=0.5;entryY=1;entryDx=0;entryDy=0;endArrow=none;endFill=0;" parent="1" source="h_ewbcy0oDdWf5_KwiLt-38" target="h_ewbcy0oDdWf5_KwiLt-243" edge="1">
          <mxGeometry relative="1" as="geometry" />
        </mxCell>
        <mxCell id="hNK54wSJh9bYYilpVv1w-20" style="edgeStyle=orthogonalEdgeStyle;rounded=0;orthogonalLoop=1;jettySize=auto;html=1;exitX=1;exitY=0.75;exitDx=0;exitDy=0;entryX=0.5;entryY=0;entryDx=0;entryDy=0;endArrow=none;endFill=0;" parent="1" source="h_ewbcy0oDdWf5_KwiLt-38" target="h_ewbcy0oDdWf5_KwiLt-91" edge="1">
          <mxGeometry relative="1" as="geometry" />
        </mxCell>
        <mxCell id="0WUyaa3dZcGhLMTYsMIW-70" style="edgeStyle=orthogonalEdgeStyle;rounded=0;orthogonalLoop=1;jettySize=auto;html=1;exitX=0.5;exitY=1;exitDx=0;exitDy=0;entryX=0.5;entryY=0;entryDx=0;entryDy=0;endArrow=none;endFill=0;" edge="1" parent="1" source="h_ewbcy0oDdWf5_KwiLt-38" target="0WUyaa3dZcGhLMTYsMIW-60">
          <mxGeometry relative="1" as="geometry" />
        </mxCell>
        <mxCell id="h_ewbcy0oDdWf5_KwiLt-38" value="Empleado" style="whiteSpace=wrap;html=1;align=center;" parent="1" vertex="1">
          <mxGeometry x="-577.5" y="840" width="100" height="40" as="geometry" />
        </mxCell>
        <mxCell id="hNK54wSJh9bYYilpVv1w-200" style="edgeStyle=orthogonalEdgeStyle;rounded=0;orthogonalLoop=1;jettySize=auto;html=1;exitX=1;exitY=0.5;exitDx=0;exitDy=0;entryX=0;entryY=0.5;entryDx=0;entryDy=0;endArrow=none;endFill=0;" parent="1" source="h_ewbcy0oDdWf5_KwiLt-39" target="h_ewbcy0oDdWf5_KwiLt-93" edge="1">
          <mxGeometry relative="1" as="geometry" />
        </mxCell>
        <mxCell id="h_ewbcy0oDdWf5_KwiLt-39" value="MetodoDePago" style="whiteSpace=wrap;html=1;align=center;" parent="1" vertex="1">
          <mxGeometry x="-150" y="535" width="100" height="40" as="geometry" />
        </mxCell>
        <mxCell id="h_ewbcy0oDdWf5_KwiLt-253" style="edgeStyle=orthogonalEdgeStyle;rounded=0;orthogonalLoop=1;jettySize=auto;html=1;exitX=0;exitY=0.5;exitDx=0;exitDy=0;entryX=1;entryY=0.5;entryDx=0;entryDy=0;endArrow=none;endFill=0;" parent="1" source="h_ewbcy0oDdWf5_KwiLt-40" target="h_ewbcy0oDdWf5_KwiLt-244" edge="1">
          <mxGeometry relative="1" as="geometry" />
        </mxCell>
        <mxCell id="h_ewbcy0oDdWf5_KwiLt-40" value="Usuario" style="whiteSpace=wrap;html=1;align=center;" parent="1" vertex="1">
          <mxGeometry x="-870" y="840" width="100" height="40" as="geometry" />
        </mxCell>
        <mxCell id="h_ewbcy0oDdWf5_KwiLt-82" style="edgeStyle=orthogonalEdgeStyle;rounded=0;orthogonalLoop=1;jettySize=auto;html=1;exitX=0.5;exitY=1;exitDx=0;exitDy=0;entryX=0;entryY=0.5;entryDx=0;entryDy=0;endArrow=none;endFill=0;" parent="1" source="h_ewbcy0oDdWf5_KwiLt-41" target="h_ewbcy0oDdWf5_KwiLt-56" edge="1">
          <mxGeometry relative="1" as="geometry" />
        </mxCell>
        <mxCell id="hNK54wSJh9bYYilpVv1w-60" style="edgeStyle=orthogonalEdgeStyle;rounded=0;orthogonalLoop=1;jettySize=auto;html=1;exitX=0;exitY=0.5;exitDx=0;exitDy=0;entryX=1;entryY=0.5;entryDx=0;entryDy=0;endArrow=none;endFill=0;" parent="1" source="h_ewbcy0oDdWf5_KwiLt-41" target="h_ewbcy0oDdWf5_KwiLt-60" edge="1">
          <mxGeometry relative="1" as="geometry" />
        </mxCell>
        <mxCell id="h_ewbcy0oDdWf5_KwiLt-41" value="InventarioDeMovimientos" style="whiteSpace=wrap;html=1;align=center;" parent="1" vertex="1">
          <mxGeometry x="330" width="140" height="40" as="geometry" />
        </mxCell>
        <mxCell id="fs7uPyh7k5oqFPLGZ5jc-28" style="edgeStyle=orthogonalEdgeStyle;rounded=0;orthogonalLoop=1;jettySize=auto;html=1;exitX=1;exitY=0.75;exitDx=0;exitDy=0;entryX=0;entryY=0.5;entryDx=0;entryDy=0;endArrow=none;endFill=0;" parent="1" source="h_ewbcy0oDdWf5_KwiLt-42" target="fs7uPyh7k5oqFPLGZ5jc-27" edge="1">
          <mxGeometry relative="1" as="geometry">
            <Array as="points">
              <mxPoint x="-500" y="460" />
            </Array>
          </mxGeometry>
        </mxCell>
        <mxCell id="hNK54wSJh9bYYilpVv1w-216" style="edgeStyle=orthogonalEdgeStyle;rounded=0;orthogonalLoop=1;jettySize=auto;html=1;exitX=0.5;exitY=0;exitDx=0;exitDy=0;entryX=0.5;entryY=1;entryDx=0;entryDy=0;endArrow=none;endFill=0;" parent="1" source="h_ewbcy0oDdWf5_KwiLt-42" target="h_ewbcy0oDdWf5_KwiLt-257" edge="1">
          <mxGeometry relative="1" as="geometry" />
        </mxCell>
        <mxCell id="h_ewbcy0oDdWf5_KwiLt-42" value="Devolucion" style="whiteSpace=wrap;html=1;align=center;" parent="1" vertex="1">
          <mxGeometry x="-615" y="440" width="100" height="40" as="geometry" />
        </mxCell>
        <mxCell id="hNK54wSJh9bYYilpVv1w-48" style="edgeStyle=orthogonalEdgeStyle;rounded=0;orthogonalLoop=1;jettySize=auto;html=1;exitX=0.75;exitY=1;exitDx=0;exitDy=0;entryX=0;entryY=0.5;entryDx=0;entryDy=0;endArrow=none;endFill=0;" parent="1" source="h_ewbcy0oDdWf5_KwiLt-43" target="hNK54wSJh9bYYilpVv1w-47" edge="1">
          <mxGeometry relative="1" as="geometry" />
        </mxCell>
        <mxCell id="h_ewbcy0oDdWf5_KwiLt-43" value="Sucursal" style="whiteSpace=wrap;html=1;align=center;" parent="1" vertex="1">
          <mxGeometry x="540" width="100" height="40" as="geometry" />
        </mxCell>
        <mxCell id="h_ewbcy0oDdWf5_KwiLt-44" value="Impuesto" style="whiteSpace=wrap;html=1;align=center;" parent="1" vertex="1">
          <mxGeometry x="125" y="385" width="100" height="40" as="geometry" />
        </mxCell>
        <mxCell id="h_ewbcy0oDdWf5_KwiLt-45" value="DetalleDevolucion" style="whiteSpace=wrap;html=1;align=center;" parent="1" vertex="1">
          <mxGeometry x="-750" y="330" width="110" height="40" as="geometry" />
        </mxCell>
        <mxCell id="h_ewbcy0oDdWf5_KwiLt-48" value="Rol" style="whiteSpace=wrap;html=1;align=center;" parent="1" vertex="1">
          <mxGeometry x="-1190" y="840" width="100" height="40" as="geometry" />
        </mxCell>
        <mxCell id="h_ewbcy0oDdWf5_KwiLt-83" style="edgeStyle=orthogonalEdgeStyle;rounded=0;orthogonalLoop=1;jettySize=auto;html=1;exitX=1;exitY=0.5;exitDx=0;exitDy=0;entryX=0.25;entryY=1;entryDx=0;entryDy=0;endArrow=none;endFill=0;" parent="1" source="h_ewbcy0oDdWf5_KwiLt-56" target="h_ewbcy0oDdWf5_KwiLt-43" edge="1">
          <mxGeometry relative="1" as="geometry" />
        </mxCell>
        <mxCell id="h_ewbcy0oDdWf5_KwiLt-56" value="Tiene" style="shape=rhombus;perimeter=rhombusPerimeter;whiteSpace=wrap;html=1;align=center;" parent="1" vertex="1">
          <mxGeometry x="444" y="60" width="70" height="60" as="geometry" />
        </mxCell>
        <mxCell id="h_ewbcy0oDdWf5_KwiLt-79" style="edgeStyle=orthogonalEdgeStyle;rounded=0;orthogonalLoop=1;jettySize=auto;html=1;exitX=0;exitY=0.5;exitDx=0;exitDy=0;entryX=0.75;entryY=0;entryDx=0;entryDy=0;endArrow=none;endFill=0;" parent="1" source="h_ewbcy0oDdWf5_KwiLt-58" target="h_ewbcy0oDdWf5_KwiLt-24" edge="1">
          <mxGeometry relative="1" as="geometry" />
        </mxCell>
        <mxCell id="h_ewbcy0oDdWf5_KwiLt-58" value="Tiene" style="shape=rhombus;perimeter=rhombusPerimeter;whiteSpace=wrap;html=1;align=center;" parent="1" vertex="1">
          <mxGeometry x="-47.5" y="95" width="70" height="60" as="geometry" />
        </mxCell>
        <mxCell id="h_ewbcy0oDdWf5_KwiLt-225" style="edgeStyle=orthogonalEdgeStyle;rounded=0;orthogonalLoop=1;jettySize=auto;html=1;exitX=0.5;exitY=1;exitDx=0;exitDy=0;entryX=0.5;entryY=0;entryDx=0;entryDy=0;endArrow=none;endFill=0;" parent="1" source="h_ewbcy0oDdWf5_KwiLt-59" target="h_ewbcy0oDdWf5_KwiLt-37" edge="1">
          <mxGeometry relative="1" as="geometry" />
        </mxCell>
        <mxCell id="h_ewbcy0oDdWf5_KwiLt-59" value="Realiza" style="shape=rhombus;perimeter=rhombusPerimeter;whiteSpace=wrap;html=1;align=center;" parent="1" vertex="1">
          <mxGeometry x="-240" y="890" width="70" height="60" as="geometry" />
        </mxCell>
        <mxCell id="hNK54wSJh9bYYilpVv1w-61" style="edgeStyle=orthogonalEdgeStyle;rounded=0;orthogonalLoop=1;jettySize=auto;html=1;exitX=0.5;exitY=1;exitDx=0;exitDy=0;entryX=1;entryY=0;entryDx=0;entryDy=0;endArrow=none;endFill=0;" parent="1" source="h_ewbcy0oDdWf5_KwiLt-60" target="h_ewbcy0oDdWf5_KwiLt-24" edge="1">
          <mxGeometry relative="1" as="geometry">
            <Array as="points">
              <mxPoint x="225" y="200" />
              <mxPoint x="-85" y="200" />
            </Array>
          </mxGeometry>
        </mxCell>
        <mxCell id="h_ewbcy0oDdWf5_KwiLt-60" value="Tiene" style="shape=rhombus;perimeter=rhombusPerimeter;whiteSpace=wrap;html=1;align=center;" parent="1" vertex="1">
          <mxGeometry x="190" y="-10" width="70" height="60" as="geometry" />
        </mxCell>
        <mxCell id="hNK54wSJh9bYYilpVv1w-207" style="edgeStyle=orthogonalEdgeStyle;rounded=0;orthogonalLoop=1;jettySize=auto;html=1;exitX=0.5;exitY=1;exitDx=0;exitDy=0;entryX=0.5;entryY=0;entryDx=0;entryDy=0;endArrow=none;endFill=0;" parent="1" source="h_ewbcy0oDdWf5_KwiLt-61" target="h_ewbcy0oDdWf5_KwiLt-24" edge="1">
          <mxGeometry relative="1" as="geometry" />
        </mxCell>
        <mxCell id="h_ewbcy0oDdWf5_KwiLt-61" value="Tiene" style="shape=rhombus;perimeter=rhombusPerimeter;whiteSpace=wrap;html=1;align=center;" parent="1" vertex="1">
          <mxGeometry x="-210" y="-125" width="70" height="60" as="geometry" />
        </mxCell>
        <mxCell id="hNK54wSJh9bYYilpVv1w-208" style="edgeStyle=orthogonalEdgeStyle;rounded=0;orthogonalLoop=1;jettySize=auto;html=1;exitX=1;exitY=0.5;exitDx=0;exitDy=0;entryX=0.25;entryY=0;entryDx=0;entryDy=0;endArrow=none;endFill=0;" parent="1" source="h_ewbcy0oDdWf5_KwiLt-62" target="h_ewbcy0oDdWf5_KwiLt-24" edge="1">
          <mxGeometry relative="1" as="geometry" />
        </mxCell>
        <mxCell id="h_ewbcy0oDdWf5_KwiLt-62" value="Suministra" style="shape=rhombus;perimeter=rhombusPerimeter;whiteSpace=wrap;html=1;align=center;" parent="1" vertex="1">
          <mxGeometry x="-270" y="90" width="70" height="60" as="geometry" />
        </mxCell>
        <mxCell id="h_ewbcy0oDdWf5_KwiLt-71" style="edgeStyle=orthogonalEdgeStyle;rounded=0;orthogonalLoop=1;jettySize=auto;html=1;exitX=0.5;exitY=1;exitDx=0;exitDy=0;entryX=0;entryY=0.25;entryDx=0;entryDy=0;endArrow=none;endFill=0;" parent="1" source="h_ewbcy0oDdWf5_KwiLt-63" target="h_ewbcy0oDdWf5_KwiLt-24" edge="1">
          <mxGeometry relative="1" as="geometry">
            <Array as="points">
              <mxPoint x="-220" y="260" />
              <mxPoint x="-220" y="260" />
            </Array>
          </mxGeometry>
        </mxCell>
        <mxCell id="h_ewbcy0oDdWf5_KwiLt-63" value="Pertenece" style="shape=rhombus;perimeter=rhombusPerimeter;whiteSpace=wrap;html=1;align=center;" parent="1" vertex="1">
          <mxGeometry x="-300" y="200" width="70" height="60" as="geometry" />
        </mxCell>
        <mxCell id="h_ewbcy0oDdWf5_KwiLt-88" style="edgeStyle=orthogonalEdgeStyle;rounded=0;orthogonalLoop=1;jettySize=auto;html=1;exitX=0.5;exitY=1;exitDx=0;exitDy=0;entryX=0;entryY=0;entryDx=0;entryDy=0;endArrow=none;endFill=0;" parent="1" source="h_ewbcy0oDdWf5_KwiLt-64" target="h_ewbcy0oDdWf5_KwiLt-30" edge="1">
          <mxGeometry relative="1" as="geometry">
            <Array as="points">
              <mxPoint x="-110" y="410" />
              <mxPoint x="-110" y="450" />
              <mxPoint x="140" y="450" />
              <mxPoint x="140" y="580" />
            </Array>
          </mxGeometry>
        </mxCell>
        <mxCell id="h_ewbcy0oDdWf5_KwiLt-64" value="Tiene" style="shape=rhombus;perimeter=rhombusPerimeter;whiteSpace=wrap;html=1;align=center;" parent="1" vertex="1">
          <mxGeometry x="-170" y="350" width="70" height="60" as="geometry" />
        </mxCell>
        <mxCell id="h_ewbcy0oDdWf5_KwiLt-65" value="Detalla" style="shape=rhombus;perimeter=rhombusPerimeter;whiteSpace=wrap;html=1;align=center;" parent="1" vertex="1">
          <mxGeometry x="-320" y="260" width="70" height="60" as="geometry" />
        </mxCell>
        <mxCell id="h_ewbcy0oDdWf5_KwiLt-227" style="edgeStyle=orthogonalEdgeStyle;rounded=0;orthogonalLoop=1;jettySize=auto;html=1;exitX=0;exitY=0.5;exitDx=0;exitDy=0;entryX=1;entryY=0.5;entryDx=0;entryDy=0;endArrow=none;endFill=0;" parent="1" source="h_ewbcy0oDdWf5_KwiLt-89" target="h_ewbcy0oDdWf5_KwiLt-38" edge="1">
          <mxGeometry relative="1" as="geometry" />
        </mxCell>
        <mxCell id="hNK54wSJh9bYYilpVv1w-198" style="edgeStyle=orthogonalEdgeStyle;rounded=0;orthogonalLoop=1;jettySize=auto;html=1;exitX=0.5;exitY=1;exitDx=0;exitDy=0;entryX=0;entryY=0.5;entryDx=0;entryDy=0;endArrow=none;endFill=0;" parent="1" source="h_ewbcy0oDdWf5_KwiLt-89" target="h_ewbcy0oDdWf5_KwiLt-36" edge="1">
          <mxGeometry relative="1" as="geometry" />
        </mxCell>
        <mxCell id="h_ewbcy0oDdWf5_KwiLt-89" value="Realiza" style="shape=rhombus;perimeter=rhombusPerimeter;whiteSpace=wrap;html=1;align=center;" parent="1" vertex="1">
          <mxGeometry x="-370" y="700" width="70" height="60" as="geometry" />
        </mxCell>
        <mxCell id="fs7uPyh7k5oqFPLGZ5jc-14" style="edgeStyle=orthogonalEdgeStyle;rounded=0;orthogonalLoop=1;jettySize=auto;html=1;exitX=1;exitY=0.5;exitDx=0;exitDy=0;entryX=0;entryY=0.5;entryDx=0;entryDy=0;endArrow=none;endFill=0;" parent="1" source="h_ewbcy0oDdWf5_KwiLt-90" target="h_ewbcy0oDdWf5_KwiLt-44" edge="1">
          <mxGeometry relative="1" as="geometry" />
        </mxCell>
        <mxCell id="h_ewbcy0oDdWf5_KwiLt-90" value="Aplica" style="shape=rhombus;perimeter=rhombusPerimeter;whiteSpace=wrap;html=1;align=center;" parent="1" vertex="1">
          <mxGeometry x="-25" y="375" width="70" height="60" as="geometry" />
        </mxCell>
        <mxCell id="h_ewbcy0oDdWf5_KwiLt-91" value="Pertenece" style="shape=rhombus;perimeter=rhombusPerimeter;whiteSpace=wrap;html=1;align=center;" parent="1" vertex="1">
          <mxGeometry x="-395" y="995" width="70" height="60" as="geometry" />
        </mxCell>
        <mxCell id="hNK54wSJh9bYYilpVv1w-196" style="edgeStyle=orthogonalEdgeStyle;rounded=0;orthogonalLoop=1;jettySize=auto;html=1;exitX=0.5;exitY=1;exitDx=0;exitDy=0;entryX=0.75;entryY=0;entryDx=0;entryDy=0;endArrow=none;endFill=0;" parent="1" source="h_ewbcy0oDdWf5_KwiLt-92" target="h_ewbcy0oDdWf5_KwiLt-33" edge="1">
          <mxGeometry relative="1" as="geometry" />
        </mxCell>
        <mxCell id="h_ewbcy0oDdWf5_KwiLt-92" value="Pertenece" style="shape=rhombus;perimeter=rhombusPerimeter;whiteSpace=wrap;html=1;align=center;" parent="1" vertex="1">
          <mxGeometry x="-325" y="1080" width="70" height="60" as="geometry" />
        </mxCell>
        <mxCell id="hNK54wSJh9bYYilpVv1w-201" style="edgeStyle=orthogonalEdgeStyle;rounded=0;orthogonalLoop=1;jettySize=auto;html=1;exitX=1;exitY=0.5;exitDx=0;exitDy=0;entryX=0;entryY=0.5;entryDx=0;entryDy=0;endArrow=none;endFill=0;" parent="1" source="h_ewbcy0oDdWf5_KwiLt-93" target="h_ewbcy0oDdWf5_KwiLt-30" edge="1">
          <mxGeometry relative="1" as="geometry" />
        </mxCell>
        <mxCell id="h_ewbcy0oDdWf5_KwiLt-93" value="Realiza" style="shape=rhombus;perimeter=rhombusPerimeter;whiteSpace=wrap;html=1;align=center;" parent="1" vertex="1">
          <mxGeometry y="525" width="70" height="60" as="geometry" />
        </mxCell>
        <mxCell id="h_ewbcy0oDdWf5_KwiLt-99" style="edgeStyle=orthogonalEdgeStyle;rounded=0;orthogonalLoop=1;jettySize=auto;html=1;exitX=0.5;exitY=1;exitDx=0;exitDy=0;entryX=0.5;entryY=0;entryDx=0;entryDy=0;endArrow=none;endFill=0;" parent="1" source="h_ewbcy0oDdWf5_KwiLt-94" target="h_ewbcy0oDdWf5_KwiLt-35" edge="1">
          <mxGeometry relative="1" as="geometry" />
        </mxCell>
        <mxCell id="h_ewbcy0oDdWf5_KwiLt-94" value="Detalla" style="shape=rhombus;perimeter=rhombusPerimeter;whiteSpace=wrap;html=1;align=center;" parent="1" vertex="1">
          <mxGeometry x="-462.5" y="365" width="70" height="60" as="geometry" />
        </mxCell>
        <mxCell id="h_ewbcy0oDdWf5_KwiLt-223" style="edgeStyle=orthogonalEdgeStyle;rounded=0;orthogonalLoop=1;jettySize=auto;html=1;exitX=0.5;exitY=1;exitDx=0;exitDy=0;entryX=0.5;entryY=0;entryDx=0;entryDy=0;endArrow=none;endFill=0;" parent="1" source="h_ewbcy0oDdWf5_KwiLt-95" target="h_ewbcy0oDdWf5_KwiLt-36" edge="1">
          <mxGeometry relative="1" as="geometry" />
        </mxCell>
        <mxCell id="h_ewbcy0oDdWf5_KwiLt-95" value="Detalla" style="shape=rhombus;perimeter=rhombusPerimeter;whiteSpace=wrap;html=1;align=center;" parent="1" vertex="1">
          <mxGeometry x="-65" y="650" width="70" height="60" as="geometry" />
        </mxCell>
        <mxCell id="h_ewbcy0oDdWf5_KwiLt-102" value="Pk_Producto" style="ellipse;whiteSpace=wrap;html=1;align=center;fontStyle=4;" parent="1" vertex="1">
          <mxGeometry x="-70" y="210" width="100" height="40" as="geometry" />
        </mxCell>
        <mxCell id="h_ewbcy0oDdWf5_KwiLt-103" value="Nombre" style="ellipse;whiteSpace=wrap;html=1;align=center;" parent="1" vertex="1">
          <mxGeometry x="45" y="233" width="100" height="40" as="geometry" />
        </mxCell>
        <mxCell id="h_ewbcy0oDdWf5_KwiLt-104" value="Descripccion" style="ellipse;whiteSpace=wrap;html=1;align=center;" parent="1" vertex="1">
          <mxGeometry x="150" y="245" width="100" height="40" as="geometry" />
        </mxCell>
        <mxCell id="h_ewbcy0oDdWf5_KwiLt-105" value="SctokActual" style="ellipse;whiteSpace=wrap;html=1;align=center;" parent="1" vertex="1">
          <mxGeometry x="250" y="270" width="100" height="40" as="geometry" />
        </mxCell>
        <mxCell id="h_ewbcy0oDdWf5_KwiLt-106" value="Fk_Provedoor" style="ellipse;whiteSpace=wrap;html=1;align=center;fontStyle=4;" parent="1" vertex="1">
          <mxGeometry x="-80" y="305" width="100" height="40" as="geometry" />
        </mxCell>
        <mxCell id="h_ewbcy0oDdWf5_KwiLt-107" value="Fk_Categoria" style="ellipse;whiteSpace=wrap;html=1;align=center;fontStyle=4;" parent="1" vertex="1">
          <mxGeometry x="25" y="305" width="100" height="40" as="geometry" />
        </mxCell>
        <mxCell id="h_ewbcy0oDdWf5_KwiLt-115" value="Pk_Categoria" style="ellipse;whiteSpace=wrap;html=1;align=center;fontStyle=4;" parent="1" vertex="1">
          <mxGeometry x="-605" y="20" width="100" height="40" as="geometry" />
        </mxCell>
        <mxCell id="h_ewbcy0oDdWf5_KwiLt-118" value="Nombre" style="ellipse;whiteSpace=wrap;html=1;align=center;" parent="1" vertex="1">
          <mxGeometry x="-680" y="65" width="100" height="40" as="geometry" />
        </mxCell>
        <mxCell id="h_ewbcy0oDdWf5_KwiLt-119" value="Descripccion" style="ellipse;whiteSpace=wrap;html=1;align=center;" parent="1" vertex="1">
          <mxGeometry x="-670" y="125" width="100" height="40" as="geometry" />
        </mxCell>
        <mxCell id="h_ewbcy0oDdWf5_KwiLt-122" value="Pk_Proveedor" style="ellipse;whiteSpace=wrap;html=1;align=center;fontStyle=4;" parent="1" vertex="1">
          <mxGeometry x="-300" y="-5" width="100" height="40" as="geometry" />
        </mxCell>
        <mxCell id="h_ewbcy0oDdWf5_KwiLt-123" value="Nombre" style="ellipse;whiteSpace=wrap;html=1;align=center;" parent="1" vertex="1">
          <mxGeometry x="-325" y="-50" width="100" height="40" as="geometry" />
        </mxCell>
        <mxCell id="h_ewbcy0oDdWf5_KwiLt-126" value="Correo" style="ellipse;whiteSpace=wrap;html=1;align=center;" parent="1" vertex="1">
          <mxGeometry x="-340" y="-100" width="100" height="40" as="geometry" />
        </mxCell>
        <mxCell id="h_ewbcy0oDdWf5_KwiLt-132" value="Pk_DetalleCompra" style="ellipse;whiteSpace=wrap;html=1;align=center;fontStyle=4;" parent="1" vertex="1">
          <mxGeometry x="-600" y="190" width="120" height="40" as="geometry" />
        </mxCell>
        <mxCell id="h_ewbcy0oDdWf5_KwiLt-133" value="PrecioUnitario" style="ellipse;whiteSpace=wrap;html=1;align=center;" parent="1" vertex="1">
          <mxGeometry x="-770" y="233" width="100" height="40" as="geometry" />
        </mxCell>
        <mxCell id="h_ewbcy0oDdWf5_KwiLt-134" value="Cantidad" style="ellipse;whiteSpace=wrap;html=1;align=center;" parent="1" vertex="1">
          <mxGeometry x="-710" y="193" width="100" height="40" as="geometry" />
        </mxCell>
        <mxCell id="h_ewbcy0oDdWf5_KwiLt-135" value="Fk_Compra" style="ellipse;whiteSpace=wrap;html=1;align=center;fontStyle=4;" parent="1" vertex="1">
          <mxGeometry x="-570" y="280" width="100" height="40" as="geometry" />
        </mxCell>
        <mxCell id="h_ewbcy0oDdWf5_KwiLt-136" value="Fk_Producto" style="ellipse;whiteSpace=wrap;html=1;align=center;fontStyle=4;" parent="1" vertex="1">
          <mxGeometry x="-680" y="270" width="100" height="40" as="geometry" />
        </mxCell>
        <mxCell id="h_ewbcy0oDdWf5_KwiLt-142" value="Pk_PrecioHistorico" style="ellipse;whiteSpace=wrap;html=1;align=center;fontStyle=4;" parent="1" vertex="1">
          <mxGeometry x="-145" y="-220" width="115" height="50" as="geometry" />
        </mxCell>
        <mxCell id="h_ewbcy0oDdWf5_KwiLt-143" value="FechaInicio" style="ellipse;whiteSpace=wrap;html=1;align=center;" parent="1" vertex="1">
          <mxGeometry x="-180" y="-315" width="100" height="40" as="geometry" />
        </mxCell>
        <mxCell id="h_ewbcy0oDdWf5_KwiLt-145" value="Precio" style="ellipse;whiteSpace=wrap;html=1;align=center;" parent="1" vertex="1">
          <mxGeometry x="-155" y="-270" width="100" height="40" as="geometry" />
        </mxCell>
        <mxCell id="h_ewbcy0oDdWf5_KwiLt-146" value="FechaFin" style="ellipse;whiteSpace=wrap;html=1;align=center;" parent="1" vertex="1">
          <mxGeometry x="-205" y="-360" width="100" height="40" as="geometry" />
        </mxCell>
        <mxCell id="h_ewbcy0oDdWf5_KwiLt-151" value="Fk_Producto" style="ellipse;whiteSpace=wrap;html=1;align=center;fontStyle=4;" parent="1" vertex="1">
          <mxGeometry x="-330" y="-360" width="115" height="50" as="geometry" />
        </mxCell>
        <mxCell id="h_ewbcy0oDdWf5_KwiLt-153" value="Pk_Promocion" style="ellipse;whiteSpace=wrap;html=1;align=center;fontStyle=4;" parent="1" vertex="1">
          <mxGeometry x="50" y="-30" width="100" height="40" as="geometry" />
        </mxCell>
        <mxCell id="h_ewbcy0oDdWf5_KwiLt-154" value="Nombre" style="ellipse;whiteSpace=wrap;html=1;align=center;" parent="1" vertex="1">
          <mxGeometry x="70" y="-75" width="100" height="40" as="geometry" />
        </mxCell>
        <mxCell id="h_ewbcy0oDdWf5_KwiLt-155" value="Descripccion" style="ellipse;whiteSpace=wrap;html=1;align=center;" parent="1" vertex="1">
          <mxGeometry x="70" y="-125" width="100" height="40" as="geometry" />
        </mxCell>
        <mxCell id="h_ewbcy0oDdWf5_KwiLt-156" value="FechaInicio" style="ellipse;whiteSpace=wrap;html=1;align=center;" parent="1" vertex="1">
          <mxGeometry x="60" y="-170" width="100" height="40" as="geometry" />
        </mxCell>
        <mxCell id="h_ewbcy0oDdWf5_KwiLt-157" value="FechaFin" style="ellipse;whiteSpace=wrap;html=1;align=center;" parent="1" vertex="1">
          <mxGeometry x="60" y="-215" width="100" height="40" as="geometry" />
        </mxCell>
        <mxCell id="h_ewbcy0oDdWf5_KwiLt-158" value="PorcentajeDescuento" style="ellipse;whiteSpace=wrap;html=1;align=center;" parent="1" vertex="1">
          <mxGeometry x="30" y="-270" width="140" height="40" as="geometry" />
        </mxCell>
        <mxCell id="h_ewbcy0oDdWf5_KwiLt-159" value="Fk_Producto" style="ellipse;whiteSpace=wrap;html=1;align=center;fontStyle=4;" parent="1" vertex="1">
          <mxGeometry x="-20" y="-320" width="115" height="50" as="geometry" />
        </mxCell>
        <mxCell id="h_ewbcy0oDdWf5_KwiLt-167" value="Pk_InventarioMovimiento" style="ellipse;whiteSpace=wrap;html=1;align=center;fontStyle=4;rotation=45;" parent="1" vertex="1">
          <mxGeometry x="420" y="-100" width="160" height="40" as="geometry" />
        </mxCell>
        <mxCell id="h_ewbcy0oDdWf5_KwiLt-168" value="TipoMovE/S" style="ellipse;whiteSpace=wrap;html=1;align=center;" parent="1" vertex="1">
          <mxGeometry x="429" y="-190" width="100" height="40" as="geometry" />
        </mxCell>
        <mxCell id="h_ewbcy0oDdWf5_KwiLt-169" value="Cantidad" style="ellipse;whiteSpace=wrap;html=1;align=center;" parent="1" vertex="1">
          <mxGeometry x="414" y="-240" width="100" height="40" as="geometry" />
        </mxCell>
        <mxCell id="h_ewbcy0oDdWf5_KwiLt-170" value="Fecha" style="ellipse;whiteSpace=wrap;html=1;align=center;" parent="1" vertex="1">
          <mxGeometry x="360" y="-300" width="100" height="40" as="geometry" />
        </mxCell>
        <mxCell id="h_ewbcy0oDdWf5_KwiLt-171" value="Fk_Sucursal" style="ellipse;whiteSpace=wrap;html=1;align=center;fontStyle=4;" parent="1" vertex="1">
          <mxGeometry x="215" y="-230" width="115" height="50" as="geometry" />
        </mxCell>
        <mxCell id="h_ewbcy0oDdWf5_KwiLt-172" value="Fk_Producto" style="ellipse;whiteSpace=wrap;html=1;align=center;fontStyle=4;" parent="1" vertex="1">
          <mxGeometry x="190" y="-175" width="115" height="50" as="geometry" />
        </mxCell>
        <mxCell id="h_ewbcy0oDdWf5_KwiLt-179" value="Pk_Sucursal" style="ellipse;whiteSpace=wrap;html=1;align=center;fontStyle=4;" parent="1" vertex="1">
          <mxGeometry x="580" y="-150" width="100" height="40" as="geometry" />
        </mxCell>
        <mxCell id="h_ewbcy0oDdWf5_KwiLt-180" value="Nombre" style="ellipse;whiteSpace=wrap;html=1;align=center;" parent="1" vertex="1">
          <mxGeometry x="630" y="-100" width="100" height="40" as="geometry" />
        </mxCell>
        <mxCell id="h_ewbcy0oDdWf5_KwiLt-182" value="Ciudad" style="ellipse;whiteSpace=wrap;html=1;align=center;rotation=-15;" parent="1" vertex="1">
          <mxGeometry x="780" y="-170" width="100" height="40" as="geometry" />
        </mxCell>
        <mxCell id="h_ewbcy0oDdWf5_KwiLt-183" value="Estado" style="ellipse;whiteSpace=wrap;html=1;align=center;" parent="1" vertex="1">
          <mxGeometry x="860" y="65" width="100" height="40" as="geometry" />
        </mxCell>
        <mxCell id="h_ewbcy0oDdWf5_KwiLt-184" value="NumInterior" style="ellipse;whiteSpace=wrap;html=1;align=center;rotation=15;" parent="1" vertex="1">
          <mxGeometry x="910" y="-140" width="100" height="40" as="geometry" />
        </mxCell>
        <mxCell id="h_ewbcy0oDdWf5_KwiLt-185" value="Colonia" style="ellipse;whiteSpace=wrap;html=1;align=center;" parent="1" vertex="1">
          <mxGeometry x="910" y="-20" width="100" height="40" as="geometry" />
        </mxCell>
        <mxCell id="h_ewbcy0oDdWf5_KwiLt-186" value="CP" style="ellipse;whiteSpace=wrap;html=1;align=center;rotation=15;" parent="1" vertex="1">
          <mxGeometry x="890" y="20" width="100" height="40" as="geometry" />
        </mxCell>
        <mxCell id="h_ewbcy0oDdWf5_KwiLt-187" value="NumExterior" style="ellipse;whiteSpace=wrap;html=1;align=center;" parent="1" vertex="1">
          <mxGeometry x="920" y="-60" width="100" height="40" as="geometry" />
        </mxCell>
        <mxCell id="h_ewbcy0oDdWf5_KwiLt-188" value="Calle" style="ellipse;whiteSpace=wrap;html=1;align=center;" parent="1" vertex="1">
          <mxGeometry x="860" y="-220" width="100" height="40" as="geometry" />
        </mxCell>
        <mxCell id="h_ewbcy0oDdWf5_KwiLt-202" value="Pk_Compra" style="ellipse;whiteSpace=wrap;html=1;align=center;fontStyle=4;" parent="1" vertex="1">
          <mxGeometry x="-705" y="570" width="100" height="40" as="geometry" />
        </mxCell>
        <mxCell id="h_ewbcy0oDdWf5_KwiLt-203" value="Fecha" style="ellipse;whiteSpace=wrap;html=1;align=center;" parent="1" vertex="1">
          <mxGeometry x="-770" y="610" width="100" height="40" as="geometry" />
        </mxCell>
        <mxCell id="h_ewbcy0oDdWf5_KwiLt-205" value="Total" style="ellipse;whiteSpace=wrap;html=1;align=center;" parent="1" vertex="1">
          <mxGeometry x="-780" y="650" width="100" height="40" as="geometry" />
        </mxCell>
        <mxCell id="h_ewbcy0oDdWf5_KwiLt-207" value="Fk_Empleado" style="ellipse;whiteSpace=wrap;html=1;align=center;fontStyle=4;" parent="1" vertex="1">
          <mxGeometry x="-570" y="675" width="100" height="40" as="geometry" />
        </mxCell>
        <mxCell id="h_ewbcy0oDdWf5_KwiLt-208" value="Fk_Proveedor" style="ellipse;whiteSpace=wrap;html=1;align=center;fontStyle=4;" parent="1" vertex="1">
          <mxGeometry x="-465" y="660" width="100" height="40" as="geometry" />
        </mxCell>
        <mxCell id="h_ewbcy0oDdWf5_KwiLt-231" value="Fk_Sucursal" style="ellipse;whiteSpace=wrap;html=1;align=center;fontStyle=4;" parent="1" vertex="1">
          <mxGeometry x="-670" y="660" width="100" height="40" as="geometry" />
        </mxCell>
        <mxCell id="h_ewbcy0oDdWf5_KwiLt-266" style="edgeStyle=orthogonalEdgeStyle;rounded=0;orthogonalLoop=1;jettySize=auto;html=1;exitX=0;exitY=0.5;exitDx=0;exitDy=0;entryX=1;entryY=0.5;entryDx=0;entryDy=0;endArrow=none;endFill=0;" parent="1" source="h_ewbcy0oDdWf5_KwiLt-243" target="h_ewbcy0oDdWf5_KwiLt-34" edge="1">
          <mxGeometry relative="1" as="geometry" />
        </mxCell>
        <mxCell id="h_ewbcy0oDdWf5_KwiLt-243" value="Tiene" style="shape=rhombus;perimeter=rhombusPerimeter;whiteSpace=wrap;html=1;align=center;" parent="1" vertex="1">
          <mxGeometry x="-562.5" y="740" width="70" height="60" as="geometry" />
        </mxCell>
        <mxCell id="h_ewbcy0oDdWf5_KwiLt-254" style="edgeStyle=orthogonalEdgeStyle;rounded=0;orthogonalLoop=1;jettySize=auto;html=1;exitX=0;exitY=0.5;exitDx=0;exitDy=0;entryX=1;entryY=0.5;entryDx=0;entryDy=0;endArrow=none;endFill=0;" parent="1" source="h_ewbcy0oDdWf5_KwiLt-244" target="h_ewbcy0oDdWf5_KwiLt-48" edge="1">
          <mxGeometry relative="1" as="geometry" />
        </mxCell>
        <mxCell id="h_ewbcy0oDdWf5_KwiLt-244" value="Tiene" style="shape=rhombus;perimeter=rhombusPerimeter;whiteSpace=wrap;html=1;align=center;" parent="1" vertex="1">
          <mxGeometry x="-1035" y="830" width="70" height="60" as="geometry" />
        </mxCell>
        <mxCell id="h_ewbcy0oDdWf5_KwiLt-250" style="edgeStyle=orthogonalEdgeStyle;rounded=0;orthogonalLoop=1;jettySize=auto;html=1;exitX=0.5;exitY=0;exitDx=0;exitDy=0;entryX=1;entryY=0.5;entryDx=0;entryDy=0;endArrow=none;endFill=0;" parent="1" source="h_ewbcy0oDdWf5_KwiLt-245" target="h_ewbcy0oDdWf5_KwiLt-35" edge="1">
          <mxGeometry relative="1" as="geometry">
            <Array as="points">
              <mxPoint x="-290" y="570" />
            </Array>
          </mxGeometry>
        </mxCell>
        <mxCell id="h_ewbcy0oDdWf5_KwiLt-245" value="Tiene" style="shape=rhombus;perimeter=rhombusPerimeter;whiteSpace=wrap;html=1;align=center;" parent="1" vertex="1">
          <mxGeometry x="-325" y="580" width="70" height="60" as="geometry" />
        </mxCell>
        <mxCell id="h_ewbcy0oDdWf5_KwiLt-248" style="edgeStyle=orthogonalEdgeStyle;rounded=0;orthogonalLoop=1;jettySize=auto;html=1;exitX=0;exitY=0.5;exitDx=0;exitDy=0;entryX=1;entryY=0.5;entryDx=0;entryDy=0;endArrow=none;endFill=0;" parent="1" source="h_ewbcy0oDdWf5_KwiLt-246" target="h_ewbcy0oDdWf5_KwiLt-40" edge="1">
          <mxGeometry relative="1" as="geometry" />
        </mxCell>
        <mxCell id="h_ewbcy0oDdWf5_KwiLt-246" value="Tiene" style="shape=rhombus;perimeter=rhombusPerimeter;whiteSpace=wrap;html=1;align=center;" parent="1" vertex="1">
          <mxGeometry x="-700" y="830" width="70" height="60" as="geometry" />
        </mxCell>
        <mxCell id="h_ewbcy0oDdWf5_KwiLt-264" style="edgeStyle=orthogonalEdgeStyle;rounded=0;orthogonalLoop=1;jettySize=auto;html=1;exitX=0;exitY=0.5;exitDx=0;exitDy=0;entryX=0.5;entryY=1;entryDx=0;entryDy=0;endArrow=none;endFill=0;" parent="1" source="h_ewbcy0oDdWf5_KwiLt-257" target="h_ewbcy0oDdWf5_KwiLt-45" edge="1">
          <mxGeometry relative="1" as="geometry" />
        </mxCell>
        <mxCell id="h_ewbcy0oDdWf5_KwiLt-257" value="Detalla" style="shape=rhombus;perimeter=rhombusPerimeter;whiteSpace=wrap;html=1;align=center;" parent="1" vertex="1">
          <mxGeometry x="-570" y="360" width="70" height="60" as="geometry" />
        </mxCell>
        <mxCell id="fs7uPyh7k5oqFPLGZ5jc-26" style="edgeStyle=orthogonalEdgeStyle;rounded=0;orthogonalLoop=1;jettySize=auto;html=1;exitX=0.5;exitY=1;exitDx=0;exitDy=0;entryX=0;entryY=0.25;entryDx=0;entryDy=0;endArrow=none;endFill=0;" parent="1" source="h_ewbcy0oDdWf5_KwiLt-258" target="h_ewbcy0oDdWf5_KwiLt-35" edge="1">
          <mxGeometry relative="1" as="geometry">
            <Array as="points">
              <mxPoint x="-460" y="550" />
              <mxPoint x="-440" y="550" />
            </Array>
          </mxGeometry>
        </mxCell>
        <mxCell id="hNK54wSJh9bYYilpVv1w-219" style="edgeStyle=orthogonalEdgeStyle;rounded=0;orthogonalLoop=1;jettySize=auto;html=1;exitX=0;exitY=0.5;exitDx=0;exitDy=0;entryX=0.5;entryY=1;entryDx=0;entryDy=0;endArrow=none;endFill=0;" parent="1" source="h_ewbcy0oDdWf5_KwiLt-258" target="h_ewbcy0oDdWf5_KwiLt-42" edge="1">
          <mxGeometry relative="1" as="geometry" />
        </mxCell>
        <mxCell id="h_ewbcy0oDdWf5_KwiLt-258" value="Realiza" style="shape=rhombus;perimeter=rhombusPerimeter;whiteSpace=wrap;html=1;align=center;" parent="1" vertex="1">
          <mxGeometry x="-495" y="470" width="70" height="60" as="geometry" />
        </mxCell>
        <mxCell id="h_ewbcy0oDdWf5_KwiLt-267" value="Pk_DetalleVenta" style="ellipse;whiteSpace=wrap;html=1;align=center;fontStyle=4;" parent="1" vertex="1">
          <mxGeometry x="222.5" y="640" width="100" height="40" as="geometry" />
        </mxCell>
        <mxCell id="h_ewbcy0oDdWf5_KwiLt-268" value="PrecioUnitario" style="ellipse;whiteSpace=wrap;html=1;align=center;" parent="1" vertex="1">
          <mxGeometry x="414" y="610" width="100" height="40" as="geometry" />
        </mxCell>
        <mxCell id="h_ewbcy0oDdWf5_KwiLt-269" value="Cantidad" style="ellipse;whiteSpace=wrap;html=1;align=center;" parent="1" vertex="1">
          <mxGeometry x="330" y="635" width="100" height="40" as="geometry" />
        </mxCell>
        <mxCell id="h_ewbcy0oDdWf5_KwiLt-270" value="Descuento" style="ellipse;whiteSpace=wrap;html=1;align=center;" parent="1" vertex="1">
          <mxGeometry x="410" y="565" width="100" height="40" as="geometry" />
        </mxCell>
        <mxCell id="h_ewbcy0oDdWf5_KwiLt-271" value="Fk_Producto" style="ellipse;whiteSpace=wrap;html=1;align=center;fontStyle=4;" parent="1" vertex="1">
          <mxGeometry x="410" y="515" width="100" height="40" as="geometry" />
        </mxCell>
        <mxCell id="h_ewbcy0oDdWf5_KwiLt-272" value="Fk_Venta" style="ellipse;whiteSpace=wrap;html=1;align=center;fontStyle=4;" parent="1" vertex="1">
          <mxGeometry x="305" y="495" width="100" height="40" as="geometry" />
        </mxCell>
        <mxCell id="h_ewbcy0oDdWf5_KwiLt-279" value="Pk_Venta" style="ellipse;whiteSpace=wrap;html=1;align=center;fontStyle=4;" parent="1" vertex="1">
          <mxGeometry x="-110" y="880" width="100" height="40" as="geometry" />
        </mxCell>
        <mxCell id="h_ewbcy0oDdWf5_KwiLt-280" value="Total" style="ellipse;whiteSpace=wrap;html=1;align=center;" parent="1" vertex="1">
          <mxGeometry x="110" y="880" width="100" height="40" as="geometry" />
        </mxCell>
        <mxCell id="h_ewbcy0oDdWf5_KwiLt-281" value="Fecha" style="ellipse;whiteSpace=wrap;html=1;align=center;" parent="1" vertex="1">
          <mxGeometry x="-5" y="885" width="100" height="40" as="geometry" />
        </mxCell>
        <mxCell id="h_ewbcy0oDdWf5_KwiLt-282" value="Fk_Caja" style="ellipse;whiteSpace=wrap;html=1;align=center;fontStyle=4;" parent="1" vertex="1">
          <mxGeometry x="100" y="680" width="100" height="40" as="geometry" />
        </mxCell>
        <mxCell id="h_ewbcy0oDdWf5_KwiLt-283" value="Fk_MetodoPago" style="ellipse;whiteSpace=wrap;html=1;align=center;fontStyle=4;" parent="1" vertex="1">
          <mxGeometry x="145" y="730" width="100" height="40" as="geometry" />
        </mxCell>
        <mxCell id="h_ewbcy0oDdWf5_KwiLt-284" value="Fk_Empleado" style="ellipse;whiteSpace=wrap;html=1;align=center;fontStyle=4;" parent="1" vertex="1">
          <mxGeometry x="150" y="775" width="100" height="40" as="geometry" />
        </mxCell>
        <mxCell id="h_ewbcy0oDdWf5_KwiLt-285" value="Fk_Cliente" style="ellipse;whiteSpace=wrap;html=1;align=center;fontStyle=4;" parent="1" vertex="1">
          <mxGeometry x="150" y="830" width="100" height="40" as="geometry" />
        </mxCell>
        <mxCell id="h_ewbcy0oDdWf5_KwiLt-293" value="Pk_Cliente" style="ellipse;whiteSpace=wrap;html=1;align=center;fontStyle=4;" parent="1" vertex="1">
          <mxGeometry x="-115" y="955" width="100" height="40" as="geometry" />
        </mxCell>
        <mxCell id="h_ewbcy0oDdWf5_KwiLt-295" value="Nombre" style="ellipse;whiteSpace=wrap;html=1;align=center;" parent="1" vertex="1">
          <mxGeometry y="970" width="100" height="40" as="geometry" />
        </mxCell>
        <mxCell id="h_ewbcy0oDdWf5_KwiLt-296" value="ApellidoPaterno" style="ellipse;whiteSpace=wrap;html=1;align=center;" parent="1" vertex="1">
          <mxGeometry x="95" y="1015" width="100" height="40" as="geometry" />
        </mxCell>
        <mxCell id="h_ewbcy0oDdWf5_KwiLt-298" value="Correo" style="ellipse;whiteSpace=wrap;html=1;align=center;" parent="1" vertex="1">
          <mxGeometry x="-150" y="1090" width="100" height="40" as="geometry" />
        </mxCell>
        <mxCell id="h_ewbcy0oDdWf5_KwiLt-305" value="Calle" style="ellipse;whiteSpace=wrap;html=1;align=center;" parent="1" vertex="1">
          <mxGeometry x="195" y="1129" width="100" height="40" as="geometry" />
        </mxCell>
        <mxCell id="h_ewbcy0oDdWf5_KwiLt-306" value="Colonia" style="ellipse;whiteSpace=wrap;html=1;align=center;" parent="1" vertex="1">
          <mxGeometry x="295" y="1110" width="100" height="40" as="geometry" />
        </mxCell>
        <mxCell id="h_ewbcy0oDdWf5_KwiLt-307" value="NumInterior" style="ellipse;whiteSpace=wrap;html=1;align=center;" parent="1" vertex="1">
          <mxGeometry x="385" y="1190" width="100" height="40" as="geometry" />
        </mxCell>
        <mxCell id="h_ewbcy0oDdWf5_KwiLt-308" value="NumExterior" style="ellipse;whiteSpace=wrap;html=1;align=center;" parent="1" vertex="1">
          <mxGeometry x="385" y="1140" width="100" height="40" as="geometry" />
        </mxCell>
        <mxCell id="h_ewbcy0oDdWf5_KwiLt-309" value="CP" style="ellipse;whiteSpace=wrap;html=1;align=center;" parent="1" vertex="1">
          <mxGeometry x="314" y="1290" width="100" height="40" as="geometry" />
        </mxCell>
        <mxCell id="h_ewbcy0oDdWf5_KwiLt-310" value="Estado" style="ellipse;whiteSpace=wrap;html=1;align=center;" parent="1" vertex="1">
          <mxGeometry x="370" y="1240" width="100" height="40" as="geometry" />
        </mxCell>
        <mxCell id="h_ewbcy0oDdWf5_KwiLt-311" value="Ciudad" style="ellipse;whiteSpace=wrap;html=1;align=center;" parent="1" vertex="1">
          <mxGeometry x="245" y="1320" width="100" height="40" as="geometry" />
        </mxCell>
        <mxCell id="h_ewbcy0oDdWf5_KwiLt-319" value="Pk_MetodoPago" style="ellipse;whiteSpace=wrap;html=1;align=center;fontStyle=4;" parent="1" vertex="1">
          <mxGeometry x="-67.5" y="465" width="110" height="40" as="geometry" />
        </mxCell>
        <mxCell id="h_ewbcy0oDdWf5_KwiLt-320" value="Nombre" style="ellipse;whiteSpace=wrap;html=1;align=center;" parent="1" vertex="1">
          <mxGeometry x="-170" y="465" width="100" height="40" as="geometry" />
        </mxCell>
        <mxCell id="h_ewbcy0oDdWf5_KwiLt-321" value="Descripcion" style="ellipse;whiteSpace=wrap;html=1;align=center;" parent="1" vertex="1">
          <mxGeometry x="-125" y="600" width="100" height="40" as="geometry" />
        </mxCell>
        <mxCell id="h_ewbcy0oDdWf5_KwiLt-325" value="Pk_Caja" style="ellipse;whiteSpace=wrap;html=1;align=center;fontStyle=4;" parent="1" vertex="1">
          <mxGeometry x="-322.5" y="1250" width="100" height="40" as="geometry" />
        </mxCell>
        <mxCell id="h_ewbcy0oDdWf5_KwiLt-326" value="Fk_Sucursal" style="ellipse;whiteSpace=wrap;html=1;align=center;fontStyle=4;" parent="1" vertex="1">
          <mxGeometry x="-495" y="1295" width="100" height="40" as="geometry" />
        </mxCell>
        <mxCell id="h_ewbcy0oDdWf5_KwiLt-327" value="Nombre" style="ellipse;whiteSpace=wrap;html=1;align=center;" parent="1" vertex="1">
          <mxGeometry x="-370" y="1290" width="100" height="40" as="geometry" />
        </mxCell>
        <mxCell id="h_ewbcy0oDdWf5_KwiLt-328" value="Estatus" style="ellipse;whiteSpace=wrap;html=1;align=center;" parent="1" vertex="1">
          <mxGeometry x="-407.5" y="1335" width="90" height="50" as="geometry" />
        </mxCell>
        <mxCell id="h_ewbcy0oDdWf5_KwiLt-329" style="edgeStyle=orthogonalEdgeStyle;rounded=0;orthogonalLoop=1;jettySize=auto;html=1;exitX=0.5;exitY=1;exitDx=0;exitDy=0;" parent="1" source="h_ewbcy0oDdWf5_KwiLt-327" target="h_ewbcy0oDdWf5_KwiLt-327" edge="1">
          <mxGeometry relative="1" as="geometry" />
        </mxCell>
        <mxCell id="h_ewbcy0oDdWf5_KwiLt-335" value="Pk_Empleado" style="ellipse;whiteSpace=wrap;html=1;align=center;fontStyle=4;" parent="1" vertex="1">
          <mxGeometry x="-670" y="890" width="100" height="40" as="geometry" />
        </mxCell>
        <mxCell id="h_ewbcy0oDdWf5_KwiLt-336" value="Nombre" style="ellipse;whiteSpace=wrap;html=1;align=center;" parent="1" vertex="1">
          <mxGeometry x="-475" y="880" width="100" height="40" as="geometry" />
        </mxCell>
        <mxCell id="h_ewbcy0oDdWf5_KwiLt-337" value="Correo" style="ellipse;whiteSpace=wrap;html=1;align=center;" parent="1" vertex="1">
          <mxGeometry x="-625" y="995" width="85" height="40" as="geometry" />
        </mxCell>
        <mxCell id="h_ewbcy0oDdWf5_KwiLt-338" value="Telefono" style="ellipse;whiteSpace=wrap;html=1;align=center;" parent="1" vertex="1">
          <mxGeometry x="-492.5" y="1015" width="75" height="30" as="geometry" />
        </mxCell>
        <mxCell id="h_ewbcy0oDdWf5_KwiLt-341" value="Calle" style="ellipse;whiteSpace=wrap;html=1;align=center;" parent="1" vertex="1">
          <mxGeometry x="-1080" y="1140" width="100" height="40" as="geometry" />
        </mxCell>
        <mxCell id="h_ewbcy0oDdWf5_KwiLt-343" value="ApellidoPaterno" style="ellipse;whiteSpace=wrap;html=1;align=center;" parent="1" vertex="1">
          <mxGeometry x="-470" y="925" width="100" height="40" as="geometry" />
        </mxCell>
        <mxCell id="h_ewbcy0oDdWf5_KwiLt-344" value="Colonia" style="ellipse;whiteSpace=wrap;html=1;align=center;" parent="1" vertex="1">
          <mxGeometry x="-1090" y="1210" width="100" height="40" as="geometry" />
        </mxCell>
        <mxCell id="h_ewbcy0oDdWf5_KwiLt-346" value="NumExterior" style="ellipse;whiteSpace=wrap;html=1;align=center;" parent="1" vertex="1">
          <mxGeometry x="-1027" y="1400" width="100" height="40" as="geometry" />
        </mxCell>
        <mxCell id="h_ewbcy0oDdWf5_KwiLt-347" value="NumInterior" style="ellipse;whiteSpace=wrap;html=1;align=center;" parent="1" vertex="1">
          <mxGeometry x="-945" y="1360" width="100" height="40" as="geometry" />
        </mxCell>
        <mxCell id="h_ewbcy0oDdWf5_KwiLt-348" value="Estado" style="ellipse;whiteSpace=wrap;html=1;align=center;" parent="1" vertex="1">
          <mxGeometry x="-1080" y="1310" width="100" height="40" as="geometry" />
        </mxCell>
        <mxCell id="h_ewbcy0oDdWf5_KwiLt-349" value="Ciudad" style="ellipse;whiteSpace=wrap;html=1;align=center;" parent="1" vertex="1">
          <mxGeometry x="-1080" y="1360" width="100" height="40" as="geometry" />
        </mxCell>
        <mxCell id="h_ewbcy0oDdWf5_KwiLt-350" value="CP" style="ellipse;whiteSpace=wrap;html=1;align=center;" parent="1" vertex="1">
          <mxGeometry x="-1105" y="1255" width="100" height="40" as="geometry" />
        </mxCell>
        <mxCell id="h_ewbcy0oDdWf5_KwiLt-365" value="Pk_Turno" style="ellipse;whiteSpace=wrap;html=1;align=center;fontStyle=4;" parent="1" vertex="1">
          <mxGeometry x="-910" y="660" width="100" height="40" as="geometry" />
        </mxCell>
        <mxCell id="h_ewbcy0oDdWf5_KwiLt-366" value="HoraFin" style="ellipse;whiteSpace=wrap;html=1;align=center;" parent="1" vertex="1">
          <mxGeometry x="-1110" y="660" width="100" height="40" as="geometry" />
        </mxCell>
        <mxCell id="h_ewbcy0oDdWf5_KwiLt-367" value="HoraInicio" style="ellipse;whiteSpace=wrap;html=1;align=center;" parent="1" vertex="1">
          <mxGeometry x="-1020" y="635" width="100" height="40" as="geometry" />
        </mxCell>
        <mxCell id="h_ewbcy0oDdWf5_KwiLt-368" value="Fk_Empleado" style="ellipse;whiteSpace=wrap;html=1;align=center;fontStyle=4;" parent="1" vertex="1">
          <mxGeometry x="-1150" y="710" width="100" height="40" as="geometry" />
        </mxCell>
        <mxCell id="h_ewbcy0oDdWf5_KwiLt-373" value="Pk_Rol" style="ellipse;whiteSpace=wrap;html=1;align=center;fontStyle=4;" parent="1" vertex="1">
          <mxGeometry x="-1320" y="815" width="100" height="40" as="geometry" />
        </mxCell>
        <mxCell id="h_ewbcy0oDdWf5_KwiLt-374" value="Pk_Usuario" style="ellipse;whiteSpace=wrap;html=1;align=center;fontStyle=4;" parent="1" vertex="1">
          <mxGeometry x="-990" y="900" width="100" height="40" as="geometry" />
        </mxCell>
        <mxCell id="h_ewbcy0oDdWf5_KwiLt-376" value="Nombre" style="ellipse;whiteSpace=wrap;html=1;align=center;" parent="1" vertex="1">
          <mxGeometry x="-1320" y="885" width="100" height="40" as="geometry" />
        </mxCell>
        <mxCell id="h_ewbcy0oDdWf5_KwiLt-379" value="Estatus" style="ellipse;whiteSpace=wrap;html=1;align=center;" parent="1" vertex="1">
          <mxGeometry x="-810" y="1060" width="100" height="40" as="geometry" />
        </mxCell>
        <mxCell id="h_ewbcy0oDdWf5_KwiLt-380" value="Correo" style="ellipse;whiteSpace=wrap;html=1;align=center;" parent="1" vertex="1">
          <mxGeometry x="-920" y="1060" width="100" height="40" as="geometry" />
        </mxCell>
        <mxCell id="h_ewbcy0oDdWf5_KwiLt-381" value="ContraseÃ±a" style="ellipse;whiteSpace=wrap;html=1;align=center;" parent="1" vertex="1">
          <mxGeometry x="-960" y="1010" width="100" height="40" as="geometry" />
        </mxCell>
        <mxCell id="h_ewbcy0oDdWf5_KwiLt-382" value="NombreUsuario" style="ellipse;whiteSpace=wrap;html=1;align=center;" parent="1" vertex="1">
          <mxGeometry x="-980" y="955" width="100" height="40" as="geometry" />
        </mxCell>
        <mxCell id="h_ewbcy0oDdWf5_KwiLt-383" value="Fk_Empleado" style="ellipse;whiteSpace=wrap;html=1;align=center;fontStyle=4;" parent="1" vertex="1">
          <mxGeometry x="-790" y="1010" width="100" height="40" as="geometry" />
        </mxCell>
        <mxCell id="h_ewbcy0oDdWf5_KwiLt-384" value="Fk_Rol" style="ellipse;whiteSpace=wrap;html=1;align=center;fontStyle=4;" parent="1" vertex="1">
          <mxGeometry x="-775" y="955" width="100" height="40" as="geometry" />
        </mxCell>
        <mxCell id="h_ewbcy0oDdWf5_KwiLt-392" value="Pk_Devolucion" style="ellipse;whiteSpace=wrap;html=1;align=center;fontStyle=4;" parent="1" vertex="1">
          <mxGeometry x="-730" y="430" width="100" height="40" as="geometry" />
        </mxCell>
        <mxCell id="h_ewbcy0oDdWf5_KwiLt-393" value="Fecha" style="ellipse;whiteSpace=wrap;html=1;align=center;" parent="1" vertex="1">
          <mxGeometry x="-840" y="450" width="100" height="40" as="geometry" />
        </mxCell>
        <mxCell id="h_ewbcy0oDdWf5_KwiLt-394" value="Motivo" style="ellipse;whiteSpace=wrap;html=1;align=center;" parent="1" vertex="1">
          <mxGeometry x="-927" y="495" width="100" height="40" as="geometry" />
        </mxCell>
        <mxCell id="h_ewbcy0oDdWf5_KwiLt-395" value="Fk_Empleado" style="ellipse;whiteSpace=wrap;html=1;align=center;fontStyle=4;" parent="1" vertex="1">
          <mxGeometry x="-700" y="510" width="100" height="40" as="geometry" />
        </mxCell>
        <mxCell id="h_ewbcy0oDdWf5_KwiLt-396" value="Fk_Venta" style="ellipse;whiteSpace=wrap;html=1;align=center;fontStyle=4;" parent="1" vertex="1">
          <mxGeometry x="-810" y="520" width="100" height="40" as="geometry" />
        </mxCell>
        <mxCell id="h_ewbcy0oDdWf5_KwiLt-402" value="Pk_DetalleDevolucion" style="ellipse;whiteSpace=wrap;html=1;align=center;fontStyle=4;" parent="1" vertex="1">
          <mxGeometry x="-905" y="273" width="130" height="40" as="geometry" />
        </mxCell>
        <mxCell id="h_ewbcy0oDdWf5_KwiLt-403" value="Motivo" style="ellipse;whiteSpace=wrap;html=1;align=center;" parent="1" vertex="1">
          <mxGeometry x="-1005" y="350" width="100" height="40" as="geometry" />
        </mxCell>
        <mxCell id="h_ewbcy0oDdWf5_KwiLt-404" value="Cantidad" style="ellipse;whiteSpace=wrap;html=1;align=center;" parent="1" vertex="1">
          <mxGeometry x="-1005" y="275" width="100" height="40" as="geometry" />
        </mxCell>
        <mxCell id="h_ewbcy0oDdWf5_KwiLt-405" value="Fk_Producto" style="ellipse;whiteSpace=wrap;html=1;align=center;fontStyle=4;" parent="1" vertex="1">
          <mxGeometry x="-970" y="395" width="100" height="40" as="geometry" />
        </mxCell>
        <mxCell id="h_ewbcy0oDdWf5_KwiLt-406" value="Fk_Devolucion" style="ellipse;whiteSpace=wrap;html=1;align=center;fontStyle=4;" parent="1" vertex="1">
          <mxGeometry x="-870" y="405" width="100" height="40" as="geometry" />
        </mxCell>
        <mxCell id="fs7uPyh7k5oqFPLGZ5jc-1" value="Fk_Impuesto" style="ellipse;whiteSpace=wrap;html=1;align=center;fontStyle=4;" parent="1" vertex="1">
          <mxGeometry x="160" y="305" width="100" height="40" as="geometry" />
        </mxCell>
        <mxCell id="fs7uPyh7k5oqFPLGZ5jc-5" value="Fk_Caja" style="ellipse;whiteSpace=wrap;html=1;align=center;fontStyle=4;" parent="1" vertex="1">
          <mxGeometry x="-1090" y="760" width="100" height="40" as="geometry" />
        </mxCell>
        <mxCell id="fs7uPyh7k5oqFPLGZ5jc-15" value="Pk_Impuesto" style="ellipse;whiteSpace=wrap;html=1;align=center;fontStyle=4;" parent="1" vertex="1">
          <mxGeometry x="250" y="350" width="100" height="40" as="geometry" />
        </mxCell>
        <mxCell id="fs7uPyh7k5oqFPLGZ5jc-16" value="Nombre" style="ellipse;whiteSpace=wrap;html=1;align=center;" parent="1" vertex="1">
          <mxGeometry x="290" y="400" width="100" height="40" as="geometry" />
        </mxCell>
        <mxCell id="fs7uPyh7k5oqFPLGZ5jc-17" value="Porcentaje" style="ellipse;whiteSpace=wrap;html=1;align=center;" parent="1" vertex="1">
          <mxGeometry x="215" y="440" width="100" height="40" as="geometry" />
        </mxCell>
        <mxCell id="fs7uPyh7k5oqFPLGZ5jc-24" style="edgeStyle=orthogonalEdgeStyle;rounded=0;orthogonalLoop=1;jettySize=auto;html=1;exitX=0;exitY=0.5;exitDx=0;exitDy=0;entryX=1;entryY=0.5;entryDx=0;entryDy=0;endArrow=none;endFill=0;" parent="1" source="fs7uPyh7k5oqFPLGZ5jc-21" target="h_ewbcy0oDdWf5_KwiLt-45" edge="1">
          <mxGeometry relative="1" as="geometry" />
        </mxCell>
        <mxCell id="fs7uPyh7k5oqFPLGZ5jc-21" value="Devuelto" style="shape=rhombus;perimeter=rhombusPerimeter;whiteSpace=wrap;html=1;align=center;" parent="1" vertex="1">
          <mxGeometry x="-340" y="320" width="70" height="60" as="geometry" />
        </mxCell>
        <mxCell id="fs7uPyh7k5oqFPLGZ5jc-27" value="Tiene" style="shape=rhombus;perimeter=rhombusPerimeter;whiteSpace=wrap;html=1;align=center;" parent="1" vertex="1">
          <mxGeometry x="-355" y="430" width="70" height="60" as="geometry" />
        </mxCell>
        <mxCell id="fs7uPyh7k5oqFPLGZ5jc-31" value="N" style="text;html=1;align=center;verticalAlign=middle;resizable=0;points=[];autosize=1;strokeColor=none;fillColor=none;" parent="1" vertex="1">
          <mxGeometry x="-240" y="230" width="30" height="30" as="geometry" />
        </mxCell>
        <mxCell id="fs7uPyh7k5oqFPLGZ5jc-33" value="1" style="text;html=1;align=center;verticalAlign=middle;resizable=0;points=[];autosize=1;strokeColor=none;fillColor=none;" parent="1" vertex="1">
          <mxGeometry x="-325" y="198" width="30" height="30" as="geometry" />
        </mxCell>
        <mxCell id="fs7uPyh7k5oqFPLGZ5jc-34" value="N" style="text;html=1;align=center;verticalAlign=middle;resizable=0;points=[];autosize=1;strokeColor=none;fillColor=none;" parent="1" vertex="1">
          <mxGeometry x="-210" y="95" width="30" height="30" as="geometry" />
        </mxCell>
        <mxCell id="fs7uPyh7k5oqFPLGZ5jc-36" value="1" style="text;html=1;align=center;verticalAlign=middle;resizable=0;points=[];autosize=1;strokeColor=none;fillColor=none;" parent="1" vertex="1">
          <mxGeometry x="-290" y="90" width="30" height="30" as="geometry" />
        </mxCell>
        <mxCell id="fs7uPyh7k5oqFPLGZ5jc-37" value="1" style="text;html=1;align=center;verticalAlign=middle;resizable=0;points=[];autosize=1;strokeColor=none;fillColor=none;" parent="1" vertex="1">
          <mxGeometry x="-160" y="330" width="30" height="30" as="geometry" />
        </mxCell>
        <mxCell id="fs7uPyh7k5oqFPLGZ5jc-39" value="N" style="text;html=1;align=center;verticalAlign=middle;resizable=0;points=[];autosize=1;strokeColor=none;fillColor=none;" parent="1" vertex="1">
          <mxGeometry x="-170" y="400" width="30" height="30" as="geometry" />
        </mxCell>
        <mxCell id="fs7uPyh7k5oqFPLGZ5jc-40" value="1" style="text;html=1;align=center;verticalAlign=middle;resizable=0;points=[];autosize=1;strokeColor=none;fillColor=none;" parent="1" vertex="1">
          <mxGeometry x="-260" y="290" width="30" height="30" as="geometry" />
        </mxCell>
        <mxCell id="fs7uPyh7k5oqFPLGZ5jc-41" value="N" style="text;html=1;align=center;verticalAlign=middle;resizable=0;points=[];autosize=1;strokeColor=none;fillColor=none;" parent="1" vertex="1">
          <mxGeometry x="-335" y="255" width="30" height="30" as="geometry" />
        </mxCell>
        <mxCell id="fs7uPyh7k5oqFPLGZ5jc-42" value="1" style="text;html=1;align=center;verticalAlign=middle;resizable=0;points=[];autosize=1;strokeColor=none;fillColor=none;" parent="1" vertex="1">
          <mxGeometry x="-170" y="-75" width="30" height="30" as="geometry" />
        </mxCell>
        <mxCell id="fs7uPyh7k5oqFPLGZ5jc-43" value="N" style="text;html=1;align=center;verticalAlign=middle;resizable=0;points=[];autosize=1;strokeColor=none;fillColor=none;" parent="1" vertex="1">
          <mxGeometry x="-200" y="-150" width="30" height="30" as="geometry" />
        </mxCell>
        <mxCell id="fs7uPyh7k5oqFPLGZ5jc-44" value="1" style="text;html=1;align=center;verticalAlign=middle;resizable=0;points=[];autosize=1;strokeColor=none;fillColor=none;" parent="1" vertex="1">
          <mxGeometry x="-70" y="120" width="30" height="30" as="geometry" />
        </mxCell>
        <mxCell id="fs7uPyh7k5oqFPLGZ5jc-45" value="N" style="text;html=1;align=center;verticalAlign=middle;resizable=0;points=[];autosize=1;strokeColor=none;fillColor=none;" parent="1" vertex="1">
          <mxGeometry x="-70" y="95" width="30" height="30" as="geometry" />
        </mxCell>
        <mxCell id="fs7uPyh7k5oqFPLGZ5jc-46" value="1" style="text;html=1;align=center;verticalAlign=middle;resizable=0;points=[];autosize=1;strokeColor=none;fillColor=none;" parent="1" vertex="1">
          <mxGeometry x="-210" y="945" width="30" height="30" as="geometry" />
        </mxCell>
        <mxCell id="fs7uPyh7k5oqFPLGZ5jc-47" value="N" style="text;html=1;align=center;verticalAlign=middle;resizable=0;points=[];autosize=1;strokeColor=none;fillColor=none;" parent="1" vertex="1">
          <mxGeometry x="-205" y="860" width="30" height="30" as="geometry" />
        </mxCell>
        <mxCell id="fs7uPyh7k5oqFPLGZ5jc-48" value="1" style="text;html=1;align=center;verticalAlign=middle;resizable=0;points=[];autosize=1;strokeColor=none;fillColor=none;" parent="1" vertex="1">
          <mxGeometry x="-30" y="700" width="30" height="30" as="geometry" />
        </mxCell>
        <mxCell id="fs7uPyh7k5oqFPLGZ5jc-49" value="N" style="text;html=1;align=center;verticalAlign=middle;resizable=0;points=[];autosize=1;strokeColor=none;fillColor=none;" parent="1" vertex="1">
          <mxGeometry x="-7.5" y="650" width="30" height="30" as="geometry" />
        </mxCell>
        <mxCell id="fs7uPyh7k5oqFPLGZ5jc-50" value="N" style="text;html=1;align=center;verticalAlign=middle;resizable=0;points=[];autosize=1;strokeColor=none;fillColor=none;" parent="1" vertex="1">
          <mxGeometry x="-360" y="750" width="30" height="30" as="geometry" />
        </mxCell>
        <mxCell id="fs7uPyh7k5oqFPLGZ5jc-51" value="1" style="text;html=1;align=center;verticalAlign=middle;resizable=0;points=[];autosize=1;strokeColor=none;fillColor=none;" parent="1" vertex="1">
          <mxGeometry x="-385" y="730" width="30" height="30" as="geometry" />
        </mxCell>
        <mxCell id="fs7uPyh7k5oqFPLGZ5jc-52" value="1" style="text;html=1;align=center;verticalAlign=middle;resizable=0;points=[];autosize=1;strokeColor=none;fillColor=none;" parent="1" vertex="1">
          <mxGeometry x="-455" y="415" width="30" height="30" as="geometry" />
        </mxCell>
        <mxCell id="fs7uPyh7k5oqFPLGZ5jc-53" value="N" style="text;html=1;align=center;verticalAlign=middle;resizable=0;points=[];autosize=1;strokeColor=none;fillColor=none;" parent="1" vertex="1">
          <mxGeometry x="-460" y="350" width="30" height="30" as="geometry" />
        </mxCell>
        <mxCell id="fs7uPyh7k5oqFPLGZ5jc-54" value="1" style="text;html=1;align=center;verticalAlign=middle;resizable=0;points=[];autosize=1;strokeColor=none;fillColor=none;" parent="1" vertex="1">
          <mxGeometry x="-645" y="830" width="30" height="30" as="geometry" />
        </mxCell>
        <mxCell id="fs7uPyh7k5oqFPLGZ5jc-55" value="1" style="text;html=1;align=center;verticalAlign=middle;resizable=0;points=[];autosize=1;strokeColor=none;fillColor=none;" parent="1" vertex="1">
          <mxGeometry x="-725" y="830" width="30" height="30" as="geometry" />
        </mxCell>
        <mxCell id="fs7uPyh7k5oqFPLGZ5jc-56" value="1" style="text;html=1;align=center;verticalAlign=middle;resizable=0;points=[];autosize=1;strokeColor=none;fillColor=none;" parent="1" vertex="1">
          <mxGeometry x="-320" y="630" width="30" height="30" as="geometry" />
        </mxCell>
        <mxCell id="fs7uPyh7k5oqFPLGZ5jc-58" value="N" style="text;html=1;align=center;verticalAlign=middle;resizable=0;points=[];autosize=1;strokeColor=none;fillColor=none;" parent="1" vertex="1">
          <mxGeometry x="-310" y="540" width="30" height="30" as="geometry" />
        </mxCell>
        <mxCell id="fs7uPyh7k5oqFPLGZ5jc-59" value="1" style="text;html=1;align=center;verticalAlign=middle;resizable=0;points=[];autosize=1;strokeColor=none;fillColor=none;" parent="1" vertex="1">
          <mxGeometry x="-490" y="520" width="30" height="30" as="geometry" />
        </mxCell>
        <mxCell id="fs7uPyh7k5oqFPLGZ5jc-60" value="N" style="text;html=1;align=center;verticalAlign=middle;resizable=0;points=[];autosize=1;strokeColor=none;fillColor=none;" parent="1" vertex="1">
          <mxGeometry x="-515" y="470" width="30" height="30" as="geometry" />
        </mxCell>
        <mxCell id="fs7uPyh7k5oqFPLGZ5jc-61" value="1" style="text;html=1;align=center;verticalAlign=middle;resizable=0;points=[];autosize=1;strokeColor=none;fillColor=none;" parent="1" vertex="1">
          <mxGeometry x="-562.5" y="410" width="30" height="30" as="geometry" />
        </mxCell>
        <mxCell id="fs7uPyh7k5oqFPLGZ5jc-62" value="N" style="text;html=1;align=center;verticalAlign=middle;resizable=0;points=[];autosize=1;strokeColor=none;fillColor=none;" parent="1" vertex="1">
          <mxGeometry x="-585" y="390" width="30" height="30" as="geometry" />
        </mxCell>
        <mxCell id="fs7uPyh7k5oqFPLGZ5jc-63" value="N" style="text;html=1;align=center;verticalAlign=middle;resizable=0;points=[];autosize=1;strokeColor=none;fillColor=none;" parent="1" vertex="1">
          <mxGeometry x="-970" y="830" width="30" height="30" as="geometry" />
        </mxCell>
        <mxCell id="fs7uPyh7k5oqFPLGZ5jc-64" value="1" style="text;html=1;align=center;verticalAlign=middle;resizable=0;points=[];autosize=1;strokeColor=none;fillColor=none;" parent="1" vertex="1">
          <mxGeometry x="-1065" y="830" width="30" height="30" as="geometry" />
        </mxCell>
        <mxCell id="fs7uPyh7k5oqFPLGZ5jc-65" value="N" style="text;html=1;align=center;verticalAlign=middle;resizable=0;points=[];autosize=1;strokeColor=none;fillColor=none;" parent="1" vertex="1">
          <mxGeometry x="-580" y="740" width="30" height="30" as="geometry" />
        </mxCell>
        <mxCell id="fs7uPyh7k5oqFPLGZ5jc-66" value="1" style="text;html=1;align=center;verticalAlign=middle;resizable=0;points=[];autosize=1;strokeColor=none;fillColor=none;" parent="1" vertex="1">
          <mxGeometry x="-530" y="790" width="30" height="30" as="geometry" />
        </mxCell>
        <mxCell id="fs7uPyh7k5oqFPLGZ5jc-68" value="N" style="text;html=1;align=center;verticalAlign=middle;resizable=0;points=[];autosize=1;strokeColor=none;fillColor=none;" parent="1" vertex="1">
          <mxGeometry x="-360" y="975" width="30" height="30" as="geometry" />
        </mxCell>
        <mxCell id="fs7uPyh7k5oqFPLGZ5jc-70" value="1" style="text;html=1;align=center;verticalAlign=middle;resizable=0;points=[];autosize=1;strokeColor=none;fillColor=none;" parent="1" vertex="1">
          <mxGeometry x="-360" y="1050" width="30" height="30" as="geometry" />
        </mxCell>
        <mxCell id="fs7uPyh7k5oqFPLGZ5jc-72" value="N" style="text;html=1;align=center;verticalAlign=middle;resizable=0;points=[];autosize=1;strokeColor=none;fillColor=none;" parent="1" vertex="1">
          <mxGeometry x="-325" y="1129" width="30" height="30" as="geometry" />
        </mxCell>
        <mxCell id="fs7uPyh7k5oqFPLGZ5jc-73" value="1" style="text;html=1;align=center;verticalAlign=middle;resizable=0;points=[];autosize=1;strokeColor=none;fillColor=none;" parent="1" vertex="1">
          <mxGeometry x="-320" y="1060" width="30" height="30" as="geometry" />
        </mxCell>
        <mxCell id="fs7uPyh7k5oqFPLGZ5jc-76" value="N" style="text;html=1;align=center;verticalAlign=middle;resizable=0;points=[];autosize=1;strokeColor=none;fillColor=none;" parent="1" vertex="1">
          <mxGeometry x="250" y="-5" width="30" height="30" as="geometry" />
        </mxCell>
        <mxCell id="fs7uPyh7k5oqFPLGZ5jc-77" value="1" style="text;html=1;align=center;verticalAlign=middle;resizable=0;points=[];autosize=1;strokeColor=none;fillColor=none;" parent="1" vertex="1">
          <mxGeometry x="195" y="40" width="30" height="30" as="geometry" />
        </mxCell>
        <mxCell id="fs7uPyh7k5oqFPLGZ5jc-79" value="N" style="text;html=1;align=center;verticalAlign=middle;resizable=0;points=[];autosize=1;strokeColor=none;fillColor=none;" parent="1" vertex="1">
          <mxGeometry x="420" y="60" width="30" height="30" as="geometry" />
        </mxCell>
        <mxCell id="fs7uPyh7k5oqFPLGZ5jc-80" value="1" style="text;html=1;align=center;verticalAlign=middle;resizable=0;points=[];autosize=1;strokeColor=none;fillColor=none;" parent="1" vertex="1">
          <mxGeometry x="510" y="60" width="30" height="30" as="geometry" />
        </mxCell>
        <mxCell id="fs7uPyh7k5oqFPLGZ5jc-81" value="1" style="text;html=1;align=center;verticalAlign=middle;resizable=0;points=[];autosize=1;strokeColor=none;fillColor=none;" parent="1" vertex="1">
          <mxGeometry x="-280" y="350" width="30" height="30" as="geometry" />
        </mxCell>
        <mxCell id="fs7uPyh7k5oqFPLGZ5jc-82" value="N" style="text;html=1;align=center;verticalAlign=middle;resizable=0;points=[];autosize=1;strokeColor=none;fillColor=none;" parent="1" vertex="1">
          <mxGeometry x="-365" y="315" width="30" height="30" as="geometry" />
        </mxCell>
        <mxCell id="fs7uPyh7k5oqFPLGZ5jc-83" value="1" style="text;html=1;align=center;verticalAlign=middle;resizable=0;points=[];autosize=1;strokeColor=none;fillColor=none;" parent="1" vertex="1">
          <mxGeometry x="-310" y="470" width="30" height="30" as="geometry" />
        </mxCell>
        <mxCell id="fs7uPyh7k5oqFPLGZ5jc-84" value="N" style="text;html=1;align=center;verticalAlign=middle;resizable=0;points=[];autosize=1;strokeColor=none;fillColor=none;" parent="1" vertex="1">
          <mxGeometry x="-370" y="460" width="30" height="30" as="geometry" />
        </mxCell>
        <mxCell id="fs7uPyh7k5oqFPLGZ5jc-85" value="N" style="text;html=1;align=center;verticalAlign=middle;resizable=0;points=[];autosize=1;strokeColor=none;fillColor=none;" parent="1" vertex="1">
          <mxGeometry x="-50" y="375" width="30" height="30" as="geometry" />
        </mxCell>
        <mxCell id="fs7uPyh7k5oqFPLGZ5jc-86" value="1" style="text;html=1;align=center;verticalAlign=middle;resizable=0;points=[];autosize=1;strokeColor=none;fillColor=none;" parent="1" vertex="1">
          <mxGeometry x="30" y="375" width="30" height="30" as="geometry" />
        </mxCell>
        <mxCell id="Ra5IyrzoPKyL8aZPp-yI-10" value="" style="endArrow=none;html=1;rounded=0;exitX=0.5;exitY=1;exitDx=0;exitDy=0;entryX=0.5;entryY=0;entryDx=0;entryDy=0;" parent="1" source="h_ewbcy0oDdWf5_KwiLt-182" target="hNK54wSJh9bYYilpVv1w-36" edge="1">
          <mxGeometry relative="1" as="geometry">
            <mxPoint x="380" y="-120" as="sourcePoint" />
            <mxPoint x="384.6446609406721" y="-134.14213562373106" as="targetPoint" />
          </mxGeometry>
        </mxCell>
        <mxCell id="Ra5IyrzoPKyL8aZPp-yI-11" value="" style="endArrow=none;html=1;rounded=0;exitX=1;exitY=0.25;exitDx=0;exitDy=0;entryX=0;entryY=0.5;entryDx=0;entryDy=0;" parent="1" source="hNK54wSJh9bYYilpVv1w-36" target="h_ewbcy0oDdWf5_KwiLt-185" edge="1">
          <mxGeometry relative="1" as="geometry">
            <mxPoint x="469.99999999999955" y="-120" as="sourcePoint" />
            <mxPoint x="540" y="-120" as="targetPoint" />
          </mxGeometry>
        </mxCell>
        <mxCell id="Ra5IyrzoPKyL8aZPp-yI-12" value="" style="endArrow=none;html=1;rounded=0;entryX=0;entryY=0.5;entryDx=0;entryDy=0;exitX=1;exitY=0.5;exitDx=0;exitDy=0;" parent="1" source="hNK54wSJh9bYYilpVv1w-36" target="h_ewbcy0oDdWf5_KwiLt-186" edge="1">
          <mxGeometry relative="1" as="geometry">
            <mxPoint x="660" y="-160" as="sourcePoint" />
            <mxPoint x="540" y="-120" as="targetPoint" />
          </mxGeometry>
        </mxCell>
        <mxCell id="Ra5IyrzoPKyL8aZPp-yI-13" value="" style="endArrow=none;html=1;rounded=0;exitX=0.5;exitY=0;exitDx=0;exitDy=0;entryX=1;entryY=0.75;entryDx=0;entryDy=0;" parent="1" source="h_ewbcy0oDdWf5_KwiLt-183" target="hNK54wSJh9bYYilpVv1w-36" edge="1">
          <mxGeometry relative="1" as="geometry">
            <mxPoint x="380" y="-120" as="sourcePoint" />
            <mxPoint x="650" y="-100" as="targetPoint" />
          </mxGeometry>
        </mxCell>
        <mxCell id="Ra5IyrzoPKyL8aZPp-yI-14" value="" style="endArrow=none;html=1;rounded=0;exitX=0;exitY=0.5;exitDx=0;exitDy=0;entryX=1;entryY=0;entryDx=0;entryDy=0;" parent="1" source="h_ewbcy0oDdWf5_KwiLt-187" target="hNK54wSJh9bYYilpVv1w-36" edge="1">
          <mxGeometry relative="1" as="geometry">
            <mxPoint x="380" y="-120" as="sourcePoint" />
            <mxPoint x="455.35533905932743" y="-134.14213562373106" as="targetPoint" />
          </mxGeometry>
        </mxCell>
        <mxCell id="Ra5IyrzoPKyL8aZPp-yI-15" value="" style="endArrow=none;html=1;rounded=0;exitX=0.5;exitY=1;exitDx=0;exitDy=0;entryX=1;entryY=0;entryDx=0;entryDy=0;" parent="1" source="h_ewbcy0oDdWf5_KwiLt-184" target="hNK54wSJh9bYYilpVv1w-36" edge="1">
          <mxGeometry relative="1" as="geometry">
            <mxPoint x="380" y="-120" as="sourcePoint" />
            <mxPoint x="442.30558729403356" y="-137.89954535940979" as="targetPoint" />
          </mxGeometry>
        </mxCell>
        <mxCell id="Ra5IyrzoPKyL8aZPp-yI-16" value="" style="endArrow=none;html=1;rounded=0;exitX=0.5;exitY=1;exitDx=0;exitDy=0;entryX=0.75;entryY=0;entryDx=0;entryDy=0;" parent="1" source="h_ewbcy0oDdWf5_KwiLt-188" target="hNK54wSJh9bYYilpVv1w-36" edge="1">
          <mxGeometry relative="1" as="geometry">
            <mxPoint x="380" y="-120" as="sourcePoint" />
            <mxPoint x="420" y="-140" as="targetPoint" />
          </mxGeometry>
        </mxCell>
        <mxCell id="Ra5IyrzoPKyL8aZPp-yI-18" value="" style="endArrow=none;html=1;rounded=0;entryX=1;entryY=1;entryDx=0;entryDy=0;exitX=0.5;exitY=0;exitDx=0;exitDy=0;" parent="1" source="h_ewbcy0oDdWf5_KwiLt-311" target="hNK54wSJh9bYYilpVv1w-175" edge="1">
          <mxGeometry relative="1" as="geometry">
            <mxPoint x="560" y="900" as="sourcePoint" />
            <mxPoint x="694.6446609406721" y="854.142135623732" as="targetPoint" />
          </mxGeometry>
        </mxCell>
        <mxCell id="Ra5IyrzoPKyL8aZPp-yI-19" value="" style="endArrow=none;html=1;rounded=0;entryX=0.5;entryY=0;entryDx=0;entryDy=0;exitX=1;exitY=1;exitDx=0;exitDy=0;" parent="1" source="hNK54wSJh9bYYilpVv1w-175" target="h_ewbcy0oDdWf5_KwiLt-309" edge="1">
          <mxGeometry relative="1" as="geometry">
            <mxPoint x="730" y="860" as="sourcePoint" />
            <mxPoint x="720" y="900" as="targetPoint" />
          </mxGeometry>
        </mxCell>
        <mxCell id="Ra5IyrzoPKyL8aZPp-yI-20" value="" style="endArrow=none;html=1;rounded=0;exitX=1;exitY=0.75;exitDx=0;exitDy=0;entryX=0;entryY=0.5;entryDx=0;entryDy=0;" parent="1" source="hNK54wSJh9bYYilpVv1w-175" target="h_ewbcy0oDdWf5_KwiLt-310" edge="1">
          <mxGeometry relative="1" as="geometry">
            <mxPoint x="765.3553390593274" y="854.1421356237311" as="sourcePoint" />
            <mxPoint x="720" y="900" as="targetPoint" />
          </mxGeometry>
        </mxCell>
        <mxCell id="Ra5IyrzoPKyL8aZPp-yI-21" value="" style="endArrow=none;html=1;rounded=0;entryX=0;entryY=0.5;entryDx=0;entryDy=0;exitX=1;exitY=0.5;exitDx=0;exitDy=0;" parent="1" source="hNK54wSJh9bYYilpVv1w-175" target="h_ewbcy0oDdWf5_KwiLt-307" edge="1">
          <mxGeometry relative="1" as="geometry">
            <mxPoint x="780" y="840" as="sourcePoint" />
            <mxPoint x="720" y="900" as="targetPoint" />
          </mxGeometry>
        </mxCell>
        <mxCell id="Ra5IyrzoPKyL8aZPp-yI-22" value="" style="endArrow=none;html=1;rounded=0;entryX=0;entryY=1;entryDx=0;entryDy=0;exitX=1;exitY=0.25;exitDx=0;exitDy=0;" parent="1" source="hNK54wSJh9bYYilpVv1w-175" target="h_ewbcy0oDdWf5_KwiLt-308" edge="1">
          <mxGeometry relative="1" as="geometry">
            <mxPoint x="765.3553390593274" y="825.8578643762698" as="sourcePoint" />
            <mxPoint x="720" y="900" as="targetPoint" />
          </mxGeometry>
        </mxCell>
        <mxCell id="Ra5IyrzoPKyL8aZPp-yI-23" value="" style="endArrow=none;html=1;rounded=0;exitX=0.5;exitY=1;exitDx=0;exitDy=0;entryX=1;entryY=0;entryDx=0;entryDy=0;" parent="1" source="h_ewbcy0oDdWf5_KwiLt-306" target="hNK54wSJh9bYYilpVv1w-175" edge="1">
          <mxGeometry relative="1" as="geometry">
            <mxPoint x="560" y="900" as="sourcePoint" />
            <mxPoint x="730" y="820" as="targetPoint" />
          </mxGeometry>
        </mxCell>
        <mxCell id="Ra5IyrzoPKyL8aZPp-yI-24" value="" style="endArrow=none;html=1;rounded=0;exitX=0.5;exitY=1;exitDx=0;exitDy=0;entryX=0.75;entryY=0;entryDx=0;entryDy=0;" parent="1" source="h_ewbcy0oDdWf5_KwiLt-305" target="hNK54wSJh9bYYilpVv1w-175" edge="1">
          <mxGeometry relative="1" as="geometry">
            <mxPoint x="560" y="900" as="sourcePoint" />
            <mxPoint x="694.6446609406721" y="825.8578643762689" as="targetPoint" />
          </mxGeometry>
        </mxCell>
        <mxCell id="Ra5IyrzoPKyL8aZPp-yI-25" value="" style="endArrow=none;html=1;rounded=0;exitX=0.75;exitY=1;exitDx=0;exitDy=0;entryX=0.5;entryY=0;entryDx=0;entryDy=0;" parent="1" source="hNK54wSJh9bYYilpVv1w-31" target="h_ewbcy0oDdWf5_KwiLt-346" edge="1">
          <mxGeometry relative="1" as="geometry">
            <mxPoint x="-689.6446609406789" y="1354.1421356237283" as="sourcePoint" />
            <mxPoint x="-380" y="1240" as="targetPoint" />
          </mxGeometry>
        </mxCell>
        <mxCell id="Ra5IyrzoPKyL8aZPp-yI-26" value="" style="endArrow=none;html=1;rounded=0;exitX=0.75;exitY=1;exitDx=0;exitDy=0;entryX=0.5;entryY=0;entryDx=0;entryDy=0;" parent="1" source="hNK54wSJh9bYYilpVv1w-31" target="h_ewbcy0oDdWf5_KwiLt-347" edge="1">
          <mxGeometry relative="1" as="geometry">
            <mxPoint x="-674.9999999999955" y="1340" as="sourcePoint" />
            <mxPoint x="-380" y="1240" as="targetPoint" />
          </mxGeometry>
        </mxCell>
        <mxCell id="Ra5IyrzoPKyL8aZPp-yI-27" value="" style="endArrow=none;html=1;rounded=0;exitX=1;exitY=0;exitDx=0;exitDy=0;entryX=0.5;entryY=1;entryDx=0;entryDy=0;" parent="1" source="h_ewbcy0oDdWf5_KwiLt-349" target="hNK54wSJh9bYYilpVv1w-31" edge="1">
          <mxGeometry relative="1" as="geometry">
            <mxPoint x="-540" y="1240" as="sourcePoint" />
            <mxPoint x="-725" y="1360" as="targetPoint" />
          </mxGeometry>
        </mxCell>
        <mxCell id="Ra5IyrzoPKyL8aZPp-yI-28" value="" style="endArrow=none;html=1;rounded=0;exitX=0.5;exitY=0;exitDx=0;exitDy=0;entryX=0.5;entryY=1;entryDx=0;entryDy=0;" parent="1" source="h_ewbcy0oDdWf5_KwiLt-348" target="hNK54wSJh9bYYilpVv1w-31" edge="1">
          <mxGeometry relative="1" as="geometry">
            <mxPoint x="-540" y="1240" as="sourcePoint" />
            <mxPoint x="-760.3553390593215" y="1354.1421356237288" as="targetPoint" />
          </mxGeometry>
        </mxCell>
        <mxCell id="Ra5IyrzoPKyL8aZPp-yI-29" value="" style="endArrow=none;html=1;rounded=0;exitX=1;exitY=0.5;exitDx=0;exitDy=0;entryX=0.25;entryY=1;entryDx=0;entryDy=0;" parent="1" source="h_ewbcy0oDdWf5_KwiLt-350" target="hNK54wSJh9bYYilpVv1w-31" edge="1">
          <mxGeometry relative="1" as="geometry">
            <mxPoint x="-540" y="1240" as="sourcePoint" />
            <mxPoint x="-760.3553390593215" y="1354.1421356237288" as="targetPoint" />
          </mxGeometry>
        </mxCell>
        <mxCell id="Ra5IyrzoPKyL8aZPp-yI-30" value="" style="endArrow=none;html=1;rounded=0;exitX=1;exitY=0.5;exitDx=0;exitDy=0;entryX=0;entryY=1;entryDx=0;entryDy=0;" parent="1" source="h_ewbcy0oDdWf5_KwiLt-344" target="hNK54wSJh9bYYilpVv1w-31" edge="1">
          <mxGeometry relative="1" as="geometry">
            <mxPoint x="-540" y="1240" as="sourcePoint" />
            <mxPoint x="-775.0000000000043" y="1340" as="targetPoint" />
          </mxGeometry>
        </mxCell>
        <mxCell id="Ra5IyrzoPKyL8aZPp-yI-31" value="" style="endArrow=none;html=1;rounded=0;exitX=1;exitY=1;exitDx=0;exitDy=0;entryX=0;entryY=0.5;entryDx=0;entryDy=0;" parent="1" source="h_ewbcy0oDdWf5_KwiLt-341" target="hNK54wSJh9bYYilpVv1w-31" edge="1">
          <mxGeometry relative="1" as="geometry">
            <mxPoint x="-540" y="1240" as="sourcePoint" />
            <mxPoint x="-760.3553390593215" y="1325.8578643762717" as="targetPoint" />
          </mxGeometry>
        </mxCell>
        <mxCell id="BDGe2pvycLrmD5JStkKG-1" value="ApellidoMaterno" style="ellipse;whiteSpace=wrap;html=1;align=center;" parent="1" vertex="1">
          <mxGeometry x="-495" y="970" width="100" height="40" as="geometry" />
        </mxCell>
        <mxCell id="BDGe2pvycLrmD5JStkKG-4" value="ApellidoMaterno" style="ellipse;whiteSpace=wrap;html=1;align=center;" parent="1" vertex="1">
          <mxGeometry x="70" y="1060" width="100" height="40" as="geometry" />
        </mxCell>
        <mxCell id="Kmahz_yttHfQimSiIEQV-1" value="Fk_DetalleCompra" style="ellipse;whiteSpace=wrap;html=1;align=center;fontStyle=4;" parent="1" vertex="1">
          <mxGeometry x="260" y="-330" width="107.5" height="40" as="geometry" />
        </mxCell>
        <mxCell id="Kmahz_yttHfQimSiIEQV-2" value="Fk_DetalleVenta" style="ellipse;whiteSpace=wrap;html=1;align=center;fontStyle=4;" parent="1" vertex="1">
          <mxGeometry x="250" y="-280" width="100" height="40" as="geometry" />
        </mxCell>
        <mxCell id="hNK54wSJh9bYYilpVv1w-1" value="TelefonosProveedor" style="whiteSpace=wrap;html=1;align=center;" parent="1" vertex="1">
          <mxGeometry x="-642.5" y="-100" width="120" height="40" as="geometry" />
        </mxCell>
        <mxCell id="hNK54wSJh9bYYilpVv1w-2" value="Fk_TelefonosProveedor" style="ellipse;whiteSpace=wrap;html=1;align=center;fontStyle=4;" parent="1" vertex="1">
          <mxGeometry x="-375" y="-150" width="150" height="40" as="geometry" />
        </mxCell>
        <mxCell id="hNK54wSJh9bYYilpVv1w-3" value="TelefonoLocal" style="ellipse;whiteSpace=wrap;html=1;align=center;" parent="1" vertex="1">
          <mxGeometry x="-632.5" y="-230" width="100" height="40" as="geometry" />
        </mxCell>
        <mxCell id="hNK54wSJh9bYYilpVv1w-4" value="TelefonoMovil" style="ellipse;whiteSpace=wrap;html=1;align=center;" parent="1" vertex="1">
          <mxGeometry x="-705" y="-200" width="100" height="40" as="geometry" />
        </mxCell>
        <mxCell id="hNK54wSJh9bYYilpVv1w-5" value="" style="endArrow=none;html=1;rounded=0;exitX=1;exitY=0.5;exitDx=0;exitDy=0;entryX=0;entryY=0.25;entryDx=0;entryDy=0;" parent="1" source="h_ewbcy0oDdWf5_KwiLt-373" target="h_ewbcy0oDdWf5_KwiLt-48" edge="1">
          <mxGeometry relative="1" as="geometry">
            <mxPoint x="-1080" y="940" as="sourcePoint" />
            <mxPoint x="-920" y="940" as="targetPoint" />
          </mxGeometry>
        </mxCell>
        <mxCell id="hNK54wSJh9bYYilpVv1w-6" value="" style="endArrow=none;html=1;rounded=0;exitX=1;exitY=0;exitDx=0;exitDy=0;entryX=0;entryY=0.75;entryDx=0;entryDy=0;" parent="1" source="h_ewbcy0oDdWf5_KwiLt-376" target="h_ewbcy0oDdWf5_KwiLt-48" edge="1">
          <mxGeometry relative="1" as="geometry">
            <mxPoint x="-1080" y="940" as="sourcePoint" />
            <mxPoint x="-920" y="940" as="targetPoint" />
          </mxGeometry>
        </mxCell>
        <mxCell id="hNK54wSJh9bYYilpVv1w-8" value="" style="endArrow=none;html=1;rounded=0;exitX=0.078;exitY=0.082;exitDx=0;exitDy=0;exitPerimeter=0;entryX=0.75;entryY=1;entryDx=0;entryDy=0;" parent="1" source="h_ewbcy0oDdWf5_KwiLt-384" target="h_ewbcy0oDdWf5_KwiLt-40" edge="1">
          <mxGeometry relative="1" as="geometry">
            <mxPoint x="-870" y="1080" as="sourcePoint" />
            <mxPoint x="-710" y="1080" as="targetPoint" />
          </mxGeometry>
        </mxCell>
        <mxCell id="hNK54wSJh9bYYilpVv1w-9" value="" style="endArrow=none;html=1;rounded=0;exitX=0;exitY=0;exitDx=0;exitDy=0;entryX=0.75;entryY=1;entryDx=0;entryDy=0;" parent="1" source="h_ewbcy0oDdWf5_KwiLt-383" target="h_ewbcy0oDdWf5_KwiLt-40" edge="1">
          <mxGeometry relative="1" as="geometry">
            <mxPoint x="-870" y="1080" as="sourcePoint" />
            <mxPoint x="-710" y="1080" as="targetPoint" />
          </mxGeometry>
        </mxCell>
        <mxCell id="hNK54wSJh9bYYilpVv1w-10" value="" style="endArrow=none;html=1;rounded=0;exitX=0;exitY=0;exitDx=0;exitDy=0;entryX=0.5;entryY=1;entryDx=0;entryDy=0;" parent="1" source="h_ewbcy0oDdWf5_KwiLt-379" target="h_ewbcy0oDdWf5_KwiLt-40" edge="1">
          <mxGeometry relative="1" as="geometry">
            <mxPoint x="-870" y="1080" as="sourcePoint" />
            <mxPoint x="-710" y="1080" as="targetPoint" />
          </mxGeometry>
        </mxCell>
        <mxCell id="hNK54wSJh9bYYilpVv1w-11" value="" style="endArrow=none;html=1;rounded=0;exitX=1;exitY=0;exitDx=0;exitDy=0;entryX=0.5;entryY=1;entryDx=0;entryDy=0;" parent="1" source="h_ewbcy0oDdWf5_KwiLt-380" target="h_ewbcy0oDdWf5_KwiLt-40" edge="1">
          <mxGeometry relative="1" as="geometry">
            <mxPoint x="-870" y="1080" as="sourcePoint" />
            <mxPoint x="-710" y="1080" as="targetPoint" />
          </mxGeometry>
        </mxCell>
        <mxCell id="hNK54wSJh9bYYilpVv1w-12" value="" style="endArrow=none;html=1;rounded=0;exitX=1;exitY=0;exitDx=0;exitDy=0;entryX=0.25;entryY=1;entryDx=0;entryDy=0;" parent="1" source="h_ewbcy0oDdWf5_KwiLt-381" target="h_ewbcy0oDdWf5_KwiLt-40" edge="1">
          <mxGeometry relative="1" as="geometry">
            <mxPoint x="-870" y="1080" as="sourcePoint" />
            <mxPoint x="-710" y="1080" as="targetPoint" />
          </mxGeometry>
        </mxCell>
        <mxCell id="hNK54wSJh9bYYilpVv1w-13" value="" style="endArrow=none;html=1;rounded=0;exitX=1;exitY=0;exitDx=0;exitDy=0;entryX=0.25;entryY=1;entryDx=0;entryDy=0;" parent="1" source="h_ewbcy0oDdWf5_KwiLt-382" target="h_ewbcy0oDdWf5_KwiLt-40" edge="1">
          <mxGeometry relative="1" as="geometry">
            <mxPoint x="-870" y="1080" as="sourcePoint" />
            <mxPoint x="-710" y="1080" as="targetPoint" />
          </mxGeometry>
        </mxCell>
        <mxCell id="hNK54wSJh9bYYilpVv1w-14" value="" style="endArrow=none;html=1;rounded=0;exitX=1;exitY=0;exitDx=0;exitDy=0;entryX=0;entryY=1;entryDx=0;entryDy=0;" parent="1" source="h_ewbcy0oDdWf5_KwiLt-374" target="h_ewbcy0oDdWf5_KwiLt-40" edge="1">
          <mxGeometry relative="1" as="geometry">
            <mxPoint x="-870" y="1080" as="sourcePoint" />
            <mxPoint x="-710" y="1080" as="targetPoint" />
          </mxGeometry>
        </mxCell>
        <mxCell id="hNK54wSJh9bYYilpVv1w-15" value="" style="endArrow=none;html=1;rounded=0;exitX=0.5;exitY=1;exitDx=0;exitDy=0;entryX=0.5;entryY=0;entryDx=0;entryDy=0;" parent="1" source="h_ewbcy0oDdWf5_KwiLt-33" target="h_ewbcy0oDdWf5_KwiLt-326" edge="1">
          <mxGeometry relative="1" as="geometry">
            <mxPoint x="-390" y="1200" as="sourcePoint" />
            <mxPoint x="-230" y="1200" as="targetPoint" />
          </mxGeometry>
        </mxCell>
        <mxCell id="hNK54wSJh9bYYilpVv1w-16" value="" style="endArrow=none;html=1;rounded=0;entryX=0.75;entryY=1;entryDx=0;entryDy=0;exitX=0;exitY=0;exitDx=0;exitDy=0;" parent="1" source="h_ewbcy0oDdWf5_KwiLt-328" target="h_ewbcy0oDdWf5_KwiLt-33" edge="1">
          <mxGeometry relative="1" as="geometry">
            <mxPoint x="-390" y="1200" as="sourcePoint" />
            <mxPoint x="-230" y="1200" as="targetPoint" />
          </mxGeometry>
        </mxCell>
        <mxCell id="hNK54wSJh9bYYilpVv1w-17" value="" style="endArrow=none;html=1;rounded=0;exitX=1;exitY=1;exitDx=0;exitDy=0;entryX=0;entryY=0;entryDx=0;entryDy=0;" parent="1" source="h_ewbcy0oDdWf5_KwiLt-33" target="h_ewbcy0oDdWf5_KwiLt-327" edge="1">
          <mxGeometry relative="1" as="geometry">
            <mxPoint x="-390" y="1200" as="sourcePoint" />
            <mxPoint x="-230" y="1200" as="targetPoint" />
          </mxGeometry>
        </mxCell>
        <mxCell id="hNK54wSJh9bYYilpVv1w-18" value="" style="endArrow=none;html=1;rounded=0;exitX=1;exitY=0.75;exitDx=0;exitDy=0;entryX=0;entryY=0.5;entryDx=0;entryDy=0;" parent="1" source="h_ewbcy0oDdWf5_KwiLt-33" target="h_ewbcy0oDdWf5_KwiLt-325" edge="1">
          <mxGeometry relative="1" as="geometry">
            <mxPoint x="-390" y="1200" as="sourcePoint" />
            <mxPoint x="-230" y="1200" as="targetPoint" />
          </mxGeometry>
        </mxCell>
        <mxCell id="hNK54wSJh9bYYilpVv1w-22" value="" style="endArrow=none;html=1;rounded=0;exitX=1;exitY=1;exitDx=0;exitDy=0;entryX=0;entryY=0;entryDx=0;entryDy=0;" parent="1" source="h_ewbcy0oDdWf5_KwiLt-38" target="h_ewbcy0oDdWf5_KwiLt-336" edge="1">
          <mxGeometry relative="1" as="geometry">
            <mxPoint x="-660" y="1000" as="sourcePoint" />
            <mxPoint x="-500" y="1000" as="targetPoint" />
          </mxGeometry>
        </mxCell>
        <mxCell id="hNK54wSJh9bYYilpVv1w-23" value="" style="endArrow=none;html=1;rounded=0;entryX=0;entryY=0;entryDx=0;entryDy=0;exitX=0.75;exitY=1;exitDx=0;exitDy=0;" parent="1" source="h_ewbcy0oDdWf5_KwiLt-38" target="h_ewbcy0oDdWf5_KwiLt-343" edge="1">
          <mxGeometry relative="1" as="geometry">
            <mxPoint x="-660" y="1000" as="sourcePoint" />
            <mxPoint x="-500" y="1000" as="targetPoint" />
          </mxGeometry>
        </mxCell>
        <mxCell id="hNK54wSJh9bYYilpVv1w-24" value="" style="endArrow=none;html=1;rounded=0;entryX=0.75;entryY=1;entryDx=0;entryDy=0;exitX=0;exitY=0;exitDx=0;exitDy=0;" parent="1" source="BDGe2pvycLrmD5JStkKG-1" target="h_ewbcy0oDdWf5_KwiLt-38" edge="1">
          <mxGeometry relative="1" as="geometry">
            <mxPoint x="-660" y="1000" as="sourcePoint" />
            <mxPoint x="-500" y="1000" as="targetPoint" />
          </mxGeometry>
        </mxCell>
        <mxCell id="hNK54wSJh9bYYilpVv1w-25" value="" style="endArrow=none;html=1;rounded=0;exitX=0;exitY=0.5;exitDx=0;exitDy=0;entryX=0.5;entryY=1;entryDx=0;entryDy=0;" parent="1" source="h_ewbcy0oDdWf5_KwiLt-338" target="h_ewbcy0oDdWf5_KwiLt-38" edge="1">
          <mxGeometry relative="1" as="geometry">
            <mxPoint x="-660" y="1000" as="sourcePoint" />
            <mxPoint x="-500" y="1000" as="targetPoint" />
          </mxGeometry>
        </mxCell>
        <mxCell id="hNK54wSJh9bYYilpVv1w-26" value="" style="endArrow=none;html=1;rounded=0;exitX=0.5;exitY=1;exitDx=0;exitDy=0;entryX=1;entryY=0;entryDx=0;entryDy=0;" parent="1" source="h_ewbcy0oDdWf5_KwiLt-38" target="h_ewbcy0oDdWf5_KwiLt-337" edge="1">
          <mxGeometry relative="1" as="geometry">
            <mxPoint x="-660" y="1000" as="sourcePoint" />
            <mxPoint x="-500" y="1000" as="targetPoint" />
          </mxGeometry>
        </mxCell>
        <mxCell id="hNK54wSJh9bYYilpVv1w-27" value="" style="endArrow=none;html=1;rounded=0;exitX=1;exitY=0;exitDx=0;exitDy=0;entryX=0.25;entryY=1;entryDx=0;entryDy=0;" parent="1" source="Kmahz_yttHfQimSiIEQV-6" target="h_ewbcy0oDdWf5_KwiLt-38" edge="1">
          <mxGeometry relative="1" as="geometry">
            <mxPoint x="-660" y="1000" as="sourcePoint" />
            <mxPoint x="-500" y="1000" as="targetPoint" />
          </mxGeometry>
        </mxCell>
        <mxCell id="hNK54wSJh9bYYilpVv1w-28" value="" style="endArrow=none;html=1;rounded=0;exitX=0;exitY=1;exitDx=0;exitDy=0;entryX=0.5;entryY=0;entryDx=0;entryDy=0;" parent="1" source="h_ewbcy0oDdWf5_KwiLt-38" target="h_ewbcy0oDdWf5_KwiLt-335" edge="1">
          <mxGeometry relative="1" as="geometry">
            <mxPoint x="-660" y="1000" as="sourcePoint" />
            <mxPoint x="-500" y="1000" as="targetPoint" />
          </mxGeometry>
        </mxCell>
        <mxCell id="Kmahz_yttHfQimSiIEQV-6" value="Fk_Sucursal" style="ellipse;whiteSpace=wrap;html=1;align=center;fontStyle=4;" parent="1" vertex="1">
          <mxGeometry x="-665" y="940" width="115" height="50" as="geometry" />
        </mxCell>
        <mxCell id="hNK54wSJh9bYYilpVv1w-31" value="DireccionEmpleado" style="whiteSpace=wrap;html=1;align=center;" parent="1" vertex="1">
          <mxGeometry x="-965" y="1180" width="120" height="40" as="geometry" />
        </mxCell>
        <mxCell id="hNK54wSJh9bYYilpVv1w-32" value="" style="endArrow=none;html=1;rounded=0;exitX=0.75;exitY=1;exitDx=0;exitDy=0;entryX=0.5;entryY=0;entryDx=0;entryDy=0;" parent="1" source="h_ewbcy0oDdWf5_KwiLt-39" target="h_ewbcy0oDdWf5_KwiLt-321" edge="1">
          <mxGeometry relative="1" as="geometry">
            <mxPoint x="-70" y="980" as="sourcePoint" />
            <mxPoint x="90" y="980" as="targetPoint" />
          </mxGeometry>
        </mxCell>
        <mxCell id="hNK54wSJh9bYYilpVv1w-33" value="" style="endArrow=none;html=1;rounded=0;exitX=0.25;exitY=0;exitDx=0;exitDy=0;entryX=0.5;entryY=1;entryDx=0;entryDy=0;" parent="1" source="h_ewbcy0oDdWf5_KwiLt-39" target="h_ewbcy0oDdWf5_KwiLt-320" edge="1">
          <mxGeometry relative="1" as="geometry">
            <mxPoint x="-70" y="980" as="sourcePoint" />
            <mxPoint x="90" y="980" as="targetPoint" />
          </mxGeometry>
        </mxCell>
        <mxCell id="hNK54wSJh9bYYilpVv1w-34" value="" style="endArrow=none;html=1;rounded=0;exitX=0.75;exitY=0;exitDx=0;exitDy=0;entryX=0.5;entryY=1;entryDx=0;entryDy=0;" parent="1" source="h_ewbcy0oDdWf5_KwiLt-39" target="h_ewbcy0oDdWf5_KwiLt-319" edge="1">
          <mxGeometry relative="1" as="geometry">
            <mxPoint x="-70" y="980" as="sourcePoint" />
            <mxPoint x="90" y="980" as="targetPoint" />
          </mxGeometry>
        </mxCell>
        <mxCell id="hNK54wSJh9bYYilpVv1w-36" value="DireccionSucursal" style="whiteSpace=wrap;html=1;align=center;" parent="1" vertex="1">
          <mxGeometry x="760" width="110" height="40" as="geometry" />
        </mxCell>
        <mxCell id="hNK54wSJh9bYYilpVv1w-38" value="" style="endArrow=none;html=1;rounded=0;exitX=0.5;exitY=0;exitDx=0;exitDy=0;entryX=0;entryY=1;entryDx=0;entryDy=0;" parent="1" source="h_ewbcy0oDdWf5_KwiLt-43" target="h_ewbcy0oDdWf5_KwiLt-180" edge="1">
          <mxGeometry relative="1" as="geometry">
            <mxPoint x="400" as="sourcePoint" />
            <mxPoint x="560" as="targetPoint" />
          </mxGeometry>
        </mxCell>
        <mxCell id="hNK54wSJh9bYYilpVv1w-39" value="" style="endArrow=none;html=1;rounded=0;exitX=0.5;exitY=1;exitDx=0;exitDy=0;entryX=0.25;entryY=0;entryDx=0;entryDy=0;" parent="1" source="h_ewbcy0oDdWf5_KwiLt-179" target="h_ewbcy0oDdWf5_KwiLt-43" edge="1">
          <mxGeometry relative="1" as="geometry">
            <mxPoint x="400" as="sourcePoint" />
            <mxPoint x="560" as="targetPoint" />
          </mxGeometry>
        </mxCell>
        <mxCell id="hNK54wSJh9bYYilpVv1w-41" value="P&lt;span style=&quot;color: rgba(0, 0, 0, 0); font-family: monospace; font-size: 0px; text-align: start; text-wrap: nowrap;&quot;&gt;%3CmxGraphModel%3E%3Croot%3E%3CmxCell%20id%3D%220%22%2F%3E%3CmxCell%20id%3D%221%22%20parent%3D%220%22%2F%3E%3CmxCell%20id%3D%222%22%20value%3D%22Pk_Sucursal%22%20style%3D%22ellipse%3BwhiteSpace%3Dwrap%3Bhtml%3D1%3Balign%3Dcenter%3BfontStyle%3D4%3B%22%20vertex%3D%221%22%20parent%3D%221%22%3E%3CmxGeometry%20x%3D%22220%22%20y%3D%22-80%22%20width%3D%22100%22%20height%3D%2240%22%20as%3D%22geometry%22%2F%3E%3C%2FmxCell%3E%3C%2Froot%3E%3C%2FmxGraphModel%3E&lt;/span&gt;k_DireccionSucursal" style="ellipse;whiteSpace=wrap;html=1;align=center;fontStyle=4;rotation=-30;" parent="1" vertex="1">
          <mxGeometry x="680" y="-190" width="140" height="40" as="geometry" />
        </mxCell>
        <mxCell id="hNK54wSJh9bYYilpVv1w-43" value="Fk_DireccionSucursal&lt;span style=&quot;color: rgba(0, 0, 0, 0); font-family: monospace; font-size: 0px; text-align: start; text-wrap: nowrap;&quot;&gt;%3CmxGraphModel%3E%3Croot%3E%3CmxCell%20id%3D%220%22%2F%3E%3CmxCell%20id%3D%221%22%20parent%3D%220%22%2F%3E%3CmxCell%20id%3D%222%22%20value%3D%22P%26lt%3Bspan%20style%3D%26quot%3Bcolor%3A%20rgba(0%2C%200%2C%200%2C%200)%3B%20font-family%3A%20monospace%3B%20font-size%3A%200px%3B%20text-align%3A%20start%3B%20text-wrap%3A%20nowrap%3B%26quot%3B%26gt%3B%253CmxGraphModel%253E%253Croot%253E%253CmxCell%2520id%253D%25220%2522%252F%253E%253CmxCell%2520id%253D%25221%2522%2520parent%253D%25220%2522%252F%253E%253CmxCell%2520id%253D%25222%2522%2520value%253D%2522Pk_Sucursal%2522%2520style%253D%2522ellipse%253BwhiteSpace%253Dwrap%253Bhtml%253D1%253Balign%253Dcenter%253BfontStyle%253D4%253B%2522%2520vertex%253D%25221%2522%2520parent%253D%25221%2522%253E%253CmxGeometry%2520x%253D%2522220%2522%2520y%253D%2522-80%2522%2520width%253D%2522100%2522%2520height%253D%252240%2522%2520as%253D%2522geometry%2522%252F%253E%253C%252FmxCell%253E%253C%252Froot%253E%253C%252FmxGraphModel%253E%26lt%3B%2Fspan%26gt%3Bk_DireccionSucursal%22%20style%3D%22ellipse%3BwhiteSpace%3Dwrap%3Bhtml%3D1%3Balign%3Dcenter%3BfontStyle%3D4%3B%22%20vertex%3D%221%22%20parent%3D%221%22%3E%3CmxGeometry%20x%3D%22660%22%20y%3D%2250%22%20width%3D%22140%22%20height%3D%2240%22%20as%3D%22geometry%22%2F%3E%3C%2FmxCell%3E%3C%2Froot%3E%3C%2FmxGraphModel%3E&lt;/span&gt;" style="ellipse;whiteSpace=wrap;html=1;align=center;fontStyle=4;" parent="1" vertex="1">
          <mxGeometry x="640" y="-50" width="130" height="40" as="geometry" />
        </mxCell>
        <mxCell id="hNK54wSJh9bYYilpVv1w-45" value="" style="endArrow=none;html=1;rounded=0;exitX=0.5;exitY=1;exitDx=0;exitDy=0;entryX=0.25;entryY=0;entryDx=0;entryDy=0;" parent="1" source="hNK54wSJh9bYYilpVv1w-41" target="hNK54wSJh9bYYilpVv1w-36" edge="1">
          <mxGeometry relative="1" as="geometry">
            <mxPoint x="750" y="120" as="sourcePoint" />
            <mxPoint x="910" y="120" as="targetPoint" />
          </mxGeometry>
        </mxCell>
        <mxCell id="hNK54wSJh9bYYilpVv1w-46" value="" style="endArrow=none;html=1;rounded=0;exitX=0.75;exitY=0;exitDx=0;exitDy=0;entryX=0;entryY=1;entryDx=0;entryDy=0;" parent="1" source="h_ewbcy0oDdWf5_KwiLt-43" target="hNK54wSJh9bYYilpVv1w-43" edge="1">
          <mxGeometry relative="1" as="geometry">
            <mxPoint x="490" y="120" as="sourcePoint" />
            <mxPoint x="650" y="120" as="targetPoint" />
          </mxGeometry>
        </mxCell>
        <mxCell id="hNK54wSJh9bYYilpVv1w-47" value="Tiene" style="shape=rhombus;perimeter=rhombusPerimeter;whiteSpace=wrap;html=1;align=center;" parent="1" vertex="1">
          <mxGeometry x="680" y="50" width="70" height="60" as="geometry" />
        </mxCell>
        <mxCell id="hNK54wSJh9bYYilpVv1w-49" style="edgeStyle=orthogonalEdgeStyle;rounded=0;orthogonalLoop=1;jettySize=auto;html=1;exitX=1;exitY=0.5;exitDx=0;exitDy=0;entryX=0.515;entryY=1.211;entryDx=0;entryDy=0;entryPerimeter=0;endArrow=none;endFill=0;" parent="1" source="hNK54wSJh9bYYilpVv1w-47" target="hNK54wSJh9bYYilpVv1w-36" edge="1">
          <mxGeometry relative="1" as="geometry" />
        </mxCell>
        <mxCell id="hNK54wSJh9bYYilpVv1w-50" value="1" style="text;html=1;align=center;verticalAlign=middle;resizable=0;points=[];autosize=1;strokeColor=none;fillColor=none;" parent="1" vertex="1">
          <mxGeometry x="740" y="50" width="30" height="30" as="geometry" />
        </mxCell>
        <mxCell id="hNK54wSJh9bYYilpVv1w-51" value="1" style="text;html=1;align=center;verticalAlign=middle;resizable=0;points=[];autosize=1;strokeColor=none;fillColor=none;" parent="1" vertex="1">
          <mxGeometry x="655" y="50" width="30" height="30" as="geometry" />
        </mxCell>
        <mxCell id="hNK54wSJh9bYYilpVv1w-52" value="" style="endArrow=none;html=1;rounded=0;exitX=0;exitY=1;exitDx=0;exitDy=0;entryX=0.5;entryY=0;entryDx=0;entryDy=0;" parent="1" source="h_ewbcy0oDdWf5_KwiLt-168" target="h_ewbcy0oDdWf5_KwiLt-41" edge="1">
          <mxGeometry relative="1" as="geometry">
            <mxPoint x="250" y="-170" as="sourcePoint" />
            <mxPoint x="410" y="-170" as="targetPoint" />
          </mxGeometry>
        </mxCell>
        <mxCell id="hNK54wSJh9bYYilpVv1w-53" value="" style="endArrow=none;html=1;rounded=0;exitX=0;exitY=1;exitDx=0;exitDy=0;entryX=0.5;entryY=0;entryDx=0;entryDy=0;" parent="1" source="h_ewbcy0oDdWf5_KwiLt-169" target="h_ewbcy0oDdWf5_KwiLt-41" edge="1">
          <mxGeometry relative="1" as="geometry">
            <mxPoint x="250" y="-170" as="sourcePoint" />
            <mxPoint x="410" y="-170" as="targetPoint" />
          </mxGeometry>
        </mxCell>
        <mxCell id="hNK54wSJh9bYYilpVv1w-54" value="" style="endArrow=none;html=1;rounded=0;exitX=0.5;exitY=1;exitDx=0;exitDy=0;entryX=0.75;entryY=0;entryDx=0;entryDy=0;" parent="1" source="h_ewbcy0oDdWf5_KwiLt-167" target="h_ewbcy0oDdWf5_KwiLt-41" edge="1">
          <mxGeometry relative="1" as="geometry">
            <mxPoint x="250" y="-170" as="sourcePoint" />
            <mxPoint x="410" y="-170" as="targetPoint" />
          </mxGeometry>
        </mxCell>
        <mxCell id="hNK54wSJh9bYYilpVv1w-55" value="" style="endArrow=none;html=1;rounded=0;exitX=0.5;exitY=1;exitDx=0;exitDy=0;entryX=0.5;entryY=0;entryDx=0;entryDy=0;" parent="1" source="h_ewbcy0oDdWf5_KwiLt-170" target="h_ewbcy0oDdWf5_KwiLt-41" edge="1">
          <mxGeometry relative="1" as="geometry">
            <mxPoint x="250" y="-170" as="sourcePoint" />
            <mxPoint x="410" y="-170" as="targetPoint" />
          </mxGeometry>
        </mxCell>
        <mxCell id="hNK54wSJh9bYYilpVv1w-56" value="" style="endArrow=none;html=1;rounded=0;exitX=1;exitY=1;exitDx=0;exitDy=0;entryX=0.5;entryY=0;entryDx=0;entryDy=0;" parent="1" source="Kmahz_yttHfQimSiIEQV-1" target="h_ewbcy0oDdWf5_KwiLt-41" edge="1">
          <mxGeometry relative="1" as="geometry">
            <mxPoint x="250" y="-170" as="sourcePoint" />
            <mxPoint x="410" y="-170" as="targetPoint" />
          </mxGeometry>
        </mxCell>
        <mxCell id="hNK54wSJh9bYYilpVv1w-57" value="" style="endArrow=none;html=1;rounded=0;exitX=1;exitY=1;exitDx=0;exitDy=0;entryX=0.25;entryY=0;entryDx=0;entryDy=0;" parent="1" source="Kmahz_yttHfQimSiIEQV-2" target="h_ewbcy0oDdWf5_KwiLt-41" edge="1">
          <mxGeometry relative="1" as="geometry">
            <mxPoint x="250" y="-170" as="sourcePoint" />
            <mxPoint x="410" y="-170" as="targetPoint" />
          </mxGeometry>
        </mxCell>
        <mxCell id="hNK54wSJh9bYYilpVv1w-58" value="" style="endArrow=none;html=1;rounded=0;exitX=1;exitY=1;exitDx=0;exitDy=0;entryX=0.25;entryY=0;entryDx=0;entryDy=0;" parent="1" source="h_ewbcy0oDdWf5_KwiLt-171" target="h_ewbcy0oDdWf5_KwiLt-41" edge="1">
          <mxGeometry relative="1" as="geometry">
            <mxPoint x="250" y="-170" as="sourcePoint" />
            <mxPoint x="410" y="-170" as="targetPoint" />
          </mxGeometry>
        </mxCell>
        <mxCell id="hNK54wSJh9bYYilpVv1w-59" value="" style="endArrow=none;html=1;rounded=0;exitX=1;exitY=0.5;exitDx=0;exitDy=0;entryX=0.25;entryY=0;entryDx=0;entryDy=0;" parent="1" source="h_ewbcy0oDdWf5_KwiLt-172" target="h_ewbcy0oDdWf5_KwiLt-41" edge="1">
          <mxGeometry relative="1" as="geometry">
            <mxPoint x="250" y="-170" as="sourcePoint" />
            <mxPoint x="410" y="-170" as="targetPoint" />
          </mxGeometry>
        </mxCell>
        <mxCell id="hNK54wSJh9bYYilpVv1w-62" value="" style="endArrow=none;html=1;rounded=0;exitX=0.25;exitY=0;exitDx=0;exitDy=0;entryX=0;entryY=0.5;entryDx=0;entryDy=0;" parent="1" source="h_ewbcy0oDdWf5_KwiLt-26" target="h_ewbcy0oDdWf5_KwiLt-156" edge="1">
          <mxGeometry relative="1" as="geometry">
            <mxPoint x="-40" y="-160" as="sourcePoint" />
            <mxPoint x="120" y="-160" as="targetPoint" />
          </mxGeometry>
        </mxCell>
        <mxCell id="hNK54wSJh9bYYilpVv1w-63" value="" style="endArrow=none;html=1;rounded=0;exitX=0;exitY=0.5;exitDx=0;exitDy=0;entryX=0.5;entryY=0;entryDx=0;entryDy=0;" parent="1" source="h_ewbcy0oDdWf5_KwiLt-155" target="h_ewbcy0oDdWf5_KwiLt-26" edge="1">
          <mxGeometry relative="1" as="geometry">
            <mxPoint x="-40" y="-160" as="sourcePoint" />
            <mxPoint x="120" y="-160" as="targetPoint" />
          </mxGeometry>
        </mxCell>
        <mxCell id="hNK54wSJh9bYYilpVv1w-64" value="" style="endArrow=none;html=1;rounded=0;exitX=0;exitY=0.5;exitDx=0;exitDy=0;entryX=0.5;entryY=0;entryDx=0;entryDy=0;" parent="1" source="h_ewbcy0oDdWf5_KwiLt-154" target="h_ewbcy0oDdWf5_KwiLt-26" edge="1">
          <mxGeometry relative="1" as="geometry">
            <mxPoint x="-40" y="-160" as="sourcePoint" />
            <mxPoint x="120" y="-160" as="targetPoint" />
          </mxGeometry>
        </mxCell>
        <mxCell id="hNK54wSJh9bYYilpVv1w-65" value="" style="endArrow=none;html=1;rounded=0;exitX=0;exitY=0.5;exitDx=0;exitDy=0;entryX=0.75;entryY=0;entryDx=0;entryDy=0;" parent="1" source="h_ewbcy0oDdWf5_KwiLt-153" target="h_ewbcy0oDdWf5_KwiLt-26" edge="1">
          <mxGeometry relative="1" as="geometry">
            <mxPoint x="-40" y="-160" as="sourcePoint" />
            <mxPoint x="120" y="-160" as="targetPoint" />
          </mxGeometry>
        </mxCell>
        <mxCell id="hNK54wSJh9bYYilpVv1w-66" value="" style="endArrow=none;html=1;rounded=0;exitX=0;exitY=0.5;exitDx=0;exitDy=0;entryX=0.25;entryY=0;entryDx=0;entryDy=0;" parent="1" source="h_ewbcy0oDdWf5_KwiLt-157" target="h_ewbcy0oDdWf5_KwiLt-26" edge="1">
          <mxGeometry relative="1" as="geometry">
            <mxPoint x="-40" y="-160" as="sourcePoint" />
            <mxPoint x="120" y="-160" as="targetPoint" />
          </mxGeometry>
        </mxCell>
        <mxCell id="hNK54wSJh9bYYilpVv1w-67" value="" style="endArrow=none;html=1;rounded=0;exitX=0;exitY=1;exitDx=0;exitDy=0;entryX=0.25;entryY=0;entryDx=0;entryDy=0;" parent="1" source="h_ewbcy0oDdWf5_KwiLt-158" target="h_ewbcy0oDdWf5_KwiLt-26" edge="1">
          <mxGeometry relative="1" as="geometry">
            <mxPoint x="-40" y="-160" as="sourcePoint" />
            <mxPoint x="120" y="-160" as="targetPoint" />
          </mxGeometry>
        </mxCell>
        <mxCell id="hNK54wSJh9bYYilpVv1w-68" value="" style="endArrow=none;html=1;rounded=0;exitX=0;exitY=1;exitDx=0;exitDy=0;entryX=0.25;entryY=0;entryDx=0;entryDy=0;" parent="1" source="h_ewbcy0oDdWf5_KwiLt-159" target="h_ewbcy0oDdWf5_KwiLt-26" edge="1">
          <mxGeometry relative="1" as="geometry">
            <mxPoint x="50" y="-220" as="sourcePoint" />
            <mxPoint x="210" y="-220" as="targetPoint" />
          </mxGeometry>
        </mxCell>
        <mxCell id="hNK54wSJh9bYYilpVv1w-70" value="" style="endArrow=none;html=1;rounded=0;exitX=0.5;exitY=1;exitDx=0;exitDy=0;entryX=0.25;entryY=0;entryDx=0;entryDy=0;" parent="1" source="h_ewbcy0oDdWf5_KwiLt-151" target="h_ewbcy0oDdWf5_KwiLt-27" edge="1">
          <mxGeometry relative="1" as="geometry">
            <mxPoint x="-290" y="-110" as="sourcePoint" />
            <mxPoint x="-130" y="-110" as="targetPoint" />
          </mxGeometry>
        </mxCell>
        <mxCell id="hNK54wSJh9bYYilpVv1w-71" value="" style="endArrow=none;html=1;rounded=0;entryX=0;entryY=1;entryDx=0;entryDy=0;exitX=0.25;exitY=0;exitDx=0;exitDy=0;" parent="1" source="h_ewbcy0oDdWf5_KwiLt-27" target="h_ewbcy0oDdWf5_KwiLt-146" edge="1">
          <mxGeometry relative="1" as="geometry">
            <mxPoint x="-290" y="-110" as="sourcePoint" />
            <mxPoint x="-130" y="-110" as="targetPoint" />
          </mxGeometry>
        </mxCell>
        <mxCell id="hNK54wSJh9bYYilpVv1w-72" value="" style="endArrow=none;html=1;rounded=0;entryX=0;entryY=0.5;entryDx=0;entryDy=0;exitX=0.5;exitY=0;exitDx=0;exitDy=0;" parent="1" source="h_ewbcy0oDdWf5_KwiLt-27" target="h_ewbcy0oDdWf5_KwiLt-143" edge="1">
          <mxGeometry relative="1" as="geometry">
            <mxPoint x="-290" y="-110" as="sourcePoint" />
            <mxPoint x="-130" y="-110" as="targetPoint" />
          </mxGeometry>
        </mxCell>
        <mxCell id="hNK54wSJh9bYYilpVv1w-73" value="" style="endArrow=none;html=1;rounded=0;exitX=0.5;exitY=0;exitDx=0;exitDy=0;entryX=0;entryY=0.5;entryDx=0;entryDy=0;" parent="1" source="h_ewbcy0oDdWf5_KwiLt-27" target="h_ewbcy0oDdWf5_KwiLt-145" edge="1">
          <mxGeometry relative="1" as="geometry">
            <mxPoint x="-290" y="-110" as="sourcePoint" />
            <mxPoint x="-130" y="-110" as="targetPoint" />
          </mxGeometry>
        </mxCell>
        <mxCell id="hNK54wSJh9bYYilpVv1w-74" value="" style="endArrow=none;html=1;rounded=0;exitX=0;exitY=0.5;exitDx=0;exitDy=0;entryX=1;entryY=0.5;entryDx=0;entryDy=0;" parent="1" source="h_ewbcy0oDdWf5_KwiLt-142" target="h_ewbcy0oDdWf5_KwiLt-27" edge="1">
          <mxGeometry relative="1" as="geometry">
            <mxPoint x="-290" y="-110" as="sourcePoint" />
            <mxPoint x="-130" y="-110" as="targetPoint" />
          </mxGeometry>
        </mxCell>
        <mxCell id="hNK54wSJh9bYYilpVv1w-75" value="" style="endArrow=none;html=1;rounded=0;exitX=0.25;exitY=0;exitDx=0;exitDy=0;entryX=0;entryY=1;entryDx=0;entryDy=0;" parent="1" source="h_ewbcy0oDdWf5_KwiLt-28" target="h_ewbcy0oDdWf5_KwiLt-126" edge="1">
          <mxGeometry relative="1" as="geometry">
            <mxPoint x="-430" y="-70" as="sourcePoint" />
            <mxPoint x="-270" y="-70" as="targetPoint" />
          </mxGeometry>
        </mxCell>
        <mxCell id="hNK54wSJh9bYYilpVv1w-76" value="" style="endArrow=none;html=1;rounded=0;entryX=0;entryY=0.5;entryDx=0;entryDy=0;exitX=0.5;exitY=0;exitDx=0;exitDy=0;" parent="1" source="h_ewbcy0oDdWf5_KwiLt-28" target="h_ewbcy0oDdWf5_KwiLt-123" edge="1">
          <mxGeometry relative="1" as="geometry">
            <mxPoint x="-430" y="-70" as="sourcePoint" />
            <mxPoint x="-270" y="-70" as="targetPoint" />
          </mxGeometry>
        </mxCell>
        <mxCell id="hNK54wSJh9bYYilpVv1w-77" value="" style="endArrow=none;html=1;rounded=0;exitX=0.5;exitY=0;exitDx=0;exitDy=0;entryX=0;entryY=0.5;entryDx=0;entryDy=0;" parent="1" source="h_ewbcy0oDdWf5_KwiLt-28" target="h_ewbcy0oDdWf5_KwiLt-122" edge="1">
          <mxGeometry relative="1" as="geometry">
            <mxPoint x="-430" y="-70" as="sourcePoint" />
            <mxPoint x="-270" y="-70" as="targetPoint" />
          </mxGeometry>
        </mxCell>
        <mxCell id="hNK54wSJh9bYYilpVv1w-78" value="Pk_TelefonosProveedor" style="ellipse;whiteSpace=wrap;html=1;align=center;fontStyle=4;" parent="1" vertex="1">
          <mxGeometry x="-805" y="-150" width="150" height="40" as="geometry" />
        </mxCell>
        <mxCell id="hNK54wSJh9bYYilpVv1w-79" value="" style="endArrow=none;html=1;rounded=0;exitX=0;exitY=1;exitDx=0;exitDy=0;entryX=0.25;entryY=0;entryDx=0;entryDy=0;" parent="1" source="hNK54wSJh9bYYilpVv1w-2" target="h_ewbcy0oDdWf5_KwiLt-28" edge="1">
          <mxGeometry relative="1" as="geometry">
            <mxPoint x="-490" y="-20" as="sourcePoint" />
            <mxPoint x="-330" y="-20" as="targetPoint" />
          </mxGeometry>
        </mxCell>
        <mxCell id="hNK54wSJh9bYYilpVv1w-80" value="" style="endArrow=none;html=1;rounded=0;exitX=0.5;exitY=1;exitDx=0;exitDy=0;entryX=0.5;entryY=0;entryDx=0;entryDy=0;" parent="1" source="hNK54wSJh9bYYilpVv1w-3" target="hNK54wSJh9bYYilpVv1w-1" edge="1">
          <mxGeometry relative="1" as="geometry">
            <mxPoint x="-610" y="-40" as="sourcePoint" />
            <mxPoint x="-450" y="-40" as="targetPoint" />
          </mxGeometry>
        </mxCell>
        <mxCell id="hNK54wSJh9bYYilpVv1w-81" value="" style="endArrow=none;html=1;rounded=0;exitX=0.5;exitY=1;exitDx=0;exitDy=0;entryX=0.25;entryY=0;entryDx=0;entryDy=0;" parent="1" source="hNK54wSJh9bYYilpVv1w-4" target="hNK54wSJh9bYYilpVv1w-1" edge="1">
          <mxGeometry relative="1" as="geometry">
            <mxPoint x="-610" y="-40" as="sourcePoint" />
            <mxPoint x="-450" y="-40" as="targetPoint" />
          </mxGeometry>
        </mxCell>
        <mxCell id="hNK54wSJh9bYYilpVv1w-82" value="" style="endArrow=none;html=1;rounded=0;exitX=1;exitY=1;exitDx=0;exitDy=0;entryX=0;entryY=0;entryDx=0;entryDy=0;" parent="1" source="hNK54wSJh9bYYilpVv1w-78" target="hNK54wSJh9bYYilpVv1w-1" edge="1">
          <mxGeometry relative="1" as="geometry">
            <mxPoint x="-610" y="-40" as="sourcePoint" />
            <mxPoint x="-450" y="-40" as="targetPoint" />
          </mxGeometry>
        </mxCell>
        <mxCell id="hNK54wSJh9bYYilpVv1w-86" style="edgeStyle=orthogonalEdgeStyle;rounded=0;orthogonalLoop=1;jettySize=auto;html=1;exitX=0.5;exitY=0;exitDx=0;exitDy=0;entryX=0.5;entryY=1;entryDx=0;entryDy=0;endArrow=none;endFill=0;" parent="1" source="hNK54wSJh9bYYilpVv1w-83" target="hNK54wSJh9bYYilpVv1w-1" edge="1">
          <mxGeometry relative="1" as="geometry" />
        </mxCell>
        <mxCell id="hNK54wSJh9bYYilpVv1w-83" value="Suministra" style="shape=rhombus;perimeter=rhombusPerimeter;whiteSpace=wrap;html=1;align=center;" parent="1" vertex="1">
          <mxGeometry x="-510" y="-20" width="70" height="60" as="geometry" />
        </mxCell>
        <mxCell id="hNK54wSJh9bYYilpVv1w-87" value="1" style="text;html=1;align=center;verticalAlign=middle;resizable=0;points=[];autosize=1;strokeColor=none;fillColor=none;" parent="1" vertex="1">
          <mxGeometry x="-480" y="30" width="30" height="30" as="geometry" />
        </mxCell>
        <mxCell id="hNK54wSJh9bYYilpVv1w-88" value="N" style="text;html=1;align=center;verticalAlign=middle;resizable=0;points=[];autosize=1;strokeColor=none;fillColor=none;" parent="1" vertex="1">
          <mxGeometry x="-480" y="-45" width="30" height="30" as="geometry" />
        </mxCell>
        <mxCell id="hNK54wSJh9bYYilpVv1w-89" value="" style="endArrow=none;html=1;rounded=0;entryX=0;entryY=0.75;entryDx=0;entryDy=0;" parent="1" source="h_ewbcy0oDdWf5_KwiLt-119" target="h_ewbcy0oDdWf5_KwiLt-29" edge="1">
          <mxGeometry relative="1" as="geometry">
            <mxPoint x="-590" y="180" as="sourcePoint" />
            <mxPoint x="-430" y="180" as="targetPoint" />
          </mxGeometry>
        </mxCell>
        <mxCell id="hNK54wSJh9bYYilpVv1w-90" value="" style="endArrow=none;html=1;rounded=0;exitX=1;exitY=1;exitDx=0;exitDy=0;entryX=0;entryY=0.5;entryDx=0;entryDy=0;" parent="1" source="h_ewbcy0oDdWf5_KwiLt-118" target="h_ewbcy0oDdWf5_KwiLt-29" edge="1">
          <mxGeometry relative="1" as="geometry">
            <mxPoint x="-590" y="180" as="sourcePoint" />
            <mxPoint x="-430" y="180" as="targetPoint" />
          </mxGeometry>
        </mxCell>
        <mxCell id="hNK54wSJh9bYYilpVv1w-91" value="" style="endArrow=none;html=1;rounded=0;exitX=0.5;exitY=1;exitDx=0;exitDy=0;entryX=0;entryY=0;entryDx=0;entryDy=0;" parent="1" source="h_ewbcy0oDdWf5_KwiLt-115" target="h_ewbcy0oDdWf5_KwiLt-29" edge="1">
          <mxGeometry relative="1" as="geometry">
            <mxPoint x="-590" y="180" as="sourcePoint" />
            <mxPoint x="-430" y="180" as="targetPoint" />
          </mxGeometry>
        </mxCell>
        <mxCell id="hNK54wSJh9bYYilpVv1w-92" value="" style="endArrow=none;html=1;rounded=0;exitX=0.5;exitY=0;exitDx=0;exitDy=0;entryX=0;entryY=0.5;entryDx=0;entryDy=0;" parent="1" source="h_ewbcy0oDdWf5_KwiLt-135" target="h_ewbcy0oDdWf5_KwiLt-31" edge="1">
          <mxGeometry relative="1" as="geometry">
            <mxPoint x="-590" y="380" as="sourcePoint" />
            <mxPoint x="-430" y="380" as="targetPoint" />
          </mxGeometry>
        </mxCell>
        <mxCell id="hNK54wSJh9bYYilpVv1w-93" value="" style="endArrow=none;html=1;rounded=0;exitX=1;exitY=0;exitDx=0;exitDy=0;entryX=0;entryY=0.5;entryDx=0;entryDy=0;" parent="1" source="h_ewbcy0oDdWf5_KwiLt-136" target="h_ewbcy0oDdWf5_KwiLt-31" edge="1">
          <mxGeometry relative="1" as="geometry">
            <mxPoint x="-590" y="380" as="sourcePoint" />
            <mxPoint x="-430" y="380" as="targetPoint" />
          </mxGeometry>
        </mxCell>
        <mxCell id="hNK54wSJh9bYYilpVv1w-94" value="" style="endArrow=none;html=1;rounded=0;exitX=1;exitY=0.5;exitDx=0;exitDy=0;entryX=0;entryY=0.5;entryDx=0;entryDy=0;" parent="1" source="h_ewbcy0oDdWf5_KwiLt-133" target="h_ewbcy0oDdWf5_KwiLt-31" edge="1">
          <mxGeometry relative="1" as="geometry">
            <mxPoint x="-590" y="380" as="sourcePoint" />
            <mxPoint x="-430" y="380" as="targetPoint" />
          </mxGeometry>
        </mxCell>
        <mxCell id="hNK54wSJh9bYYilpVv1w-95" value="" style="endArrow=none;html=1;rounded=0;exitX=1;exitY=1;exitDx=0;exitDy=0;entryX=0;entryY=0.25;entryDx=0;entryDy=0;" parent="1" source="h_ewbcy0oDdWf5_KwiLt-134" target="h_ewbcy0oDdWf5_KwiLt-31" edge="1">
          <mxGeometry relative="1" as="geometry">
            <mxPoint x="-590" y="380" as="sourcePoint" />
            <mxPoint x="-430" y="380" as="targetPoint" />
          </mxGeometry>
        </mxCell>
        <mxCell id="hNK54wSJh9bYYilpVv1w-96" value="" style="endArrow=none;html=1;rounded=0;exitX=0.5;exitY=1;exitDx=0;exitDy=0;entryX=0;entryY=0.25;entryDx=0;entryDy=0;" parent="1" source="h_ewbcy0oDdWf5_KwiLt-132" target="h_ewbcy0oDdWf5_KwiLt-31" edge="1">
          <mxGeometry relative="1" as="geometry">
            <mxPoint x="-590" y="380" as="sourcePoint" />
            <mxPoint x="-430" y="380" as="targetPoint" />
          </mxGeometry>
        </mxCell>
        <mxCell id="hNK54wSJh9bYYilpVv1w-97" value="" style="endArrow=none;html=1;rounded=0;exitX=0.5;exitY=0;exitDx=0;exitDy=0;entryX=0;entryY=1;entryDx=0;entryDy=0;" parent="1" source="h_ewbcy0oDdWf5_KwiLt-406" target="h_ewbcy0oDdWf5_KwiLt-45" edge="1">
          <mxGeometry relative="1" as="geometry">
            <mxPoint x="-740" y="410" as="sourcePoint" />
            <mxPoint x="-580" y="410" as="targetPoint" />
          </mxGeometry>
        </mxCell>
        <mxCell id="hNK54wSJh9bYYilpVv1w-98" value="" style="endArrow=none;html=1;rounded=0;exitX=1;exitY=0;exitDx=0;exitDy=0;entryX=0;entryY=1;entryDx=0;entryDy=0;" parent="1" source="h_ewbcy0oDdWf5_KwiLt-405" target="h_ewbcy0oDdWf5_KwiLt-45" edge="1">
          <mxGeometry relative="1" as="geometry">
            <mxPoint x="-740" y="410" as="sourcePoint" />
            <mxPoint x="-570" y="370" as="targetPoint" />
          </mxGeometry>
        </mxCell>
        <mxCell id="hNK54wSJh9bYYilpVv1w-99" value="" style="endArrow=none;html=1;rounded=0;exitX=1;exitY=0.5;exitDx=0;exitDy=0;entryX=0;entryY=1;entryDx=0;entryDy=0;" parent="1" source="h_ewbcy0oDdWf5_KwiLt-403" target="h_ewbcy0oDdWf5_KwiLt-45" edge="1">
          <mxGeometry relative="1" as="geometry">
            <mxPoint x="-740" y="410" as="sourcePoint" />
            <mxPoint x="-580" y="410" as="targetPoint" />
          </mxGeometry>
        </mxCell>
        <mxCell id="hNK54wSJh9bYYilpVv1w-100" value="" style="endArrow=none;html=1;rounded=0;exitX=0.5;exitY=1;exitDx=0;exitDy=0;entryX=0;entryY=1;entryDx=0;entryDy=0;" parent="1" source="h_ewbcy0oDdWf5_KwiLt-404" target="h_ewbcy0oDdWf5_KwiLt-45" edge="1">
          <mxGeometry relative="1" as="geometry">
            <mxPoint x="-740" y="410" as="sourcePoint" />
            <mxPoint x="-580" y="410" as="targetPoint" />
          </mxGeometry>
        </mxCell>
        <mxCell id="hNK54wSJh9bYYilpVv1w-101" value="" style="endArrow=none;html=1;rounded=0;exitX=1;exitY=1;exitDx=0;exitDy=0;entryX=0;entryY=1;entryDx=0;entryDy=0;" parent="1" source="h_ewbcy0oDdWf5_KwiLt-402" target="h_ewbcy0oDdWf5_KwiLt-45" edge="1">
          <mxGeometry relative="1" as="geometry">
            <mxPoint x="-740" y="410" as="sourcePoint" />
            <mxPoint x="-580" y="410" as="targetPoint" />
          </mxGeometry>
        </mxCell>
        <mxCell id="hNK54wSJh9bYYilpVv1w-106" value="" style="endArrow=none;html=1;rounded=0;exitX=0.5;exitY=0;exitDx=0;exitDy=0;" parent="1" source="h_ewbcy0oDdWf5_KwiLt-208" edge="1">
          <mxGeometry relative="1" as="geometry">
            <mxPoint x="-450" y="680" as="sourcePoint" />
            <mxPoint x="-440" y="590" as="targetPoint" />
          </mxGeometry>
        </mxCell>
        <mxCell id="hNK54wSJh9bYYilpVv1w-107" value="" style="endArrow=none;html=1;rounded=0;exitX=0.5;exitY=0;exitDx=0;exitDy=0;entryX=0;entryY=0.75;entryDx=0;entryDy=0;" parent="1" source="h_ewbcy0oDdWf5_KwiLt-207" target="h_ewbcy0oDdWf5_KwiLt-35" edge="1">
          <mxGeometry relative="1" as="geometry">
            <mxPoint x="-450" y="680" as="sourcePoint" />
            <mxPoint x="-290" y="680" as="targetPoint" />
          </mxGeometry>
        </mxCell>
        <mxCell id="hNK54wSJh9bYYilpVv1w-108" value="" style="endArrow=none;html=1;rounded=0;exitX=1;exitY=0;exitDx=0;exitDy=0;entryX=0;entryY=0.5;entryDx=0;entryDy=0;" parent="1" source="h_ewbcy0oDdWf5_KwiLt-231" target="h_ewbcy0oDdWf5_KwiLt-35" edge="1">
          <mxGeometry relative="1" as="geometry">
            <mxPoint x="-450" y="680" as="sourcePoint" />
            <mxPoint x="-290" y="680" as="targetPoint" />
          </mxGeometry>
        </mxCell>
        <mxCell id="hNK54wSJh9bYYilpVv1w-109" value="" style="endArrow=none;html=1;rounded=0;exitX=1;exitY=0.5;exitDx=0;exitDy=0;entryX=0;entryY=0.5;entryDx=0;entryDy=0;" parent="1" source="h_ewbcy0oDdWf5_KwiLt-205" target="h_ewbcy0oDdWf5_KwiLt-35" edge="1">
          <mxGeometry relative="1" as="geometry">
            <mxPoint x="-450" y="680" as="sourcePoint" />
            <mxPoint x="-290" y="680" as="targetPoint" />
          </mxGeometry>
        </mxCell>
        <mxCell id="hNK54wSJh9bYYilpVv1w-110" value="" style="endArrow=none;html=1;rounded=0;exitX=1;exitY=0.5;exitDx=0;exitDy=0;entryX=0;entryY=0.5;entryDx=0;entryDy=0;" parent="1" source="h_ewbcy0oDdWf5_KwiLt-203" target="h_ewbcy0oDdWf5_KwiLt-35" edge="1">
          <mxGeometry relative="1" as="geometry">
            <mxPoint x="-450" y="680" as="sourcePoint" />
            <mxPoint x="-290" y="680" as="targetPoint" />
          </mxGeometry>
        </mxCell>
        <mxCell id="hNK54wSJh9bYYilpVv1w-111" value="" style="endArrow=none;html=1;rounded=0;exitX=1;exitY=0.5;exitDx=0;exitDy=0;entryX=0;entryY=0.5;entryDx=0;entryDy=0;" parent="1" source="h_ewbcy0oDdWf5_KwiLt-202" target="h_ewbcy0oDdWf5_KwiLt-35" edge="1">
          <mxGeometry relative="1" as="geometry">
            <mxPoint x="-450" y="680" as="sourcePoint" />
            <mxPoint x="-290" y="680" as="targetPoint" />
          </mxGeometry>
        </mxCell>
        <mxCell id="hNK54wSJh9bYYilpVv1w-113" value="" style="endArrow=none;html=1;rounded=0;exitX=0.5;exitY=0;exitDx=0;exitDy=0;entryX=0;entryY=0.75;entryDx=0;entryDy=0;" parent="1" source="h_ewbcy0oDdWf5_KwiLt-395" target="h_ewbcy0oDdWf5_KwiLt-42" edge="1">
          <mxGeometry relative="1" as="geometry">
            <mxPoint x="-690" y="520" as="sourcePoint" />
            <mxPoint x="-530" y="520" as="targetPoint" />
          </mxGeometry>
        </mxCell>
        <mxCell id="hNK54wSJh9bYYilpVv1w-114" value="" style="endArrow=none;html=1;rounded=0;exitX=0.5;exitY=0;exitDx=0;exitDy=0;entryX=0;entryY=0.75;entryDx=0;entryDy=0;" parent="1" source="h_ewbcy0oDdWf5_KwiLt-396" target="h_ewbcy0oDdWf5_KwiLt-42" edge="1">
          <mxGeometry relative="1" as="geometry">
            <mxPoint x="-690" y="520" as="sourcePoint" />
            <mxPoint x="-530" y="520" as="targetPoint" />
          </mxGeometry>
        </mxCell>
        <mxCell id="hNK54wSJh9bYYilpVv1w-115" value="" style="endArrow=none;html=1;rounded=0;exitX=1;exitY=0.5;exitDx=0;exitDy=0;entryX=0;entryY=0.75;entryDx=0;entryDy=0;" parent="1" source="h_ewbcy0oDdWf5_KwiLt-394" target="h_ewbcy0oDdWf5_KwiLt-42" edge="1">
          <mxGeometry relative="1" as="geometry">
            <mxPoint x="-690" y="520" as="sourcePoint" />
            <mxPoint x="-530" y="520" as="targetPoint" />
          </mxGeometry>
        </mxCell>
        <mxCell id="hNK54wSJh9bYYilpVv1w-116" value="" style="endArrow=none;html=1;rounded=0;exitX=1;exitY=1;exitDx=0;exitDy=0;entryX=0;entryY=0.75;entryDx=0;entryDy=0;" parent="1" source="h_ewbcy0oDdWf5_KwiLt-393" target="h_ewbcy0oDdWf5_KwiLt-42" edge="1">
          <mxGeometry relative="1" as="geometry">
            <mxPoint x="-690" y="520" as="sourcePoint" />
            <mxPoint x="-530" y="520" as="targetPoint" />
          </mxGeometry>
        </mxCell>
        <mxCell id="hNK54wSJh9bYYilpVv1w-117" value="" style="endArrow=none;html=1;rounded=0;exitX=1;exitY=0.5;exitDx=0;exitDy=0;entryX=0;entryY=0.5;entryDx=0;entryDy=0;" parent="1" source="h_ewbcy0oDdWf5_KwiLt-392" target="h_ewbcy0oDdWf5_KwiLt-42" edge="1">
          <mxGeometry relative="1" as="geometry">
            <mxPoint x="-690" y="520" as="sourcePoint" />
            <mxPoint x="-530" y="520" as="targetPoint" />
          </mxGeometry>
        </mxCell>
        <mxCell id="hNK54wSJh9bYYilpVv1w-119" value="" style="endArrow=none;html=1;rounded=0;exitX=1;exitY=0.5;exitDx=0;exitDy=0;entryX=0;entryY=0.75;entryDx=0;entryDy=0;" parent="1" source="fs7uPyh7k5oqFPLGZ5jc-5" target="h_ewbcy0oDdWf5_KwiLt-34" edge="1">
          <mxGeometry relative="1" as="geometry">
            <mxPoint x="-1040" y="750" as="sourcePoint" />
            <mxPoint x="-880" y="750" as="targetPoint" />
          </mxGeometry>
        </mxCell>
        <mxCell id="hNK54wSJh9bYYilpVv1w-120" value="" style="endArrow=none;html=1;rounded=0;exitX=1;exitY=0.5;exitDx=0;exitDy=0;entryX=0;entryY=0.5;entryDx=0;entryDy=0;" parent="1" source="h_ewbcy0oDdWf5_KwiLt-368" target="h_ewbcy0oDdWf5_KwiLt-34" edge="1">
          <mxGeometry relative="1" as="geometry">
            <mxPoint x="-1040" y="750" as="sourcePoint" />
            <mxPoint x="-880" y="750" as="targetPoint" />
          </mxGeometry>
        </mxCell>
        <mxCell id="hNK54wSJh9bYYilpVv1w-121" value="" style="endArrow=none;html=1;rounded=0;exitX=1;exitY=1;exitDx=0;exitDy=0;entryX=0;entryY=0.25;entryDx=0;entryDy=0;" parent="1" source="h_ewbcy0oDdWf5_KwiLt-366" target="h_ewbcy0oDdWf5_KwiLt-34" edge="1">
          <mxGeometry relative="1" as="geometry">
            <mxPoint x="-1040" y="750" as="sourcePoint" />
            <mxPoint x="-880" y="750" as="targetPoint" />
          </mxGeometry>
        </mxCell>
        <mxCell id="hNK54wSJh9bYYilpVv1w-122" value="" style="endArrow=none;html=1;rounded=0;exitX=0.5;exitY=1;exitDx=0;exitDy=0;entryX=0;entryY=0;entryDx=0;entryDy=0;" parent="1" source="h_ewbcy0oDdWf5_KwiLt-367" target="h_ewbcy0oDdWf5_KwiLt-34" edge="1">
          <mxGeometry relative="1" as="geometry">
            <mxPoint x="-1040" y="750" as="sourcePoint" />
            <mxPoint x="-880" y="750" as="targetPoint" />
          </mxGeometry>
        </mxCell>
        <mxCell id="hNK54wSJh9bYYilpVv1w-123" value="" style="endArrow=none;html=1;rounded=0;exitX=0.5;exitY=1;exitDx=0;exitDy=0;entryX=0.25;entryY=0;entryDx=0;entryDy=0;" parent="1" source="h_ewbcy0oDdWf5_KwiLt-365" target="h_ewbcy0oDdWf5_KwiLt-34" edge="1">
          <mxGeometry relative="1" as="geometry">
            <mxPoint x="-1040" y="750" as="sourcePoint" />
            <mxPoint x="-880" y="750" as="targetPoint" />
          </mxGeometry>
        </mxCell>
        <mxCell id="hNK54wSJh9bYYilpVv1w-126" style="edgeStyle=orthogonalEdgeStyle;rounded=0;orthogonalLoop=1;jettySize=auto;html=1;exitX=0.5;exitY=1;exitDx=0;exitDy=0;entryX=1;entryY=0.5;entryDx=0;entryDy=0;endArrow=none;endFill=0;" parent="1" source="hNK54wSJh9bYYilpVv1w-124" target="hNK54wSJh9bYYilpVv1w-31" edge="1">
          <mxGeometry relative="1" as="geometry" />
        </mxCell>
        <mxCell id="hNK54wSJh9bYYilpVv1w-124" value="Tiene" style="shape=rhombus;perimeter=rhombusPerimeter;whiteSpace=wrap;html=1;align=center;" parent="1" vertex="1">
          <mxGeometry x="-725" y="1120" width="70" height="60" as="geometry" />
        </mxCell>
        <mxCell id="hNK54wSJh9bYYilpVv1w-125" style="edgeStyle=orthogonalEdgeStyle;rounded=0;orthogonalLoop=1;jettySize=auto;html=1;exitX=0.5;exitY=1;exitDx=0;exitDy=0;entryX=0.5;entryY=0;entryDx=0;entryDy=0;endArrow=none;endFill=0;" parent="1" source="h_ewbcy0oDdWf5_KwiLt-38" target="hNK54wSJh9bYYilpVv1w-124" edge="1">
          <mxGeometry relative="1" as="geometry">
            <Array as="points">
              <mxPoint x="-527" y="1120" />
              <mxPoint x="-690" y="1120" />
            </Array>
          </mxGeometry>
        </mxCell>
        <mxCell id="hNK54wSJh9bYYilpVv1w-127" value="1" style="text;html=1;align=center;verticalAlign=middle;resizable=0;points=[];autosize=1;strokeColor=none;fillColor=none;" parent="1" vertex="1">
          <mxGeometry x="-690" y="1170" width="30" height="30" as="geometry" />
        </mxCell>
        <mxCell id="hNK54wSJh9bYYilpVv1w-128" value="1" style="text;html=1;align=center;verticalAlign=middle;resizable=0;points=[];autosize=1;strokeColor=none;fillColor=none;" parent="1" vertex="1">
          <mxGeometry x="-695" y="1090" width="30" height="30" as="geometry" />
        </mxCell>
        <mxCell id="hNK54wSJh9bYYilpVv1w-130" value="Pk_DireccionEmpleado" style="ellipse;whiteSpace=wrap;html=1;align=center;fontStyle=4;" parent="1" vertex="1">
          <mxGeometry x="-980" y="1110" width="140" height="40" as="geometry" />
        </mxCell>
        <mxCell id="hNK54wSJh9bYYilpVv1w-131" value="" style="endArrow=none;html=1;rounded=0;exitX=0.5;exitY=1;exitDx=0;exitDy=0;entryX=0.5;entryY=0;entryDx=0;entryDy=0;" parent="1" source="hNK54wSJh9bYYilpVv1w-130" target="hNK54wSJh9bYYilpVv1w-31" edge="1">
          <mxGeometry relative="1" as="geometry">
            <mxPoint x="-600" y="1110" as="sourcePoint" />
            <mxPoint x="-440" y="1110" as="targetPoint" />
          </mxGeometry>
        </mxCell>
        <mxCell id="hNK54wSJh9bYYilpVv1w-132" value="Fk_Empleado" style="ellipse;whiteSpace=wrap;html=1;align=center;fontStyle=4;" parent="1" vertex="1">
          <mxGeometry x="-860" y="1240" width="100" height="40" as="geometry" />
        </mxCell>
        <mxCell id="hNK54wSJh9bYYilpVv1w-133" value="" style="endArrow=none;html=1;rounded=0;exitX=1;exitY=1;exitDx=0;exitDy=0;entryX=0;entryY=0.5;entryDx=0;entryDy=0;" parent="1" source="hNK54wSJh9bYYilpVv1w-31" target="hNK54wSJh9bYYilpVv1w-132" edge="1">
          <mxGeometry relative="1" as="geometry">
            <mxPoint x="-500" y="1110" as="sourcePoint" />
            <mxPoint x="-340" y="1110" as="targetPoint" />
          </mxGeometry>
        </mxCell>
        <mxCell id="hNK54wSJh9bYYilpVv1w-137" value="" style="endArrow=none;html=1;rounded=0;exitX=0.5;exitY=1;exitDx=0;exitDy=0;entryX=0.5;entryY=0;entryDx=0;entryDy=0;" parent="1" source="h_ewbcy0oDdWf5_KwiLt-30" target="h_ewbcy0oDdWf5_KwiLt-267" edge="1">
          <mxGeometry relative="1" as="geometry">
            <mxPoint x="50" y="550" as="sourcePoint" />
            <mxPoint x="210" y="550" as="targetPoint" />
          </mxGeometry>
        </mxCell>
        <mxCell id="hNK54wSJh9bYYilpVv1w-138" value="" style="endArrow=none;html=1;rounded=0;exitX=1;exitY=1;exitDx=0;exitDy=0;entryX=0;entryY=0;entryDx=0;entryDy=0;" parent="1" source="h_ewbcy0oDdWf5_KwiLt-30" target="h_ewbcy0oDdWf5_KwiLt-269" edge="1">
          <mxGeometry relative="1" as="geometry">
            <mxPoint x="50" y="550" as="sourcePoint" />
            <mxPoint x="210" y="550" as="targetPoint" />
          </mxGeometry>
        </mxCell>
        <mxCell id="hNK54wSJh9bYYilpVv1w-139" value="" style="endArrow=none;html=1;rounded=0;exitX=1;exitY=0.75;exitDx=0;exitDy=0;entryX=0;entryY=0;entryDx=0;entryDy=0;" parent="1" source="h_ewbcy0oDdWf5_KwiLt-30" target="h_ewbcy0oDdWf5_KwiLt-268" edge="1">
          <mxGeometry relative="1" as="geometry">
            <mxPoint x="50" y="550" as="sourcePoint" />
            <mxPoint x="210" y="550" as="targetPoint" />
          </mxGeometry>
        </mxCell>
        <mxCell id="hNK54wSJh9bYYilpVv1w-140" value="" style="endArrow=none;html=1;rounded=0;exitX=1;exitY=0.5;exitDx=0;exitDy=0;entryX=0;entryY=0.5;entryDx=0;entryDy=0;" parent="1" source="h_ewbcy0oDdWf5_KwiLt-30" target="h_ewbcy0oDdWf5_KwiLt-270" edge="1">
          <mxGeometry relative="1" as="geometry">
            <mxPoint x="50" y="550" as="sourcePoint" />
            <mxPoint x="210" y="550" as="targetPoint" />
          </mxGeometry>
        </mxCell>
        <mxCell id="hNK54wSJh9bYYilpVv1w-141" value="" style="endArrow=none;html=1;rounded=0;exitX=1;exitY=0.25;exitDx=0;exitDy=0;entryX=0;entryY=0.5;entryDx=0;entryDy=0;" parent="1" source="h_ewbcy0oDdWf5_KwiLt-30" target="h_ewbcy0oDdWf5_KwiLt-271" edge="1">
          <mxGeometry relative="1" as="geometry">
            <mxPoint x="50" y="550" as="sourcePoint" />
            <mxPoint x="210" y="550" as="targetPoint" />
          </mxGeometry>
        </mxCell>
        <mxCell id="hNK54wSJh9bYYilpVv1w-142" value="" style="endArrow=none;html=1;rounded=0;exitX=1;exitY=0;exitDx=0;exitDy=0;entryX=0.5;entryY=1;entryDx=0;entryDy=0;" parent="1" source="h_ewbcy0oDdWf5_KwiLt-30" target="h_ewbcy0oDdWf5_KwiLt-272" edge="1">
          <mxGeometry relative="1" as="geometry">
            <mxPoint x="50" y="550" as="sourcePoint" />
            <mxPoint x="210" y="550" as="targetPoint" />
          </mxGeometry>
        </mxCell>
        <mxCell id="hNK54wSJh9bYYilpVv1w-146" value="" style="endArrow=none;html=1;rounded=0;entryX=0.5;entryY=0;entryDx=0;entryDy=0;exitX=1;exitY=0.75;exitDx=0;exitDy=0;" parent="1" source="h_ewbcy0oDdWf5_KwiLt-44" target="fs7uPyh7k5oqFPLGZ5jc-17" edge="1">
          <mxGeometry relative="1" as="geometry">
            <mxPoint x="210" y="390" as="sourcePoint" />
            <mxPoint x="370" y="390" as="targetPoint" />
          </mxGeometry>
        </mxCell>
        <mxCell id="hNK54wSJh9bYYilpVv1w-147" value="" style="endArrow=none;html=1;rounded=0;exitX=1;exitY=0.5;exitDx=0;exitDy=0;entryX=0;entryY=0.5;entryDx=0;entryDy=0;" parent="1" source="h_ewbcy0oDdWf5_KwiLt-44" target="fs7uPyh7k5oqFPLGZ5jc-16" edge="1">
          <mxGeometry relative="1" as="geometry">
            <mxPoint x="210" y="390" as="sourcePoint" />
            <mxPoint x="370" y="390" as="targetPoint" />
          </mxGeometry>
        </mxCell>
        <mxCell id="hNK54wSJh9bYYilpVv1w-148" value="" style="endArrow=none;html=1;rounded=0;exitX=1;exitY=0.25;exitDx=0;exitDy=0;entryX=0.5;entryY=1;entryDx=0;entryDy=0;" parent="1" source="h_ewbcy0oDdWf5_KwiLt-44" target="fs7uPyh7k5oqFPLGZ5jc-15" edge="1">
          <mxGeometry relative="1" as="geometry">
            <mxPoint x="210" y="390" as="sourcePoint" />
            <mxPoint x="370" y="390" as="targetPoint" />
          </mxGeometry>
        </mxCell>
        <mxCell id="hNK54wSJh9bYYilpVv1w-150" value="" style="endArrow=none;html=1;rounded=0;exitX=1;exitY=0.75;exitDx=0;exitDy=0;entryX=0;entryY=0;entryDx=0;entryDy=0;" parent="1" source="h_ewbcy0oDdWf5_KwiLt-24" target="h_ewbcy0oDdWf5_KwiLt-106" edge="1">
          <mxGeometry relative="1" as="geometry">
            <mxPoint x="160" y="340" as="sourcePoint" />
            <mxPoint x="320" y="340" as="targetPoint" />
          </mxGeometry>
        </mxCell>
        <mxCell id="hNK54wSJh9bYYilpVv1w-151" value="" style="endArrow=none;html=1;rounded=0;exitX=1;exitY=0.75;exitDx=0;exitDy=0;entryX=0;entryY=0;entryDx=0;entryDy=0;" parent="1" source="h_ewbcy0oDdWf5_KwiLt-24" target="h_ewbcy0oDdWf5_KwiLt-107" edge="1">
          <mxGeometry relative="1" as="geometry">
            <mxPoint x="160" y="340" as="sourcePoint" />
            <mxPoint x="320" y="340" as="targetPoint" />
          </mxGeometry>
        </mxCell>
        <mxCell id="hNK54wSJh9bYYilpVv1w-152" value="" style="endArrow=none;html=1;rounded=0;exitX=1;exitY=0.75;exitDx=0;exitDy=0;entryX=0.5;entryY=0;entryDx=0;entryDy=0;" parent="1" source="h_ewbcy0oDdWf5_KwiLt-24" target="fs7uPyh7k5oqFPLGZ5jc-1" edge="1">
          <mxGeometry relative="1" as="geometry">
            <mxPoint x="160" y="340" as="sourcePoint" />
            <mxPoint x="320" y="340" as="targetPoint" />
          </mxGeometry>
        </mxCell>
        <mxCell id="hNK54wSJh9bYYilpVv1w-153" value="" style="endArrow=none;html=1;rounded=0;exitX=1;exitY=0.75;exitDx=0;exitDy=0;entryX=0;entryY=0.5;entryDx=0;entryDy=0;" parent="1" source="h_ewbcy0oDdWf5_KwiLt-24" target="h_ewbcy0oDdWf5_KwiLt-105" edge="1">
          <mxGeometry relative="1" as="geometry">
            <mxPoint x="160" y="340" as="sourcePoint" />
            <mxPoint x="320" y="340" as="targetPoint" />
          </mxGeometry>
        </mxCell>
        <mxCell id="hNK54wSJh9bYYilpVv1w-154" value="" style="endArrow=none;html=1;rounded=0;exitX=1;exitY=0.75;exitDx=0;exitDy=0;entryX=0;entryY=1;entryDx=0;entryDy=0;" parent="1" source="h_ewbcy0oDdWf5_KwiLt-24" target="h_ewbcy0oDdWf5_KwiLt-104" edge="1">
          <mxGeometry relative="1" as="geometry">
            <mxPoint x="160" y="340" as="sourcePoint" />
            <mxPoint x="320" y="340" as="targetPoint" />
          </mxGeometry>
        </mxCell>
        <mxCell id="hNK54wSJh9bYYilpVv1w-155" value="" style="endArrow=none;html=1;rounded=0;exitX=1;exitY=0.25;exitDx=0;exitDy=0;entryX=0;entryY=0.5;entryDx=0;entryDy=0;" parent="1" source="h_ewbcy0oDdWf5_KwiLt-24" target="h_ewbcy0oDdWf5_KwiLt-103" edge="1">
          <mxGeometry relative="1" as="geometry">
            <mxPoint x="160" y="340" as="sourcePoint" />
            <mxPoint x="320" y="340" as="targetPoint" />
          </mxGeometry>
        </mxCell>
        <mxCell id="hNK54wSJh9bYYilpVv1w-156" value="" style="endArrow=none;html=1;rounded=0;exitX=1;exitY=0.25;exitDx=0;exitDy=0;entryX=0;entryY=1;entryDx=0;entryDy=0;" parent="1" source="h_ewbcy0oDdWf5_KwiLt-24" target="h_ewbcy0oDdWf5_KwiLt-102" edge="1">
          <mxGeometry relative="1" as="geometry">
            <mxPoint x="160" y="340" as="sourcePoint" />
            <mxPoint x="320" y="340" as="targetPoint" />
          </mxGeometry>
        </mxCell>
        <mxCell id="hNK54wSJh9bYYilpVv1w-158" value="" style="endArrow=none;html=1;rounded=0;exitX=1;exitY=0.5;exitDx=0;exitDy=0;entryX=0;entryY=0.5;entryDx=0;entryDy=0;" parent="1" source="h_ewbcy0oDdWf5_KwiLt-36" target="h_ewbcy0oDdWf5_KwiLt-285" edge="1">
          <mxGeometry relative="1" as="geometry">
            <mxPoint y="650" as="sourcePoint" />
            <mxPoint x="160" y="650" as="targetPoint" />
          </mxGeometry>
        </mxCell>
        <mxCell id="hNK54wSJh9bYYilpVv1w-159" value="" style="endArrow=none;html=1;rounded=0;exitX=1;exitY=0.5;exitDx=0;exitDy=0;entryX=0;entryY=0;entryDx=0;entryDy=0;" parent="1" source="h_ewbcy0oDdWf5_KwiLt-36" target="h_ewbcy0oDdWf5_KwiLt-280" edge="1">
          <mxGeometry relative="1" as="geometry">
            <mxPoint y="650" as="sourcePoint" />
            <mxPoint x="160" y="650" as="targetPoint" />
          </mxGeometry>
        </mxCell>
        <mxCell id="hNK54wSJh9bYYilpVv1w-160" value="" style="endArrow=none;html=1;rounded=0;exitX=0;exitY=0;exitDx=0;exitDy=0;entryX=1;entryY=0.75;entryDx=0;entryDy=0;" parent="1" source="h_ewbcy0oDdWf5_KwiLt-281" target="h_ewbcy0oDdWf5_KwiLt-36" edge="1">
          <mxGeometry relative="1" as="geometry">
            <mxPoint y="650" as="sourcePoint" />
            <mxPoint x="160" y="650" as="targetPoint" />
          </mxGeometry>
        </mxCell>
        <mxCell id="hNK54wSJh9bYYilpVv1w-161" value="" style="endArrow=none;html=1;rounded=0;exitX=0.5;exitY=0;exitDx=0;exitDy=0;entryX=1;entryY=0.75;entryDx=0;entryDy=0;" parent="1" source="h_ewbcy0oDdWf5_KwiLt-279" target="h_ewbcy0oDdWf5_KwiLt-36" edge="1">
          <mxGeometry relative="1" as="geometry">
            <mxPoint y="650" as="sourcePoint" />
            <mxPoint x="160" y="650" as="targetPoint" />
          </mxGeometry>
        </mxCell>
        <mxCell id="hNK54wSJh9bYYilpVv1w-162" value="" style="endArrow=none;html=1;rounded=0;exitX=0;exitY=1;exitDx=0;exitDy=0;entryX=1;entryY=0.5;entryDx=0;entryDy=0;" parent="1" source="h_ewbcy0oDdWf5_KwiLt-284" target="h_ewbcy0oDdWf5_KwiLt-36" edge="1">
          <mxGeometry relative="1" as="geometry">
            <mxPoint y="650" as="sourcePoint" />
            <mxPoint x="160" y="650" as="targetPoint" />
          </mxGeometry>
        </mxCell>
        <mxCell id="hNK54wSJh9bYYilpVv1w-163" value="" style="endArrow=none;html=1;rounded=0;exitX=0;exitY=1;exitDx=0;exitDy=0;entryX=1;entryY=0.25;entryDx=0;entryDy=0;" parent="1" source="h_ewbcy0oDdWf5_KwiLt-283" target="h_ewbcy0oDdWf5_KwiLt-36" edge="1">
          <mxGeometry relative="1" as="geometry">
            <mxPoint y="650" as="sourcePoint" />
            <mxPoint x="160" y="650" as="targetPoint" />
          </mxGeometry>
        </mxCell>
        <mxCell id="hNK54wSJh9bYYilpVv1w-164" value="" style="endArrow=none;html=1;rounded=0;exitX=0.5;exitY=1;exitDx=0;exitDy=0;entryX=1;entryY=0.25;entryDx=0;entryDy=0;" parent="1" source="h_ewbcy0oDdWf5_KwiLt-282" target="h_ewbcy0oDdWf5_KwiLt-36" edge="1">
          <mxGeometry relative="1" as="geometry">
            <mxPoint y="650" as="sourcePoint" />
            <mxPoint x="160" y="650" as="targetPoint" />
          </mxGeometry>
        </mxCell>
        <mxCell id="hNK54wSJh9bYYilpVv1w-168" value="" style="endArrow=none;html=1;rounded=0;exitX=1;exitY=0.75;exitDx=0;exitDy=0;entryX=0;entryY=0;entryDx=0;entryDy=0;" parent="1" source="h_ewbcy0oDdWf5_KwiLt-37" target="0WUyaa3dZcGhLMTYsMIW-38" edge="1">
          <mxGeometry relative="1" as="geometry">
            <mxPoint x="40" y="970" as="sourcePoint" />
            <mxPoint x="-5.213065775235009" y="1095.8011831551476" as="targetPoint" />
          </mxGeometry>
        </mxCell>
        <mxCell id="hNK54wSJh9bYYilpVv1w-170" value="" style="endArrow=none;html=1;rounded=0;exitX=1;exitY=0.75;exitDx=0;exitDy=0;entryX=0;entryY=0.5;entryDx=0;entryDy=0;" parent="1" source="h_ewbcy0oDdWf5_KwiLt-37" target="BDGe2pvycLrmD5JStkKG-4" edge="1">
          <mxGeometry relative="1" as="geometry">
            <mxPoint x="40" y="970" as="sourcePoint" />
            <mxPoint x="200" y="970" as="targetPoint" />
          </mxGeometry>
        </mxCell>
        <mxCell id="hNK54wSJh9bYYilpVv1w-171" value="" style="endArrow=none;html=1;rounded=0;exitX=1;exitY=0.5;exitDx=0;exitDy=0;entryX=0;entryY=0.5;entryDx=0;entryDy=0;" parent="1" source="h_ewbcy0oDdWf5_KwiLt-37" target="h_ewbcy0oDdWf5_KwiLt-296" edge="1">
          <mxGeometry relative="1" as="geometry">
            <mxPoint x="40" y="970" as="sourcePoint" />
            <mxPoint x="200" y="970" as="targetPoint" />
          </mxGeometry>
        </mxCell>
        <mxCell id="hNK54wSJh9bYYilpVv1w-172" value="" style="endArrow=none;html=1;rounded=0;exitX=1;exitY=0.25;exitDx=0;exitDy=0;entryX=0;entryY=1;entryDx=0;entryDy=0;" parent="1" source="h_ewbcy0oDdWf5_KwiLt-37" target="h_ewbcy0oDdWf5_KwiLt-295" edge="1">
          <mxGeometry relative="1" as="geometry">
            <mxPoint x="40" y="970" as="sourcePoint" />
            <mxPoint x="200" y="970" as="targetPoint" />
          </mxGeometry>
        </mxCell>
        <mxCell id="hNK54wSJh9bYYilpVv1w-173" value="" style="endArrow=none;html=1;rounded=0;exitX=1;exitY=0.25;exitDx=0;exitDy=0;entryX=0;entryY=1;entryDx=0;entryDy=0;" parent="1" source="h_ewbcy0oDdWf5_KwiLt-37" target="h_ewbcy0oDdWf5_KwiLt-293" edge="1">
          <mxGeometry relative="1" as="geometry">
            <mxPoint x="40" y="970" as="sourcePoint" />
            <mxPoint x="200" y="970" as="targetPoint" />
          </mxGeometry>
        </mxCell>
        <mxCell id="hNK54wSJh9bYYilpVv1w-174" value="" style="endArrow=none;html=1;rounded=0;exitX=1;exitY=0.75;exitDx=0;exitDy=0;entryX=0;entryY=0;entryDx=0;entryDy=0;" parent="1" source="h_ewbcy0oDdWf5_KwiLt-37" target="h_ewbcy0oDdWf5_KwiLt-298" edge="1">
          <mxGeometry relative="1" as="geometry">
            <mxPoint x="40" y="970" as="sourcePoint" />
            <mxPoint x="200" y="970" as="targetPoint" />
          </mxGeometry>
        </mxCell>
        <mxCell id="hNK54wSJh9bYYilpVv1w-175" value="DireccionCliente" style="whiteSpace=wrap;html=1;align=center;" parent="1" vertex="1">
          <mxGeometry x="145" y="1210" width="100" height="40" as="geometry" />
        </mxCell>
        <mxCell id="hNK54wSJh9bYYilpVv1w-179" style="edgeStyle=orthogonalEdgeStyle;rounded=0;orthogonalLoop=1;jettySize=auto;html=1;exitX=0.5;exitY=1;exitDx=0;exitDy=0;entryX=0;entryY=0.5;entryDx=0;entryDy=0;endArrow=none;endFill=0;" parent="1" source="hNK54wSJh9bYYilpVv1w-176" target="hNK54wSJh9bYYilpVv1w-175" edge="1">
          <mxGeometry relative="1" as="geometry" />
        </mxCell>
        <mxCell id="hNK54wSJh9bYYilpVv1w-176" value="Tiene" style="shape=rhombus;perimeter=rhombusPerimeter;whiteSpace=wrap;html=1;align=center;" parent="1" vertex="1">
          <mxGeometry x="-65" y="1150" width="70" height="60" as="geometry" />
        </mxCell>
        <mxCell id="hNK54wSJh9bYYilpVv1w-180" value="1" style="text;html=1;align=center;verticalAlign=middle;resizable=0;points=[];autosize=1;strokeColor=none;fillColor=none;" parent="1" vertex="1">
          <mxGeometry x="-85" y="1139" width="30" height="30" as="geometry" />
        </mxCell>
        <mxCell id="hNK54wSJh9bYYilpVv1w-181" value="1" style="text;html=1;align=center;verticalAlign=middle;resizable=0;points=[];autosize=1;strokeColor=none;fillColor=none;" parent="1" vertex="1">
          <mxGeometry x="-65" y="1200" width="30" height="30" as="geometry" />
        </mxCell>
        <mxCell id="hNK54wSJh9bYYilpVv1w-182" value="Pk_DireccionCliente" style="ellipse;whiteSpace=wrap;html=1;align=center;fontStyle=4;" parent="1" vertex="1">
          <mxGeometry x="5" y="1295" width="130" height="50" as="geometry" />
        </mxCell>
        <mxCell id="hNK54wSJh9bYYilpVv1w-183" value="Fk_Cliente" style="ellipse;whiteSpace=wrap;html=1;align=center;fontStyle=4;" parent="1" vertex="1">
          <mxGeometry x="130" y="1320" width="100" height="40" as="geometry" />
        </mxCell>
        <mxCell id="hNK54wSJh9bYYilpVv1w-185" value="" style="endArrow=none;html=1;rounded=0;exitX=0.5;exitY=1;exitDx=0;exitDy=0;entryX=0.5;entryY=0;entryDx=0;entryDy=0;" parent="1" source="hNK54wSJh9bYYilpVv1w-175" target="hNK54wSJh9bYYilpVv1w-182" edge="1">
          <mxGeometry relative="1" as="geometry">
            <mxPoint x="80" y="1000" as="sourcePoint" />
            <mxPoint x="240" y="1000" as="targetPoint" />
          </mxGeometry>
        </mxCell>
        <mxCell id="hNK54wSJh9bYYilpVv1w-186" value="" style="endArrow=none;html=1;rounded=0;exitX=0.75;exitY=1;exitDx=0;exitDy=0;entryX=0.5;entryY=0;entryDx=0;entryDy=0;" parent="1" source="hNK54wSJh9bYYilpVv1w-175" target="hNK54wSJh9bYYilpVv1w-183" edge="1">
          <mxGeometry relative="1" as="geometry">
            <mxPoint x="80" y="1000" as="sourcePoint" />
            <mxPoint x="240" y="1000" as="targetPoint" />
          </mxGeometry>
        </mxCell>
        <mxCell id="hNK54wSJh9bYYilpVv1w-203" value="1" style="text;html=1;align=center;verticalAlign=middle;resizable=0;points=[];autosize=1;strokeColor=none;fillColor=none;" parent="1" vertex="1">
          <mxGeometry x="55" y="530" width="30" height="30" as="geometry" />
        </mxCell>
        <mxCell id="hNK54wSJh9bYYilpVv1w-204" value="N" style="text;html=1;align=center;verticalAlign=middle;resizable=0;points=[];autosize=1;strokeColor=none;fillColor=none;" parent="1" vertex="1">
          <mxGeometry x="-20" y="530" width="30" height="30" as="geometry" />
        </mxCell>
        <mxCell id="hNK54wSJh9bYYilpVv1w-205" value="Fk_MetodoDePago" style="ellipse;whiteSpace=wrap;html=1;align=center;fontStyle=4;" parent="1" vertex="1">
          <mxGeometry x="175" y="505" width="120" height="40" as="geometry" />
        </mxCell>
        <mxCell id="hNK54wSJh9bYYilpVv1w-206" value="" style="endArrow=none;html=1;rounded=0;exitX=0.75;exitY=0;exitDx=0;exitDy=0;entryX=0.5;entryY=1;entryDx=0;entryDy=0;" parent="1" source="h_ewbcy0oDdWf5_KwiLt-30" target="hNK54wSJh9bYYilpVv1w-205" edge="1">
          <mxGeometry relative="1" as="geometry">
            <mxPoint x="120" y="570" as="sourcePoint" />
            <mxPoint x="280" y="570" as="targetPoint" />
          </mxGeometry>
        </mxCell>
        <mxCell id="hNK54wSJh9bYYilpVv1w-210" value="Fk_MetodoDePago" style="ellipse;whiteSpace=wrap;html=1;align=center;fontStyle=4;" parent="1" vertex="1">
          <mxGeometry x="-470" y="193" width="120" height="40" as="geometry" />
        </mxCell>
        <mxCell id="hNK54wSJh9bYYilpVv1w-211" value="" style="endArrow=none;html=1;rounded=0;exitX=0;exitY=1;exitDx=0;exitDy=0;entryX=0.25;entryY=0;entryDx=0;entryDy=0;" parent="1" source="hNK54wSJh9bYYilpVv1w-210" target="h_ewbcy0oDdWf5_KwiLt-31" edge="1">
          <mxGeometry relative="1" as="geometry">
            <mxPoint x="-460" y="410" as="sourcePoint" />
            <mxPoint x="-300" y="410" as="targetPoint" />
          </mxGeometry>
        </mxCell>
        <mxCell id="hNK54wSJh9bYYilpVv1w-214" style="edgeStyle=orthogonalEdgeStyle;rounded=0;orthogonalLoop=1;jettySize=auto;html=1;exitX=0.5;exitY=1;exitDx=0;exitDy=0;entryX=0;entryY=0.5;entryDx=0;entryDy=0;endArrow=none;endFill=0;" parent="1" source="hNK54wSJh9bYYilpVv1w-213" target="h_ewbcy0oDdWf5_KwiLt-39" edge="1">
          <mxGeometry relative="1" as="geometry" />
        </mxCell>
        <mxCell id="hNK54wSJh9bYYilpVv1w-215" style="edgeStyle=orthogonalEdgeStyle;rounded=0;orthogonalLoop=1;jettySize=auto;html=1;exitX=0.5;exitY=0;exitDx=0;exitDy=0;endArrow=none;endFill=0;" parent="1" source="hNK54wSJh9bYYilpVv1w-213" edge="1">
          <mxGeometry relative="1" as="geometry">
            <mxPoint x="-380" y="290" as="targetPoint" />
            <Array as="points">
              <mxPoint x="-225" y="420" />
              <mxPoint x="-380" y="420" />
            </Array>
          </mxGeometry>
        </mxCell>
        <mxCell id="hNK54wSJh9bYYilpVv1w-213" value="Tiene" style="shape=rhombus;perimeter=rhombusPerimeter;whiteSpace=wrap;html=1;align=center;" parent="1" vertex="1">
          <mxGeometry x="-260" y="440" width="70" height="60" as="geometry" />
        </mxCell>
        <mxCell id="hNK54wSJh9bYYilpVv1w-220" value="N" style="text;html=1;align=center;verticalAlign=middle;resizable=0;points=[];autosize=1;strokeColor=none;fillColor=none;" parent="1" vertex="1">
          <mxGeometry x="-230" y="415" width="30" height="30" as="geometry" />
        </mxCell>
        <mxCell id="hNK54wSJh9bYYilpVv1w-221" value="1" style="text;html=1;align=center;verticalAlign=middle;resizable=0;points=[];autosize=1;strokeColor=none;fillColor=none;" parent="1" vertex="1">
          <mxGeometry x="-230" y="490" width="30" height="30" as="geometry" />
        </mxCell>
        <mxCell id="0WUyaa3dZcGhLMTYsMIW-1" value="DireccionProveedor" style="whiteSpace=wrap;html=1;align=center;" vertex="1" parent="1">
          <mxGeometry x="-495" y="-280" width="110" height="40" as="geometry" />
        </mxCell>
        <mxCell id="0WUyaa3dZcGhLMTYsMIW-5" style="edgeStyle=orthogonalEdgeStyle;rounded=0;orthogonalLoop=1;jettySize=auto;html=1;exitX=0.5;exitY=0;exitDx=0;exitDy=0;entryX=0.5;entryY=1;entryDx=0;entryDy=0;endArrow=none;endFill=0;" edge="1" parent="1" source="0WUyaa3dZcGhLMTYsMIW-2" target="0WUyaa3dZcGhLMTYsMIW-1">
          <mxGeometry relative="1" as="geometry" />
        </mxCell>
        <mxCell id="0WUyaa3dZcGhLMTYsMIW-2" value="Tiene" style="shape=rhombus;perimeter=rhombusPerimeter;whiteSpace=wrap;html=1;align=center;" vertex="1" parent="1">
          <mxGeometry x="-475" y="-165" width="70" height="60" as="geometry" />
        </mxCell>
        <mxCell id="0WUyaa3dZcGhLMTYsMIW-6" value="1" style="text;html=1;align=center;verticalAlign=middle;resizable=0;points=[];autosize=1;strokeColor=none;fillColor=none;" vertex="1" parent="1">
          <mxGeometry x="-444" y="-110" width="30" height="30" as="geometry" />
        </mxCell>
        <mxCell id="0WUyaa3dZcGhLMTYsMIW-7" value="1" style="text;html=1;align=center;verticalAlign=middle;resizable=0;points=[];autosize=1;strokeColor=none;fillColor=none;" vertex="1" parent="1">
          <mxGeometry x="-440" y="-185" width="30" height="30" as="geometry" />
        </mxCell>
        <mxCell id="0WUyaa3dZcGhLMTYsMIW-8" value="Calle" style="ellipse;whiteSpace=wrap;html=1;align=center;" vertex="1" parent="1">
          <mxGeometry x="-632.5" y="-380" width="100" height="40" as="geometry" />
        </mxCell>
        <mxCell id="0WUyaa3dZcGhLMTYsMIW-9" value="Colonia" style="ellipse;whiteSpace=wrap;html=1;align=center;" vertex="1" parent="1">
          <mxGeometry x="-615" y="-440" width="100" height="40" as="geometry" />
        </mxCell>
        <mxCell id="0WUyaa3dZcGhLMTYsMIW-10" value="CP" style="ellipse;whiteSpace=wrap;html=1;align=center;" vertex="1" parent="1">
          <mxGeometry x="-550" y="-550" width="100" height="40" as="geometry" />
        </mxCell>
        <mxCell id="0WUyaa3dZcGhLMTYsMIW-11" value="Estado" style="ellipse;whiteSpace=wrap;html=1;align=center;" vertex="1" parent="1">
          <mxGeometry x="-597.5" y="-500" width="100" height="40" as="geometry" />
        </mxCell>
        <mxCell id="0WUyaa3dZcGhLMTYsMIW-12" value="Ciudad" style="ellipse;whiteSpace=wrap;html=1;align=center;" vertex="1" parent="1">
          <mxGeometry x="-395" y="-470" width="100" height="40" as="geometry" />
        </mxCell>
        <mxCell id="0WUyaa3dZcGhLMTYsMIW-13" value="NumExterior" style="ellipse;whiteSpace=wrap;html=1;align=center;" vertex="1" parent="1">
          <mxGeometry x="-470" y="-590" width="100" height="40" as="geometry" />
        </mxCell>
        <mxCell id="0WUyaa3dZcGhLMTYsMIW-14" value="NumInterior" style="ellipse;whiteSpace=wrap;html=1;align=center;" vertex="1" parent="1">
          <mxGeometry x="-417.5" y="-530" width="100" height="40" as="geometry" />
        </mxCell>
        <mxCell id="0WUyaa3dZcGhLMTYsMIW-15" value="Fk_Proveedor" style="ellipse;whiteSpace=wrap;html=1;align=center;fontStyle=4;" vertex="1" parent="1">
          <mxGeometry x="-405" y="-410" width="100" height="40" as="geometry" />
        </mxCell>
        <mxCell id="0WUyaa3dZcGhLMTYsMIW-16" value="Pk_DireccionProveedor" style="ellipse;whiteSpace=wrap;html=1;align=center;fontStyle=4;" vertex="1" parent="1">
          <mxGeometry x="-665" y="-320" width="140" height="40" as="geometry" />
        </mxCell>
        <mxCell id="0WUyaa3dZcGhLMTYsMIW-18" value="" style="endArrow=none;html=1;rounded=0;entryX=0;entryY=0.5;entryDx=0;entryDy=0;exitX=0.25;exitY=0;exitDx=0;exitDy=0;" edge="1" parent="1" source="0WUyaa3dZcGhLMTYsMIW-1" target="0WUyaa3dZcGhLMTYsMIW-15">
          <mxGeometry relative="1" as="geometry">
            <mxPoint x="-550" y="-390" as="sourcePoint" />
            <mxPoint x="-390" y="-390" as="targetPoint" />
          </mxGeometry>
        </mxCell>
        <mxCell id="0WUyaa3dZcGhLMTYsMIW-19" value="" style="endArrow=none;html=1;rounded=0;exitX=0;exitY=0.5;exitDx=0;exitDy=0;entryX=0.25;entryY=0;entryDx=0;entryDy=0;" edge="1" parent="1" source="0WUyaa3dZcGhLMTYsMIW-12" target="0WUyaa3dZcGhLMTYsMIW-1">
          <mxGeometry relative="1" as="geometry">
            <mxPoint x="-550" y="-390" as="sourcePoint" />
            <mxPoint x="-390" y="-390" as="targetPoint" />
          </mxGeometry>
        </mxCell>
        <mxCell id="0WUyaa3dZcGhLMTYsMIW-20" value="" style="endArrow=none;html=1;rounded=0;entryX=0;entryY=1;entryDx=0;entryDy=0;exitX=0.25;exitY=0;exitDx=0;exitDy=0;" edge="1" parent="1" source="0WUyaa3dZcGhLMTYsMIW-1" target="0WUyaa3dZcGhLMTYsMIW-14">
          <mxGeometry relative="1" as="geometry">
            <mxPoint x="-550" y="-390" as="sourcePoint" />
            <mxPoint x="-390" y="-390" as="targetPoint" />
          </mxGeometry>
        </mxCell>
        <mxCell id="0WUyaa3dZcGhLMTYsMIW-21" value="" style="endArrow=none;html=1;rounded=0;exitX=0.5;exitY=1;exitDx=0;exitDy=0;entryX=0.25;entryY=0;entryDx=0;entryDy=0;" edge="1" parent="1" source="0WUyaa3dZcGhLMTYsMIW-13" target="0WUyaa3dZcGhLMTYsMIW-1">
          <mxGeometry relative="1" as="geometry">
            <mxPoint x="-550" y="-390" as="sourcePoint" />
            <mxPoint x="-390" y="-390" as="targetPoint" />
          </mxGeometry>
        </mxCell>
        <mxCell id="0WUyaa3dZcGhLMTYsMIW-22" value="" style="endArrow=none;html=1;rounded=0;exitX=1;exitY=1;exitDx=0;exitDy=0;entryX=0.25;entryY=0;entryDx=0;entryDy=0;" edge="1" parent="1" source="0WUyaa3dZcGhLMTYsMIW-10" target="0WUyaa3dZcGhLMTYsMIW-1">
          <mxGeometry relative="1" as="geometry">
            <mxPoint x="-550" y="-390" as="sourcePoint" />
            <mxPoint x="-390" y="-390" as="targetPoint" />
          </mxGeometry>
        </mxCell>
        <mxCell id="0WUyaa3dZcGhLMTYsMIW-23" value="" style="endArrow=none;html=1;rounded=0;exitX=1;exitY=0.5;exitDx=0;exitDy=0;entryX=0.25;entryY=0;entryDx=0;entryDy=0;" edge="1" parent="1" source="0WUyaa3dZcGhLMTYsMIW-11" target="0WUyaa3dZcGhLMTYsMIW-1">
          <mxGeometry relative="1" as="geometry">
            <mxPoint x="-550" y="-390" as="sourcePoint" />
            <mxPoint x="-390" y="-390" as="targetPoint" />
          </mxGeometry>
        </mxCell>
        <mxCell id="0WUyaa3dZcGhLMTYsMIW-24" value="" style="endArrow=none;html=1;rounded=0;exitX=1;exitY=0.5;exitDx=0;exitDy=0;entryX=0.25;entryY=0;entryDx=0;entryDy=0;" edge="1" parent="1" source="0WUyaa3dZcGhLMTYsMIW-9" target="0WUyaa3dZcGhLMTYsMIW-1">
          <mxGeometry relative="1" as="geometry">
            <mxPoint x="-550" y="-390" as="sourcePoint" />
            <mxPoint x="-390" y="-390" as="targetPoint" />
          </mxGeometry>
        </mxCell>
        <mxCell id="0WUyaa3dZcGhLMTYsMIW-25" value="" style="endArrow=none;html=1;rounded=0;exitX=1;exitY=0.5;exitDx=0;exitDy=0;entryX=0.25;entryY=0;entryDx=0;entryDy=0;" edge="1" parent="1" source="0WUyaa3dZcGhLMTYsMIW-8" target="0WUyaa3dZcGhLMTYsMIW-1">
          <mxGeometry relative="1" as="geometry">
            <mxPoint x="-550" y="-390" as="sourcePoint" />
            <mxPoint x="-390" y="-390" as="targetPoint" />
          </mxGeometry>
        </mxCell>
        <mxCell id="0WUyaa3dZcGhLMTYsMIW-26" value="" style="endArrow=none;html=1;rounded=0;exitX=1;exitY=0.5;exitDx=0;exitDy=0;entryX=0.25;entryY=0;entryDx=0;entryDy=0;" edge="1" parent="1" source="0WUyaa3dZcGhLMTYsMIW-16" target="0WUyaa3dZcGhLMTYsMIW-1">
          <mxGeometry relative="1" as="geometry">
            <mxPoint x="-550" y="-390" as="sourcePoint" />
            <mxPoint x="-390" y="-390" as="targetPoint" />
          </mxGeometry>
        </mxCell>
        <mxCell id="0WUyaa3dZcGhLMTYsMIW-27" value="TelefonosCliente" style="whiteSpace=wrap;html=1;align=center;" vertex="1" parent="1">
          <mxGeometry x="-175" y="1270" width="120" height="40" as="geometry" />
        </mxCell>
        <mxCell id="0WUyaa3dZcGhLMTYsMIW-30" value="Pk_TelefonosCliente" style="ellipse;whiteSpace=wrap;html=1;align=center;fontStyle=4;" vertex="1" parent="1">
          <mxGeometry x="-295" y="1380" width="150" height="40" as="geometry" />
        </mxCell>
        <mxCell id="0WUyaa3dZcGhLMTYsMIW-31" value="TelefonoMovil" style="ellipse;whiteSpace=wrap;html=1;align=center;" vertex="1" parent="1">
          <mxGeometry x="-167.5" y="1345" width="100" height="40" as="geometry" />
        </mxCell>
        <mxCell id="0WUyaa3dZcGhLMTYsMIW-32" value="TelefonoLocal" style="ellipse;whiteSpace=wrap;html=1;align=center;" vertex="1" parent="1">
          <mxGeometry x="-80" y="1390" width="100" height="40" as="geometry" />
        </mxCell>
        <mxCell id="0WUyaa3dZcGhLMTYsMIW-35" style="edgeStyle=orthogonalEdgeStyle;rounded=0;orthogonalLoop=1;jettySize=auto;html=1;exitX=0.5;exitY=1;exitDx=0;exitDy=0;entryX=0.5;entryY=0;entryDx=0;entryDy=0;endArrow=none;endFill=0;" edge="1" parent="1" source="0WUyaa3dZcGhLMTYsMIW-33" target="0WUyaa3dZcGhLMTYsMIW-27">
          <mxGeometry relative="1" as="geometry" />
        </mxCell>
        <mxCell id="0WUyaa3dZcGhLMTYsMIW-33" value="Suministra" style="shape=rhombus;perimeter=rhombusPerimeter;whiteSpace=wrap;html=1;align=center;" vertex="1" parent="1">
          <mxGeometry x="-245" y="1150" width="70" height="60" as="geometry" />
        </mxCell>
        <mxCell id="0WUyaa3dZcGhLMTYsMIW-36" value="1" style="text;html=1;align=center;verticalAlign=middle;resizable=0;points=[];autosize=1;strokeColor=none;fillColor=none;" vertex="1" parent="1">
          <mxGeometry x="-215" y="1129" width="30" height="30" as="geometry" />
        </mxCell>
        <mxCell id="0WUyaa3dZcGhLMTYsMIW-37" value="N" style="text;html=1;align=center;verticalAlign=middle;resizable=0;points=[];autosize=1;strokeColor=none;fillColor=none;" vertex="1" parent="1">
          <mxGeometry x="-210" y="1200" width="30" height="30" as="geometry" />
        </mxCell>
        <mxCell id="0WUyaa3dZcGhLMTYsMIW-38" value="Fk_TelefonosCliente" style="ellipse;whiteSpace=wrap;html=1;align=center;fontStyle=4;" vertex="1" parent="1">
          <mxGeometry x="-35" y="1090" width="125" height="40" as="geometry" />
        </mxCell>
        <mxCell id="0WUyaa3dZcGhLMTYsMIW-39" value="" style="endArrow=none;html=1;rounded=0;exitX=0.75;exitY=1;exitDx=0;exitDy=0;entryX=0.5;entryY=0;entryDx=0;entryDy=0;" edge="1" parent="1" source="0WUyaa3dZcGhLMTYsMIW-27" target="0WUyaa3dZcGhLMTYsMIW-32">
          <mxGeometry relative="1" as="geometry">
            <mxPoint x="-200" y="1360" as="sourcePoint" />
            <mxPoint x="-40" y="1360" as="targetPoint" />
          </mxGeometry>
        </mxCell>
        <mxCell id="0WUyaa3dZcGhLMTYsMIW-40" value="" style="endArrow=none;html=1;rounded=0;exitX=0.5;exitY=1;exitDx=0;exitDy=0;entryX=0.5;entryY=0;entryDx=0;entryDy=0;" edge="1" parent="1" source="0WUyaa3dZcGhLMTYsMIW-27" target="0WUyaa3dZcGhLMTYsMIW-31">
          <mxGeometry relative="1" as="geometry">
            <mxPoint x="-200" y="1360" as="sourcePoint" />
            <mxPoint x="-40" y="1360" as="targetPoint" />
          </mxGeometry>
        </mxCell>
        <mxCell id="0WUyaa3dZcGhLMTYsMIW-41" value="" style="endArrow=none;html=1;rounded=0;exitX=0.25;exitY=1;exitDx=0;exitDy=0;entryX=0.5;entryY=0;entryDx=0;entryDy=0;" edge="1" parent="1" source="0WUyaa3dZcGhLMTYsMIW-27" target="0WUyaa3dZcGhLMTYsMIW-30">
          <mxGeometry relative="1" as="geometry">
            <mxPoint x="-200" y="1360" as="sourcePoint" />
            <mxPoint x="-40" y="1360" as="targetPoint" />
          </mxGeometry>
        </mxCell>
        <mxCell id="0WUyaa3dZcGhLMTYsMIW-42" value="TelefonosSucursal" style="whiteSpace=wrap;html=1;align=center;" vertex="1" parent="1">
          <mxGeometry x="529" y="235" width="120" height="40" as="geometry" />
        </mxCell>
        <mxCell id="0WUyaa3dZcGhLMTYsMIW-43" value="Pk_TelefonosSucursal" style="ellipse;whiteSpace=wrap;html=1;align=center;fontStyle=4;" vertex="1" parent="1">
          <mxGeometry x="430" y="320" width="150" height="40" as="geometry" />
        </mxCell>
        <mxCell id="0WUyaa3dZcGhLMTYsMIW-44" value="TelefonoMovil" style="ellipse;whiteSpace=wrap;html=1;align=center;" vertex="1" parent="1">
          <mxGeometry x="620" y="330" width="100" height="40" as="geometry" />
        </mxCell>
        <mxCell id="0WUyaa3dZcGhLMTYsMIW-45" value="TelefonoLocal" style="ellipse;whiteSpace=wrap;html=1;align=center;" vertex="1" parent="1">
          <mxGeometry x="540" y="365" width="100" height="40" as="geometry" />
        </mxCell>
        <mxCell id="0WUyaa3dZcGhLMTYsMIW-46" value="Suministra" style="shape=rhombus;perimeter=rhombusPerimeter;whiteSpace=wrap;html=1;align=center;" vertex="1" parent="1">
          <mxGeometry x="555" y="133" width="70" height="60" as="geometry" />
        </mxCell>
        <mxCell id="0WUyaa3dZcGhLMTYsMIW-49" value="" style="endArrow=none;html=1;rounded=0;entryX=0;entryY=0.5;entryDx=0;entryDy=0;exitX=0.75;exitY=1;exitDx=0;exitDy=0;" edge="1" parent="1" source="0WUyaa3dZcGhLMTYsMIW-42" target="0WUyaa3dZcGhLMTYsMIW-55">
          <mxGeometry relative="1" as="geometry">
            <mxPoint x="260" y="220" as="sourcePoint" />
            <mxPoint x="420" y="220" as="targetPoint" />
          </mxGeometry>
        </mxCell>
        <mxCell id="0WUyaa3dZcGhLMTYsMIW-50" value="" style="endArrow=none;html=1;rounded=0;exitX=0.75;exitY=1;exitDx=0;exitDy=0;entryX=0.5;entryY=0;entryDx=0;entryDy=0;" edge="1" parent="1" source="0WUyaa3dZcGhLMTYsMIW-42" target="0WUyaa3dZcGhLMTYsMIW-44">
          <mxGeometry relative="1" as="geometry">
            <mxPoint x="260" y="220" as="sourcePoint" />
            <mxPoint x="420" y="220" as="targetPoint" />
          </mxGeometry>
        </mxCell>
        <mxCell id="0WUyaa3dZcGhLMTYsMIW-51" value="" style="endArrow=none;html=1;rounded=0;exitX=0.5;exitY=1;exitDx=0;exitDy=0;entryX=0.5;entryY=0;entryDx=0;entryDy=0;" edge="1" parent="1" source="0WUyaa3dZcGhLMTYsMIW-42" target="0WUyaa3dZcGhLMTYsMIW-45">
          <mxGeometry relative="1" as="geometry">
            <mxPoint x="260" y="220" as="sourcePoint" />
            <mxPoint x="420" y="220" as="targetPoint" />
          </mxGeometry>
        </mxCell>
        <mxCell id="0WUyaa3dZcGhLMTYsMIW-52" value="" style="endArrow=none;html=1;rounded=0;exitX=0.25;exitY=1;exitDx=0;exitDy=0;entryX=0.5;entryY=0;entryDx=0;entryDy=0;" edge="1" parent="1" source="0WUyaa3dZcGhLMTYsMIW-42" target="0WUyaa3dZcGhLMTYsMIW-43">
          <mxGeometry relative="1" as="geometry">
            <mxPoint x="260" y="220" as="sourcePoint" />
            <mxPoint x="420" y="220" as="targetPoint" />
          </mxGeometry>
        </mxCell>
        <mxCell id="0WUyaa3dZcGhLMTYsMIW-53" value="" style="endArrow=none;html=1;rounded=0;exitX=0.5;exitY=1;exitDx=0;exitDy=0;entryX=0.5;entryY=0;entryDx=0;entryDy=0;" edge="1" parent="1" source="0WUyaa3dZcGhLMTYsMIW-46" target="0WUyaa3dZcGhLMTYsMIW-42">
          <mxGeometry relative="1" as="geometry">
            <mxPoint x="260" y="220" as="sourcePoint" />
            <mxPoint x="420" y="220" as="targetPoint" />
          </mxGeometry>
        </mxCell>
        <mxCell id="0WUyaa3dZcGhLMTYsMIW-54" value="" style="endArrow=none;html=1;rounded=0;exitX=0.5;exitY=1;exitDx=0;exitDy=0;entryX=0.5;entryY=0;entryDx=0;entryDy=0;" edge="1" parent="1" source="h_ewbcy0oDdWf5_KwiLt-43" target="0WUyaa3dZcGhLMTYsMIW-46">
          <mxGeometry relative="1" as="geometry">
            <mxPoint x="260" y="220" as="sourcePoint" />
            <mxPoint x="420" y="220" as="targetPoint" />
          </mxGeometry>
        </mxCell>
        <mxCell id="0WUyaa3dZcGhLMTYsMIW-55" value="Fk_Sucursal" style="ellipse;whiteSpace=wrap;html=1;align=center;fontStyle=4;" vertex="1" parent="1">
          <mxGeometry x="690" y="275" width="100" height="40" as="geometry" />
        </mxCell>
        <mxCell id="0WUyaa3dZcGhLMTYsMIW-57" value="1" style="text;html=1;align=center;verticalAlign=middle;resizable=0;points=[];autosize=1;strokeColor=none;fillColor=none;" vertex="1" parent="1">
          <mxGeometry x="595" y="105" width="30" height="30" as="geometry" />
        </mxCell>
        <mxCell id="0WUyaa3dZcGhLMTYsMIW-58" value="N" style="text;html=1;align=center;verticalAlign=middle;resizable=0;points=[];autosize=1;strokeColor=none;fillColor=none;" vertex="1" parent="1">
          <mxGeometry x="590" y="190" width="30" height="30" as="geometry" />
        </mxCell>
        <mxCell id="0WUyaa3dZcGhLMTYsMIW-71" style="edgeStyle=orthogonalEdgeStyle;rounded=0;orthogonalLoop=1;jettySize=auto;html=1;exitX=0;exitY=0.5;exitDx=0;exitDy=0;entryX=0.5;entryY=0;entryDx=0;entryDy=0;endArrow=none;endFill=0;" edge="1" parent="1" source="0WUyaa3dZcGhLMTYsMIW-60" target="0WUyaa3dZcGhLMTYsMIW-61">
          <mxGeometry relative="1" as="geometry" />
        </mxCell>
        <mxCell id="0WUyaa3dZcGhLMTYsMIW-60" value="Suministra" style="shape=rhombus;perimeter=rhombusPerimeter;whiteSpace=wrap;html=1;align=center;" vertex="1" parent="1">
          <mxGeometry x="-562.5" y="1159" width="70" height="60" as="geometry" />
        </mxCell>
        <mxCell id="0WUyaa3dZcGhLMTYsMIW-61" value="TelefonosEmpleado" style="whiteSpace=wrap;html=1;align=center;" vertex="1" parent="1">
          <mxGeometry x="-665" y="1250" width="120" height="40" as="geometry" />
        </mxCell>
        <mxCell id="0WUyaa3dZcGhLMTYsMIW-62" value="Pk_TelefonosEmpleado" style="ellipse;whiteSpace=wrap;html=1;align=center;fontStyle=4;" vertex="1" parent="1">
          <mxGeometry x="-815" y="1310" width="150" height="40" as="geometry" />
        </mxCell>
        <mxCell id="0WUyaa3dZcGhLMTYsMIW-63" value="TelefonoMovil" style="ellipse;whiteSpace=wrap;html=1;align=center;" vertex="1" parent="1">
          <mxGeometry x="-705" y="1360" width="100" height="40" as="geometry" />
        </mxCell>
        <mxCell id="0WUyaa3dZcGhLMTYsMIW-64" value="TelefonoLocal" style="ellipse;whiteSpace=wrap;html=1;align=center;" vertex="1" parent="1">
          <mxGeometry x="-640" y="1400" width="100" height="40" as="geometry" />
        </mxCell>
        <mxCell id="0WUyaa3dZcGhLMTYsMIW-65" value="Fk_Empleado" style="ellipse;whiteSpace=wrap;html=1;align=center;fontStyle=4;" vertex="1" parent="1">
          <mxGeometry x="-577.5" y="1350" width="100" height="40" as="geometry" />
        </mxCell>
        <mxCell id="0WUyaa3dZcGhLMTYsMIW-66" value="" style="endArrow=none;html=1;rounded=0;exitX=0.5;exitY=0;exitDx=0;exitDy=0;entryX=0.75;entryY=1;entryDx=0;entryDy=0;" edge="1" parent="1" source="0WUyaa3dZcGhLMTYsMIW-65" target="0WUyaa3dZcGhLMTYsMIW-61">
          <mxGeometry relative="1" as="geometry">
            <mxPoint x="-750" y="1270" as="sourcePoint" />
            <mxPoint x="-590" y="1270" as="targetPoint" />
          </mxGeometry>
        </mxCell>
        <mxCell id="0WUyaa3dZcGhLMTYsMIW-67" value="" style="endArrow=none;html=1;rounded=0;exitX=0.5;exitY=0;exitDx=0;exitDy=0;entryX=0.5;entryY=1;entryDx=0;entryDy=0;" edge="1" parent="1" source="0WUyaa3dZcGhLMTYsMIW-64" target="0WUyaa3dZcGhLMTYsMIW-61">
          <mxGeometry relative="1" as="geometry">
            <mxPoint x="-750" y="1270" as="sourcePoint" />
            <mxPoint x="-590" y="1270" as="targetPoint" />
          </mxGeometry>
        </mxCell>
        <mxCell id="0WUyaa3dZcGhLMTYsMIW-68" value="" style="endArrow=none;html=1;rounded=0;exitX=0.5;exitY=0;exitDx=0;exitDy=0;entryX=0.5;entryY=1;entryDx=0;entryDy=0;" edge="1" parent="1" source="0WUyaa3dZcGhLMTYsMIW-63" target="0WUyaa3dZcGhLMTYsMIW-61">
          <mxGeometry relative="1" as="geometry">
            <mxPoint x="-750" y="1270" as="sourcePoint" />
            <mxPoint x="-590" y="1270" as="targetPoint" />
          </mxGeometry>
        </mxCell>
        <mxCell id="0WUyaa3dZcGhLMTYsMIW-69" value="" style="endArrow=none;html=1;rounded=0;exitX=1;exitY=0;exitDx=0;exitDy=0;entryX=0.25;entryY=1;entryDx=0;entryDy=0;" edge="1" parent="1" source="0WUyaa3dZcGhLMTYsMIW-62" target="0WUyaa3dZcGhLMTYsMIW-61">
          <mxGeometry relative="1" as="geometry">
            <mxPoint x="-750" y="1270" as="sourcePoint" />
            <mxPoint x="-590" y="1270" as="targetPoint" />
          </mxGeometry>
        </mxCell>
        <mxCell id="0WUyaa3dZcGhLMTYsMIW-72" value="1" style="text;html=1;align=center;verticalAlign=middle;resizable=0;points=[];autosize=1;strokeColor=none;fillColor=none;" vertex="1" parent="1">
          <mxGeometry x="-532.5" y="1139" width="30" height="30" as="geometry" />
        </mxCell>
        <mxCell id="0WUyaa3dZcGhLMTYsMIW-73" value="N" style="text;html=1;align=center;verticalAlign=middle;resizable=0;points=[];autosize=1;strokeColor=none;fillColor=none;" vertex="1" parent="1">
          <mxGeometry x="-582.5" y="1185" width="30" height="30" as="geometry" />
        </mxCell>
      </root>
    </mxGraphModel>
  </diagram>
</mxfile>
